<svg width="435" height="435" viewBox="0 0 448 448" fill="none" xmlns="http://www.w3.org/2000/svg">
<path fill-rule="evenodd" clip-rule="evenodd" d="M64 0C28.6538 0 0 28.6538 0 64V384C0 419.346 28.6538 448 64 448H384C419.346 448 448 419.346 448 384V64C448 28.6538 419.346 0 384 0H64ZM226.434 381.869C317.277 381.869 378.79 317.943 378.79 228.116C378.79 217.642 377.775 209.897 376.315 201.835H226.434V255.985H315.817C312.135 279.156 288.773 323.847 226.434 323.847C172.729 323.847 128.863 279.346 128.863 224.434C128.863 135.941 233.1 95.3128 289.154 149.399L332.004 108.2C304.517 82.553 268.84 67 226.434 67C139.338 67 69 137.338 69 224.434C69 311.531 139.338 381.869 226.434 381.869Z" fill="#328295"/>
</svg>
