<svg width="96" height="98" viewBox="0 0 96 98" fill="none" xmlns="http://www.w3.org/2000/svg">
<g clip-path="url(#clip0_55_66)">
<path d="M78.46 31.59C80.89 28.87 85.81 25.88 87.39 25.01C89.9 23.54 91.69 27.19 89.24 28.57C86.12 30.46 81.03 32.49 79.2 32.99C78.52 33.03 78.06 32.15 78.45 31.59H78.46Z" fill="#F2D231"/>
<path d="M17.03 66.0999C14.6 68.8199 9.68 71.8099 8.1 72.6799C5.59 74.1499 3.8 70.4999 6.25 69.1199C9.37 67.2299 14.46 65.1999 16.29 64.6999C16.97 64.6599 17.43 65.5399 17.04 66.0999H17.03Z" fill="#F2D231"/>
<path d="M66.6 18.7199C67.45 15.1499 70.37 10.1199 71.35 8.57992C72.86 6.06992 76.15 8.39992 74.65 10.7999C72.8 13.9799 69.28 18.2399 67.91 19.5699C67.33 19.9399 66.52 19.3899 66.6 18.7099V18.7199Z" fill="#F2D231"/>
<path d="M28.89 78.9699C28.04 82.5399 25.12 87.5699 24.14 89.1099C22.63 91.6199 19.34 89.2899 20.84 86.8899C22.69 83.7099 26.21 79.4499 27.58 78.1199C28.16 77.7499 28.97 78.2999 28.89 78.9799V78.9699Z" fill="#F2D231"/>
<path d="M50.29 13.2199C49.38 9.66995 49.6 3.82995 49.74 1.99995C49.9 -0.940052 53.88 -0.480052 53.68 2.35995C53.54 6.04995 52.42 11.5099 51.84 13.3399C51.5 13.9499 50.53 13.8499 50.28 13.2199H50.29Z" fill="#F2D231"/>
<path d="M45.2 84.4799C46.11 88.0299 45.89 93.8699 45.75 95.6999C45.59 98.6399 41.61 98.1799 41.81 95.3399C41.95 91.6499 43.07 86.1899 43.65 84.3599C43.99 83.7499 44.96 83.8499 45.21 84.4799H45.2Z" fill="#F2D231"/>
<path d="M31.86 16.9999C29.27 14.4399 26.5 9.31992 25.7 7.67992C24.35 5.07992 27.99 3.37992 29.26 5.90992C31.01 9.14992 32.82 14.3999 33.26 16.2799C33.28 16.9799 32.4 17.4099 31.86 16.9999Z" fill="#F2D231"/>
<path d="M63.63 80.6999C66.22 83.2599 68.99 88.3799 69.79 90.0199C71.14 92.6199 67.5 94.3199 66.23 91.7899C64.48 88.5499 62.67 83.2999 62.23 81.4199C62.21 80.7199 63.09 80.2899 63.63 80.7099V80.6999Z" fill="#F2D231"/>
<path d="M17.81 30.2299C14.29 29.4299 9.29 26.5599 7.77 25.5899C5.28 24.0999 7.5 20.6999 9.89 22.1899C13.05 24.0099 17.3 27.5099 18.63 28.8799C19 29.4599 18.48 30.2999 17.81 30.2399V30.2299Z" fill="#F2D231"/>
<path d="M77.68 67.47C81.2 68.27 86.2 71.14 87.72 72.11C90.21 73.6 87.99 77 85.6 75.51C82.44 73.69 78.19 70.19 76.86 68.82C76.49 68.24 77.01 67.4 77.68 67.46V67.47Z" fill="#F2D231"/>
<path d="M13.06 48.22C9.67 49.47 3.94 49.79 2.14 49.8C-0.749999 49.91 -0.669999 45.83 2.14 45.77C5.76 45.58 11.2 46.2 13.04 46.63C13.66 46.92 13.66 47.91 13.06 48.22Z" fill="#F2D231"/>
<path d="M82.82 48.1599C86.21 46.9099 91.94 46.5899 93.74 46.5799C96.63 46.4699 96.55 50.5499 93.74 50.6099C90.12 50.7999 84.68 50.1799 82.84 49.7499C82.22 49.4599 82.22 48.4699 82.82 48.1599Z" fill="#F2D231"/>
<path d="M72.8 23.8399C74.42 20.5599 78.38 16.3299 79.68 15.0599C81.71 12.9599 84.4 15.9899 82.4 17.9899C79.89 20.6599 75.52 23.9999 73.89 24.9899C73.24 25.2199 72.57 24.4899 72.8 23.8499V23.8399Z" fill="#F2D231"/>
<path d="M22.69 73.85C21.07 77.13 17.11 81.36 15.81 82.63C13.78 84.73 11.09 81.7 13.09 79.7C15.6 77.03 19.97 73.69 21.6 72.7C22.25 72.47 22.92 73.2 22.69 73.84V73.85Z" fill="#F2D231"/>
<path d="M57.99 14.68C57.87 11.01 59.36 5.35999 59.9 3.61999C60.7 0.789989 64.48 2.12999 63.67 4.85999C62.72 8.42999 60.45 13.5 59.49 15.15C59.03 15.66 58.1 15.35 58 14.68H57.99Z" fill="#F2D231"/>
<path d="M37.5 83.01C37.62 86.68 36.13 92.3299 35.59 94.0699C34.79 96.8999 31.01 95.56 31.82 92.83C32.77 89.26 35.04 84.1899 36 82.5399C36.46 82.0299 37.39 82.34 37.49 83.01H37.5Z" fill="#F2D231"/>
<path d="M40.83 13.82C39.01 10.64 37.69 4.95997 37.35 3.15997C36.73 0.279965 40.69 -0.360034 41.24 2.42997C42.07 6.02997 42.44 11.59 42.36 13.51C42.19 14.19 41.23 14.36 40.83 13.82Z" fill="#F2D231"/>
<path d="M54.66 83.8699C56.48 87.0499 57.8 92.7299 58.14 94.5299C58.76 97.4099 54.8 98.0499 54.25 95.2599C53.42 91.6599 53.05 86.0999 53.13 84.1799C53.3 83.4999 54.26 83.3299 54.66 83.8699Z" fill="#F2D231"/>
<path d="M24.06 22.49C20.89 20.73 16.88 16.55 15.68 15.19C13.69 13.05 16.75 10.42 18.64 12.52C21.18 15.16 24.31 19.73 25.22 21.42C25.42 22.09 24.68 22.74 24.06 22.49Z" fill="#F2D231"/>
<path d="M71.43 75.2C74.6 76.96 78.61 81.14 79.81 82.5C81.8 84.64 78.74 87.27 76.85 85.17C74.31 82.53 71.18 77.96 70.27 76.27C70.07 75.6 70.81 74.95 71.43 75.2Z" fill="#F2D231"/>
<path d="M14 39.0699C10.4 39.2599 4.83 37.8499 3.1 37.3399C0.300001 36.5799 1.55 32.7099 4.25 33.4799C7.77 34.3699 12.79 36.59 14.43 37.54C14.94 38 14.66 38.9499 14 39.0699Z" fill="#F2D231"/>
<path d="M81.48 58.62C85.08 58.43 90.65 59.84 92.38 60.35C95.18 61.11 93.93 64.98 91.23 64.21C87.71 63.32 82.69 61.1 81.05 60.15C80.54 59.69 80.82 58.74 81.48 58.62Z" fill="#F2D231"/>
<path d="M14.07 57.13C11.13 59.26 5.69 61.13 3.97 61.63C1.21 62.52 0.220001 58.57 2.9 57.75C6.34 56.58 11.74 55.7 13.63 55.6C14.31 55.71 14.57 56.67 14.07 57.13Z" fill="#F2D231"/>
<path d="M81.36 38.62C84.3 36.49 89.74 34.62 91.46 34.12C94.22 33.23 95.21 37.18 92.53 38C89.09 39.17 83.69 40.05 81.8 40.15C81.12 40.04 80.86 39.08 81.36 38.62Z" fill="#F2D231"/>
<path d="M19.16 54.68C22.23 70.42 38.18 80.46 54.78 77.1C71.38 73.74 82.35 58.26 79.28 42.52C76.21 26.78 60.26 16.74 43.66 20.1C27.06 23.46 16.09 38.94 19.16 54.68Z" fill="#F2D231"/>
<path d="M38.3 25.97C32.47 29.66 29.15 34.8 27.77 36.21C26.46 37.55 25.39 35.74 25.96 34.61C28.04 30.49 34.75 25.52 37.81 24.97C38.38 24.87 38.7 25.59 38.3 25.97Z" fill="white"/>
<path d="M25.4 39.2999C25.62 40.0899 24.52 44.0199 23.87 44.6999C23.43 45.1499 22.49 45.2299 22.16 44.5599C21.62 43.4599 22.11 42.0799 22.7 41.0499C23.13 40.2999 23.95 38.9599 24.9 38.9399C25.12 38.9399 25.35 39.0699 25.42 39.2999H25.4Z" fill="white"/>
<g style="mix-blend-mode:multiply" opacity="0.2">
<path d="M75.21 37.72C75.21 37.72 80.91 50.34 72.73 62.8C64.55 75.26 47.12 78.99 32.65 70.7C33.29 67.14 37.06 64.3 40.61 64.38C43.4 64.45 46.64 65.93 48.67 63.98C50.03 62.67 49.98 60.47 50.79 58.75C52.14 55.86 55.59 54.79 58.65 54.05C61.71 53.31 65.16 52.32 66.61 49.48C67.39 47.96 67.43 46.18 67.47 44.47C67.51 42.76 67.57 40.97 68.38 39.47C69.19 37.97 73.54 37.32 75.12 37.9L75.21 37.72Z" fill="#E6AF29"/>
</g>
</g>
<defs>
<clipPath id="clip0_55_66">
<rect width="95.87" height="97.69" fill="white"/>
</clipPath>
</defs>
</svg>
