<svg width="113" height="98" viewBox="0 0 113 98" fill="none" xmlns="http://www.w3.org/2000/svg">
<g clip-path="url(#clip0_55_57)">
<path d="M110.799 62.0248C106.417 79.004 93.2707 92.0763 76.2703 96.3739C64.2962 99.4044 52.7867 98.0317 43.0088 93.5335C38.0249 91.2421 39.6616 83.8718 45.1524 83.914C49.6189 83.9563 54.2755 83.1538 58.9744 81.3692C67.7702 78.0325 74.7393 70.9579 77.9704 62.1304C87.0619 37.3268 68.9739 14.0649 45.448 14.0649C45.353 14.0649 45.2685 14.0649 45.1735 14.0649C39.7144 14.1071 38.0143 6.75789 42.9666 4.46654C49.2071 1.605 56.1551 0 63.4726 0C94.7701 0 119.225 29.3546 110.799 62.0248Z" fill="#F2D231"/>
<path d="M15.217 20.4954L17.6034 27.2321C17.7512 27.6439 18.1314 27.929 18.5748 27.9396L25.7234 28.1297C26.716 28.1508 27.1278 29.4179 26.3359 30.0198L20.6656 34.3702C20.3171 34.6341 20.1693 35.0882 20.296 35.5105L22.3234 42.3635C22.6085 43.3138 21.5314 44.0952 20.7078 43.5355L14.8158 39.4808C14.4568 39.2379 13.9816 39.2379 13.6226 39.4808L7.73054 43.5355C6.90692 44.0952 5.84044 43.3244 6.11498 42.3635L8.14235 35.5105C8.26906 35.0882 8.12123 34.6341 7.77278 34.3702L2.10248 30.0198C1.31054 29.4179 1.72235 28.1508 2.71492 28.1297L9.8635 27.9396C10.2964 27.929 10.6871 27.6439 10.8349 27.2321L13.2213 20.4954C13.5487 19.5556 14.8791 19.5556 15.217 20.4954Z" fill="#F2D231"/>
<path d="M43.1144 49.3749C42.6709 49.3644 42.2908 49.0793 42.143 48.6674L41.1293 45.7425C40.7914 44.8028 39.4609 44.8028 39.1336 45.7425L38.0988 48.6674C37.951 49.0793 37.5603 49.3644 37.1274 49.3749L34.0229 49.4594C33.0304 49.4805 32.6186 50.7476 33.4105 51.3495L35.8708 53.2396C36.2193 53.5036 36.3671 53.9576 36.2404 54.38L35.3534 57.3577C35.0789 58.3186 36.1453 59.0894 36.969 58.5297L39.5243 56.7664C39.8833 56.5235 40.3585 56.5235 40.7175 56.7664L43.2728 58.5297C44.0964 59.0894 45.1735 58.308 44.8884 57.3577L44.0014 54.38C43.8747 53.9576 44.0225 53.5036 44.371 53.2396L46.8313 51.3495C47.6232 50.7476 47.2114 49.4805 46.2188 49.4594L43.1144 49.3749Z" fill="#F2D231"/>
<path d="M8.19514 63.4714C7.97339 63.4714 7.78333 63.3341 7.70941 63.123L6.71685 60.3037C6.55846 59.839 5.89323 59.839 5.72428 60.3037L4.72116 63.123C4.64724 63.3236 4.45718 63.4714 4.23543 63.4714L1.24718 63.5453C0.750895 63.5664 0.55027 64.1894 0.940961 64.4957L3.31678 66.3118C3.49629 66.4491 3.5702 66.6709 3.50685 66.882L2.65155 69.7541C2.50372 70.2293 3.04224 70.62 3.45405 70.3349L5.91435 68.6349C6.09385 68.5082 6.33672 68.5082 6.51622 68.6349L8.97652 70.3349C9.38833 70.62 9.91629 70.2293 9.77902 69.7541L8.92372 66.882C8.87093 66.6709 8.94484 66.4491 9.11379 66.3118L11.4896 64.4957C11.8909 64.1894 11.6797 63.5559 11.1834 63.5453L8.19514 63.4714Z" fill="#F2D231"/>
<g style="mix-blend-mode:multiply" opacity="0.2">
<path d="M43.1144 49.3749C42.6709 49.3644 42.2908 49.0793 42.143 48.6674L41.1293 45.7425C40.7914 44.8028 39.4609 44.8028 39.1336 45.7425L38.0988 48.6674C37.951 49.0793 37.5603 49.3644 37.1274 49.3749L34.0229 49.4594C33.0304 49.4805 32.6186 50.7476 33.4105 51.3495L35.8708 53.2396C36.2193 53.5036 36.3671 53.9576 36.2404 54.38L35.3534 57.3577C35.0789 58.3186 36.1453 59.0894 36.969 58.5297L39.5243 56.7664C39.8833 56.5235 40.3585 56.5235 40.7175 56.7664L43.2728 58.5297C44.0964 59.0894 45.1735 58.308 44.8884 57.3577L44.0014 54.38C43.8747 53.9576 44.0225 53.5036 44.371 53.2396L46.8313 51.3495C47.6232 50.7476 47.2114 49.4805 46.2188 49.4594L43.1144 49.3749Z" fill="#E6AF29"/>
</g>
<g style="mix-blend-mode:multiply" opacity="0.2">
<path d="M8.19514 63.4714C7.97339 63.4714 7.78333 63.3341 7.70941 63.123L6.71685 60.3037C6.55846 59.839 5.89323 59.839 5.72428 60.3037L4.72116 63.123C4.64724 63.3236 4.45718 63.4714 4.23543 63.4714L1.24718 63.5453C0.750895 63.5664 0.55027 64.1894 0.940961 64.4957L3.31678 66.3118C3.49629 66.4491 3.5702 66.6709 3.50685 66.882L2.65155 69.7541C2.50372 70.2293 3.04224 70.62 3.45405 70.3349L5.91435 68.6349C6.09385 68.5082 6.33672 68.5082 6.51622 68.6349L8.97652 70.3349C9.38833 70.62 9.91629 70.2293 9.77902 69.7541L8.92372 66.882C8.87093 66.6709 8.94484 66.4491 9.11379 66.3118L11.4896 64.4957C11.8909 64.1894 11.6797 63.5559 11.1834 63.5453L8.19514 63.4714Z" fill="#E6AF29"/>
</g>
<g style="mix-blend-mode:multiply" opacity="0.2">
<path d="M109.637 59.744C105.308 76.3325 93.3974 90.1651 76.2703 93.9558C68.6994 95.6347 62.2899 98.8553 49.1332 92.8365C48.2673 92.4353 46.1766 91.1682 47.6549 89.3203C49.1332 87.4725 58.0768 94.5155 69.1851 84.3892C80.2934 74.2629 78.9313 70.9368 86.4705 70.3138C94.0098 69.6908 94.4533 63.6826 98.8142 57.3576C102.816 51.55 111.686 51.8879 109.637 59.744Z" fill="#E6AF29"/>
</g>
</g>
<defs>
<clipPath id="clip0_55_57">
<rect width="111.759" height="98" fill="white" transform="translate(0.719238)"/>
</clipPath>
</defs>
</svg>
