<svg width="134" height="99" viewBox="0 0 134 99" fill="none" xmlns="http://www.w3.org/2000/svg">
<g clip-path="url(#clip0_56_124)">
<path d="M98.8055 31.7558C101.249 29.0247 106.192 26.0172 107.784 25.1326C110.305 23.662 112.107 27.3219 109.641 28.7151C106.512 30.6169 101.382 32.6514 99.5574 33.16C98.8719 33.2043 98.4185 32.3197 98.8055 31.7558Z" fill="#F2D231"/>
<path d="M37.0521 66.4417C34.6085 69.1728 29.666 72.1914 28.0738 73.0649C25.5528 74.5355 23.7505 70.8756 26.2052 69.4824C29.3343 67.5806 34.4648 65.5461 36.2892 65.0375C36.9747 64.9933 37.428 65.8778 37.041 66.4417H37.0521Z" fill="#F2D231"/>
<path d="M86.875 18.819C87.7264 15.2255 90.6676 10.1724 91.6516 8.63551C93.1775 6.11451 96.4725 8.44754 94.9687 10.869C93.1112 14.0645 89.5729 18.3546 88.2018 19.6925C87.6158 20.0685 86.7976 19.5046 86.8861 18.8301L86.875 18.819Z" fill="#F2D231"/>
<path d="M48.9715 79.3783C48.109 82.9718 45.1789 88.0249 44.1949 89.5618C42.669 92.0828 39.374 89.7498 40.8778 87.3283C42.7353 84.1328 46.2736 79.8427 47.6446 78.5048C48.2307 78.1288 49.0489 78.6927 48.9715 79.3672V79.3783Z" fill="#F2D231"/>
<path d="M70.4885 13.2795C69.5708 9.70811 69.7919 3.83683 69.9356 2.00137C70.1015 -0.950854 74.0931 -0.497516 73.8941 2.36625C73.7503 6.08141 72.6336 11.5657 72.0475 13.4012C71.7048 14.0093 70.7317 13.9098 70.4774 13.2795H70.4885Z" fill="#F2D231"/>
<path d="M65.3691 84.9068C66.2868 88.4782 66.0657 94.3495 65.9219 96.185C65.7561 99.1372 61.7645 98.6838 61.9635 95.8201C62.1072 92.1049 63.224 86.6206 63.81 84.7852C64.1528 84.177 65.1258 84.2655 65.3801 84.9068H65.3691Z" fill="#F2D231"/>
<path d="M51.9569 17.0831C49.3585 14.5068 46.5722 9.36529 45.765 7.7178C44.405 5.09728 48.0649 3.3945 49.3364 5.94867C51.0945 9.19944 52.9189 14.4847 53.3501 16.3644C53.3722 17.061 52.4766 17.5033 51.9459 17.0831H51.9569Z" fill="#F2D231"/>
<path d="M83.9006 81.1143C86.499 83.6905 89.2854 88.832 90.0926 90.4795C91.4526 93.1001 87.7927 94.8028 86.5211 92.2487C84.7631 88.9979 82.9387 83.7127 82.5075 81.833C82.4853 81.1364 83.381 80.6941 83.9117 81.1143H83.9006Z" fill="#F2D231"/>
<path d="M37.8371 30.3848C34.2989 29.5776 29.279 26.6918 27.7421 25.7187C25.2321 24.215 27.4657 20.8094 29.8761 22.3021C33.0494 24.1376 37.3285 27.6537 38.6664 29.0248C39.0423 29.6108 38.5116 30.4511 37.8371 30.3848Z" fill="#F2D231"/>
<path d="M98.0205 67.8127C101.559 68.6198 106.579 71.5057 108.116 72.4787C110.625 73.9825 108.392 77.388 105.982 75.8953C102.808 74.0599 98.5291 70.5437 97.1912 69.1727C96.8153 68.5867 97.346 67.7463 98.0205 67.8127Z" fill="#F2D231"/>
<path d="M33.0605 48.4741C29.6549 49.7346 23.8942 50.0442 22.0919 50.0663C19.1839 50.1769 19.2724 46.0747 22.0919 46.0195C25.7297 45.8315 31.2029 46.4507 33.0494 46.8819C33.6797 47.1694 33.6686 48.1756 33.0715 48.4852L33.0605 48.4741Z" fill="#F2D231"/>
<path d="M103.184 48.4076C106.59 47.1471 112.35 46.8375 114.153 46.8154C117.061 46.7049 116.972 50.807 114.153 50.8623C110.515 51.0503 105.042 50.4311 103.195 49.9999C102.565 49.7124 102.576 48.7062 103.173 48.3966L103.184 48.4076Z" fill="#F2D231"/>
<path d="M93.1112 23.9716C94.7476 20.6767 98.7171 16.4197 100.022 15.1481C102.067 13.0363 104.765 16.0769 102.753 18.0893C100.232 20.7762 95.8312 24.1375 94.1948 25.1216C93.5424 25.3538 92.8679 24.624 93.1001 23.9716H93.1112Z" fill="#F2D231"/>
<path d="M42.7465 74.2257C41.11 77.5207 37.1406 81.7777 35.8358 83.0492C33.7903 85.1611 31.0924 82.1204 33.1047 80.1081C35.6257 77.4212 40.0264 74.0599 41.6629 73.0758C42.3152 72.8436 42.9897 73.5734 42.7575 74.2257H42.7465Z" fill="#F2D231"/>
<path d="M78.2284 14.7501C78.1068 11.0571 79.5995 5.38484 80.1523 3.63783C80.9484 0.796173 84.752 2.14513 83.9338 4.88727C82.9829 8.46974 80.7052 13.567 79.7321 15.2256C79.2678 15.7453 78.339 15.4246 78.2284 14.7501Z" fill="#F2D231"/>
<path d="M57.6292 83.4362C57.7508 87.1293 56.2581 92.8015 55.7053 94.5486C54.9092 97.3902 51.1056 96.0412 51.9238 93.2991C52.8747 89.7166 55.1524 84.6193 56.1255 82.9608C56.5898 82.4411 57.5186 82.7618 57.6292 83.4362Z" fill="#F2D231"/>
<path d="M60.9795 13.8986C59.1551 10.7031 57.8282 4.99769 57.4855 3.18434C56.8663 0.287403 60.8357 -0.353904 61.3997 2.45458C62.24 6.07022 62.6049 11.654 62.5275 13.589C62.3616 14.2635 61.3886 14.4404 60.9905 13.8986H60.9795Z" fill="#F2D231"/>
<path d="M74.8782 84.2987C76.7026 87.4942 78.0294 93.1996 78.3722 95.013C78.9914 97.9099 75.0219 98.5512 74.458 95.7427C73.6177 92.1271 73.2528 86.5433 73.3302 84.6083C73.496 83.9338 74.469 83.7569 74.8671 84.2987H74.8782Z" fill="#F2D231"/>
<path d="M44.1286 22.6116C40.9442 20.8425 36.9083 16.6408 35.7031 15.2808C33.7018 13.1358 36.7757 10.4821 38.6775 12.594C41.2316 15.2477 44.3718 19.8474 45.2896 21.5391C45.4886 22.2136 44.7478 22.8659 44.1286 22.6116Z" fill="#F2D231"/>
<path d="M91.729 75.5858C94.9134 77.3549 98.9493 81.5566 100.154 82.9166C102.156 85.0616 99.0819 87.7153 97.1801 85.6034C94.626 82.9497 91.4858 78.35 90.568 76.6583C90.369 75.9838 91.1098 75.3315 91.729 75.5858Z" fill="#F2D231"/>
<path d="M34.0114 39.2745C30.3847 39.4625 24.7898 38.0582 23.0649 37.5386C20.2564 36.7756 21.5169 32.8836 24.2149 33.6576C27.7531 34.5532 32.7951 36.7867 34.4537 37.7376C34.9733 38.202 34.6748 39.1529 34.0224 39.2745H34.0114Z" fill="#F2D231"/>
<path d="M101.835 58.9227C105.462 58.7347 111.057 60.139 112.782 60.6587C115.59 61.4216 114.33 65.3137 111.632 64.5397C108.093 63.6441 103.051 61.4105 101.393 60.4596C100.873 59.9952 101.172 59.0443 101.824 58.9227H101.835Z" fill="#F2D231"/>
<path d="M34.0777 57.4191C31.1255 59.5642 25.6633 61.4328 23.9274 61.9414C21.1521 62.8371 20.1569 58.8676 22.8549 58.0383C26.3157 56.8552 31.7447 55.9707 33.6354 55.8822C34.3099 55.9928 34.5753 56.9547 34.0777 57.4191Z" fill="#F2D231"/>
<path d="M101.714 38.8212C104.666 36.6761 110.128 34.8075 111.864 34.2988C114.639 33.4032 115.634 37.3727 112.936 38.202C109.476 39.3851 104.047 40.2696 102.156 40.3581C101.481 40.2475 101.216 39.2855 101.714 38.8212Z" fill="#F2D231"/>
<path d="M76.8883 77.0544C93.3493 72.6837 103.341 56.5139 99.2054 40.9383C95.0697 25.3626 78.3728 16.2792 61.9118 20.6499C45.4508 25.0206 35.4592 41.1903 39.5948 56.766C43.7304 72.3417 60.4273 81.4251 76.8883 77.0544Z" fill="#F2D231"/>
<path d="M58.4253 26.1056C52.5651 29.8097 49.2259 34.9844 47.8437 36.3997C46.528 37.7486 45.4554 35.9353 46.0304 34.7854C48.1202 30.65 54.865 25.6523 57.9388 25.0994C58.5138 24.9888 58.8344 25.7186 58.4253 26.1056Z" fill="white"/>
<path d="M45.4775 39.4957C45.6987 40.2918 44.5929 44.2391 43.9295 44.9247C43.4872 45.378 42.5363 45.4554 42.2046 44.792C41.6628 43.6863 42.1604 42.2931 42.7464 41.2648C43.1776 40.5019 44.0069 39.164 44.9578 39.1418C45.179 39.1418 45.4112 39.2745 45.4775 39.5067V39.4957Z" fill="white"/>
<g style="mix-blend-mode:multiply" opacity="0.2">
<path d="M95.5326 37.9146C95.5326 37.9146 101.26 50.597 93.0448 63.1246C84.8184 75.6522 67.3041 79.4005 52.753 71.0635C53.3943 67.4921 57.1869 64.6283 60.7583 64.7168C63.5557 64.7831 66.8175 66.2758 68.8631 64.3187C70.2342 63.0029 70.1899 60.7915 70.9971 59.0666C72.3571 56.1587 75.818 55.0861 78.9029 54.3453C81.9878 53.6045 85.4376 52.6093 86.9081 49.7566C87.6932 48.2308 87.7374 46.4395 87.7706 44.7146C87.8038 42.9897 87.8701 41.1985 88.6773 39.6837C89.4844 38.1689 93.863 37.5276 95.4552 38.1025L95.5437 37.9146H95.5326Z" fill="#E6AF29"/>
</g>
<path d="M100.42 95.4774C100.42 95.4774 77.1448 96.4504 66.508 87.6711C55.8822 78.9029 65.7229 73.0758 71.8043 75.9396C71.8043 75.9396 67.1935 68.1776 73.5955 65.0042C80.0086 61.8309 84.6415 69.0953 84.6415 69.0953C84.6415 69.0953 81.9436 54.6217 94.8692 52.6756C107.795 50.7296 112.538 69.3165 112.538 69.3165C112.538 69.3165 126.68 60.117 132.806 72.7441C139.164 85.8246 118.587 95.8091 100.398 95.4884L100.42 95.4774Z" fill="#FCF8E5"/>
<path d="M87.9254 68.2992C88.4451 63.9648 90.5128 60.7914 90.944 59.6415C91.3641 58.5469 90.0041 58.3257 89.5066 58.9449C87.6932 61.1453 86.676 66.2978 87.2067 68.2549C87.3062 68.6198 87.8148 68.6419 87.9254 68.3102V68.2992Z" fill="white"/>
<path d="M92.0829 57.5186C92.6025 57.4634 94.5928 55.8933 94.8029 55.3404C94.9466 54.9755 94.7255 54.3895 94.239 54.3563C93.4429 54.29 92.7794 54.9092 92.3482 55.4952C92.0276 55.9264 91.4747 56.7336 91.729 57.2975C91.7843 57.4302 91.9391 57.5408 92.0829 57.5186Z" fill="white"/>
<g style="mix-blend-mode:multiply">
<path d="M69.2169 84.774C69.2169 84.774 80.7715 91.6073 100.143 91.9501C119.504 92.2928 129.467 80.8046 130.871 78.4937C129.544 76.6693 126.36 75.9284 124.226 76.4149C122.092 76.9015 120.322 78.2283 118.653 79.5551C116.983 80.882 115.292 82.2752 113.213 82.9386C107.839 84.6303 101.691 80.9594 96.1187 82.0319C92.9674 82.64 90.2805 84.7188 87.0408 84.8846C83.8896 85.0505 80.86 83.3809 77.764 82.4963C74.668 81.6117 70.4774 82.0098 69.2059 84.763L69.2169 84.774Z" fill="#FCF8E5"/>
</g>
<path d="M29.9092 42.1936C29.9092 42.1936 11.8863 42.9455 3.64882 36.1565C-4.5776 29.3675 3.04068 24.8452 7.75097 27.0676C7.75097 27.0676 4.17956 21.0526 9.14416 18.5979C14.1088 16.1433 17.7023 21.7713 17.7023 21.7713C17.7023 21.7713 15.6125 10.5595 25.6191 9.05574C35.6368 7.55199 39.2966 21.9372 39.2966 21.9372C39.2966 21.9372 50.2431 14.8164 54.9976 24.5909C59.918 34.7191 43.9848 42.4479 29.8982 42.2047L29.9092 42.1936Z" fill="#FCF8E5"/>
<path d="M20.2344 21.152C20.6324 17.7907 22.2357 15.336 22.5784 14.4404C22.8991 13.589 21.8487 13.4232 21.4617 13.8986C20.0574 15.6014 19.2724 19.593 19.6815 21.1078C19.7589 21.3953 20.157 21.4063 20.2454 21.152H20.2344Z" fill="white"/>
<path d="M23.4519 12.804C23.85 12.7598 25.3869 11.5435 25.5528 11.1233C25.6633 10.8358 25.4975 10.3936 25.1215 10.3604C24.5023 10.3051 23.9937 10.7916 23.651 11.245C23.4077 11.5767 22.9765 12.1959 23.1755 12.6381C23.2197 12.7376 23.3303 12.8261 23.4519 12.815V12.804Z" fill="white"/>
<g style="mix-blend-mode:multiply">
<path d="M5.74966 33.9119C5.74966 33.9119 14.7058 39.1971 29.6992 39.4735C44.6925 39.7389 52.4103 30.8491 53.4939 29.0578C52.4656 27.6425 49.9998 27.0786 48.3523 27.4546C46.7049 27.8305 45.3338 28.8588 44.0401 29.8871C42.7464 30.9154 41.4307 31.999 39.8274 32.5076C35.67 33.8234 30.9044 30.9818 26.5921 31.8C24.1485 32.2644 22.0698 33.8787 19.5599 34.0114C17.1163 34.1441 14.7722 32.8393 12.3839 32.1649C9.9845 31.4793 6.7448 31.7889 5.76072 33.9229L5.74966 33.9119Z" fill="#FCF8E5"/>
</g>
</g>
<defs>
<clipPath id="clip0_56_124">
<rect width="134" height="98.1974" fill="white"/>
</clipPath>
</defs>
</svg>
