<svg width="116" height="99" viewBox="0 0 116 99" fill="none" xmlns="http://www.w3.org/2000/svg">
<g clip-path="url(#clip0_56_107)">
<path d="M113.352 40.6225C110.482 51.7429 101.872 60.3045 90.7375 63.1191C82.8952 65.1039 75.3571 64.2049 68.9532 61.2588C65.689 59.7581 66.761 54.931 70.3571 54.9587C73.2824 54.9863 76.3322 54.4607 79.4097 53.292C85.1704 51.1067 89.7348 46.4732 91.8509 40.6917C97.8053 24.4468 85.9588 9.21165 70.5507 9.21165C70.4885 9.21165 70.4332 9.21165 70.3709 9.21165C66.7955 9.23931 65.6821 4.42602 68.9256 2.92532C73.0127 1.05118 77.5632 0 82.3558 0C102.854 0 118.87 19.2255 113.352 40.6225Z" fill="#F2D231"/>
<g style="mix-blend-mode:multiply" opacity="0.2">
<path d="M112.591 39.1288C109.756 49.9932 101.955 59.0527 90.7375 61.5355C85.779 62.6351 81.5812 64.7443 72.9643 60.8024C72.3972 60.5396 71.0279 59.7097 71.9961 58.4995C72.9643 57.2893 78.8219 61.902 86.0971 55.2699C93.3724 48.6378 92.4803 46.4593 97.418 46.0513C102.356 45.6433 102.646 41.7083 105.502 37.5658C108.123 33.7622 113.933 33.9835 112.591 39.1288Z" fill="#E6AF29"/>
</g>
<path d="M38.4776 31.5583C38.079 31.5488 37.7373 31.2925 37.6044 30.9224L36.5604 27.9421C36.2566 27.0974 35.0607 27.0974 34.7665 27.9421L33.713 30.9224C33.5801 31.2925 33.2289 31.5488 32.8398 31.5583L29.6792 31.6437C28.787 31.6627 28.4169 32.8017 29.1287 33.3427L31.6344 35.2694C31.9476 35.5067 32.0805 35.9148 31.9666 36.2944L31.0649 39.3221C30.8182 40.1858 31.7768 40.8787 32.5171 40.3757L35.1177 38.5818C35.4404 38.3635 35.8675 38.3635 36.1902 38.5818L38.8003 40.3757C39.5406 40.8787 40.5087 40.1764 40.2525 39.3221L39.3508 36.2944C39.2369 35.9148 39.3698 35.5067 39.683 35.2694L42.1887 33.3427C42.9005 32.8017 42.5304 31.6627 41.6382 31.6437L38.4776 31.5583Z" fill="#F2D231"/>
<path d="M57.2323 24.2121C57.033 24.2121 56.8621 24.0888 56.7957 23.8989L56.1123 21.9912C55.9699 21.5736 55.372 21.5736 55.2201 21.9912L54.5463 23.8989C54.4798 24.0793 54.309 24.2121 54.1097 24.2121L52.088 24.2691C51.6419 24.2881 51.4616 24.8481 51.8128 25.1233L53.4168 26.3572C53.5782 26.4806 53.6446 26.6799 53.5876 26.8697L53.0087 28.8154C52.8758 29.2425 53.3599 29.5937 53.73 29.3374L55.4005 28.189C55.5618 28.0751 55.7801 28.0751 55.9415 28.189L57.6119 29.3374C57.9821 29.5937 58.4567 29.2425 58.3333 28.8154L57.7543 26.8697C57.7068 26.6799 57.7733 26.4806 57.9251 26.3572L59.5292 25.1233C59.8898 24.8481 59.7 24.2786 59.2539 24.2691L57.2323 24.2121Z" fill="#F2D231"/>
<g style="mix-blend-mode:multiply" opacity="0.2">
<path d="M57.2323 24.2121C57.033 24.2121 56.8621 24.0888 56.7957 23.8989L56.1123 21.9912C55.9699 21.5736 55.372 21.5736 55.2201 21.9912L54.5463 23.8989C54.4798 24.0793 54.309 24.2121 54.1097 24.2121L52.088 24.2691C51.6419 24.2881 51.4616 24.8481 51.8128 25.1233L53.4168 26.3572C53.5782 26.4806 53.6446 26.6799 53.5876 26.8697L53.0087 28.8154C52.8758 29.2425 53.3599 29.5937 53.73 29.3374L55.4005 28.189C55.5618 28.0751 55.7801 28.0751 55.9415 28.189L57.6119 29.3374C57.9821 29.5937 58.4567 29.2425 58.3333 28.8154L57.7543 26.8697C57.7068 26.6799 57.7733 26.4806 57.9251 26.3572L59.5292 25.1233C59.8898 24.8481 59.7 24.2786 59.2539 24.2691L57.2323 24.2121Z" fill="#E6AF29"/>
</g>
<path d="M14.2654 9.29198C14.0661 9.29198 13.8953 9.16859 13.8288 8.97877L13.1455 7.07102C13.0031 6.65341 12.4051 6.65341 12.2533 7.07102L11.5794 8.97877C11.513 9.1591 11.3421 9.29198 11.1428 9.29198L9.12117 9.34892C8.67508 9.36791 8.49475 9.92789 8.84592 10.2031L10.4499 11.437C10.6113 11.5604 10.6777 11.7597 10.6208 11.9495L10.0418 13.8952C9.90894 14.3223 10.393 14.6735 10.7632 14.4173L12.4336 13.2688C12.595 13.1549 12.8133 13.1549 12.9746 13.2688L14.6451 14.4173C15.0152 14.6735 15.4898 14.3223 15.3664 13.8952L14.7874 11.9495C14.74 11.7597 14.8064 11.5604 14.9583 11.437L16.5623 10.2031C16.923 9.92789 16.7332 9.35842 16.2871 9.34892L14.2654 9.29198Z" fill="#F2D231"/>
<g style="mix-blend-mode:multiply" opacity="0.2">
<path d="M14.2654 9.29198C14.0661 9.29198 13.8953 9.16859 13.8288 8.97877L13.1455 7.07102C13.0031 6.65341 12.4051 6.65341 12.2533 7.07102L11.5794 8.97877C11.513 9.1591 11.3421 9.29198 11.1428 9.29198L9.12117 9.34892C8.67508 9.36791 8.49475 9.92789 8.84592 10.2031L10.4499 11.437C10.6113 11.5604 10.6777 11.7597 10.6208 11.9495L10.0418 13.8952C9.90894 14.3223 10.393 14.6735 10.7632 14.4173L12.4336 13.2688C12.595 13.1549 12.8133 13.1549 12.9746 13.2688L14.6451 14.4173C15.0152 14.6735 15.4898 14.3223 15.3664 13.8952L14.7874 11.9495C14.74 11.7597 14.8064 11.5604 14.9583 11.437L16.5623 10.2031C16.923 9.92789 16.7332 9.35842 16.2871 9.34892L14.2654 9.29198Z" fill="#E6AF29"/>
</g>
<path d="M1.06302 85.4971C3.14161 88.9804 7.49809 90.3186 11.5129 90.8596C17.7676 91.7044 24.1932 91.2583 30.2866 89.6068C35.1461 94.7416 41.6761 98.0445 48.7471 98.3198C55.8086 98.6045 62.946 96.0324 68.2136 91.3152C71.7349 94.6846 76.5659 96.2886 81.4349 96.0798C86.3134 95.8805 90.537 92.6725 93.783 89.0183C96.545 88.9424 99.3544 88.4109 101.756 87.0347C104.147 85.6584 106.093 83.3331 106.587 80.6186C106.691 80.0396 106.729 79.4796 106.691 78.9196C106.511 74.6581 102.8 70.8616 98.6236 69.4853C93.8874 67.9477 88.7527 68.7355 83.8362 69.5423C87.2151 64.3221 90.6035 59.1778 91.9702 53.1034C93.3369 47.0385 92.2265 40.0055 87.5852 35.8578C84.007 32.6593 78.9102 31.6342 74.1267 32.0139C67.5492 32.5549 61.1806 35.5921 56.6343 40.4041C52.0975 45.2067 49.4114 51.7177 49.2311 58.3236C48.3484 56.3305 45.7573 55.0681 43.6028 55.4478C41.4483 55.8369 39.6924 57.8206 39.55 59.9941C36.5603 55.6376 32.6879 51.433 27.7145 49.6581C22.7221 47.8832 16.4388 49.0127 13.4016 53.3502C11.4465 56.1501 11.1143 59.8707 11.9495 63.1926C12.7847 66.5146 14.7114 69.4474 16.9229 72.048C12.5664 70.7951 7.65944 70.7287 4.02429 73.4527C3.11313 74.1455 2.32536 74.9903 1.68945 75.9584C-0.18982 78.8247 -0.673874 82.6022 1.05353 85.5161L1.06302 85.4971Z" fill="#4897A8"/>
<g style="mix-blend-mode:multiply">
<path d="M1.06302 85.4971C3.14161 88.9804 7.49809 90.3186 11.5129 90.8596C17.7676 91.7044 24.1932 91.2583 30.2866 89.6068C35.1461 94.7416 41.6761 98.0445 48.7471 98.3198C55.8086 98.6045 62.946 96.0324 68.2136 91.3152C71.7349 94.6846 76.5659 96.2886 81.4349 96.0798C86.3134 95.8805 90.537 92.6725 93.783 89.0183C96.545 88.9424 99.3544 88.4109 101.756 87.0347C104.147 85.6584 106.093 83.3331 106.587 80.6186C106.691 80.0396 106.729 79.4796 106.691 78.9196C106.16 80.4572 105.22 81.8524 103.977 82.8965C101.917 84.6429 98.8419 85.4781 96.1938 84.9751C96.8772 82.3839 97.0196 81.0077 96.9246 79.2423C95.5579 84.6808 91.5716 89.3315 86.1805 90.8786C80.7705 92.4352 74.6012 90.8976 70.539 87.0157C71.1464 84.5385 71.3457 81.6626 71.099 79.1379C67.3689 87.0536 59.3488 92.4352 50.6168 92.7864C41.8754 93.1186 33.1245 88.2495 28.8154 80.6471C28.9863 82.4314 29.2425 83.8361 29.4134 85.6205C23.282 87.6706 17.0937 88.316 10.6777 87.4618C7.29878 87.0157 3.61617 85.8957 1.91724 82.9439C0.702357 80.8274 0.835235 78.3027 1.68945 75.9584C-0.18982 78.8247 -0.673874 82.6022 1.05353 85.5161L1.06302 85.4971Z" fill="#B0DBE2"/>
</g>
<path d="M62.8985 39.2842C60.1081 40.8408 57.7543 43.0997 56.0648 45.8047C55.8181 46.2033 55.9794 46.7633 56.378 46.9911C56.7957 47.2379 57.3177 47.0765 57.5645 46.6779C59.102 44.2197 61.2471 42.198 63.7812 40.7838C64.7588 40.2428 63.8856 38.7337 62.908 39.2842H62.8985Z" fill="white"/>
<path d="M22.0577 52.2777C22.0577 51.8506 21.6591 51.3571 21.1845 51.4045C17.6918 51.8316 14.6071 54.5746 14.0281 58.1054C13.9522 58.5704 14.1515 59.0355 14.6356 59.1779C15.0532 59.2918 15.6322 59.0355 15.7081 58.5704C15.9454 57.1088 16.5908 55.9224 17.6253 54.9258C17.7582 54.8024 17.8911 54.679 18.024 54.5651C18.0809 54.5177 18.1473 54.4607 18.2043 54.4133C18.2233 54.3943 18.3277 54.3278 18.3372 54.3184C18.6504 54.0906 18.9826 53.8912 19.3337 53.7204C19.4097 53.6824 19.4951 53.6445 19.571 53.6065C19.609 53.5875 19.6185 53.578 19.628 53.578C19.628 53.578 19.6564 53.578 19.6944 53.5496C19.8653 53.4831 20.0266 53.4262 20.1974 53.3692C20.3683 53.3123 20.5391 53.2743 20.71 53.2269C20.8144 53.2079 20.9093 53.1794 21.0137 53.1699C21.0422 53.1699 21.3269 53.1225 21.1845 53.1414C21.6496 53.0845 22.0577 52.7808 22.0577 52.2777Z" fill="white"/>
<path d="M9.97535 73.3009C7.83982 73.2344 5.71378 74.1171 4.24263 75.6642C3.92942 75.9964 3.89146 76.5659 4.24263 76.8886C4.58432 77.2018 5.13481 77.2397 5.46701 76.8886C5.62836 76.7177 5.78971 76.5564 5.97004 76.414C6.00801 76.376 6.05546 76.3476 6.09343 76.3096C6.10292 76.3096 6.2358 76.2052 6.16936 76.2526C6.10292 76.3001 6.2358 76.2052 6.24529 76.1957C6.29274 76.1672 6.33071 76.1293 6.37817 76.1008C6.56799 75.9679 6.76731 75.854 6.96662 75.7401C7.06154 75.6927 7.15645 75.6357 7.26085 75.5883C7.30831 75.5693 7.35576 75.5408 7.41271 75.5218C7.44119 75.5123 7.44119 75.5028 7.45068 75.5028C7.45068 75.5028 7.45068 75.5028 7.46017 75.5028C7.87778 75.3415 8.30489 75.2086 8.75098 75.1232C8.80793 75.1137 8.85538 75.1042 8.91233 75.0947C8.9408 75.0947 8.9408 75.0947 8.95978 75.0947C9.0547 75.0852 9.14961 75.0757 9.25401 75.0662C9.50079 75.0472 9.73807 75.0472 9.98484 75.0472C10.4404 75.0567 10.877 74.6391 10.858 74.1741C10.8391 73.69 10.4784 73.3198 9.98484 73.3009H9.97535Z" fill="white"/>
</g>
<defs>
<clipPath id="clip0_56_107">
<rect width="115.119" height="98.3388" fill="white"/>
</clipPath>
</defs>
</svg>
