<svg width="116" height="99" viewBox="0 0 116 99" fill="none" xmlns="http://www.w3.org/2000/svg">
<g clip-path="url(#clip0_56_176)">
<path d="M46.2816 25.2127C47.262 26.8497 49.306 27.4787 51.202 27.7376C54.1432 28.1353 57.1676 27.9226 60.0348 27.1457C62.3192 29.5597 65.3991 31.1135 68.7195 31.243C72.0399 31.3817 75.3972 30.1608 77.8852 27.9411C79.5407 29.5319 81.816 30.2811 84.1097 30.1793C86.4034 30.0869 88.392 28.5793 89.918 26.859C91.2221 26.822 92.5355 26.5723 93.6731 25.9249C94.8015 25.2774 95.7171 24.1768 95.9483 22.9005C95.9946 22.6323 96.0131 22.364 95.9946 22.0958C95.9113 20.0888 94.1633 18.3038 92.2025 17.6564C89.9735 16.935 87.5596 17.3049 85.2473 17.6841C86.8381 15.2239 88.429 12.8007 89.0764 9.94281C89.7238 7.08491 89.1966 3.78307 87.0139 1.82231C85.3306 0.31474 82.9351 -0.166201 80.6784 0.00952752C77.58 0.268496 74.5833 1.69282 72.4468 3.9588C70.3103 6.21552 69.0432 9.28614 68.9692 12.3938C68.553 11.4596 67.3322 10.8585 66.324 11.0434C65.3159 11.2284 64.4835 12.1625 64.4187 13.1799C63.0129 11.1267 61.1909 9.14741 58.8509 8.31501C56.5017 7.48262 53.542 8.0098 52.1177 10.0538C51.1928 11.3671 51.0448 13.1244 51.4333 14.6875C51.831 16.2505 52.7374 17.6286 53.7732 18.8587C51.72 18.2668 49.417 18.2391 47.7059 19.5154C47.2805 19.8391 46.9013 20.2368 46.6053 20.6992C45.7267 22.0496 45.4954 23.8254 46.3094 25.2035L46.2816 25.2127Z" fill="#7DC4D4"/>
<g style="mix-blend-mode:multiply">
<path d="M46.2816 25.2124C47.262 26.8495 49.306 27.4784 51.202 27.7374C54.1432 28.1351 57.1676 27.9223 60.0348 27.1454C62.3193 29.5594 65.3991 31.1132 68.7195 31.2427C72.0399 31.3814 75.3972 30.1606 77.8852 27.9408C79.5407 29.5316 81.816 30.2808 84.1097 30.1791C86.4035 30.0866 88.392 28.579 89.918 26.8587C91.2221 26.8217 92.5355 26.572 93.6731 25.9246C94.8015 25.2772 95.7171 24.1766 95.9483 22.9002C95.9946 22.632 96.0131 22.3638 95.9946 22.0956C95.7449 22.817 95.3009 23.4736 94.7182 23.9731C93.7471 24.7962 92.3043 25.1847 91.0557 24.9535C91.3794 23.7326 91.4441 23.0852 91.3979 22.2528C90.7504 24.8147 88.8822 26.9975 86.3387 27.7281C83.7953 28.4588 80.8911 27.7374 78.9766 25.9061C79.2633 24.7407 79.3558 23.3904 79.2448 22.1973C77.4875 25.9246 73.7139 28.4588 69.6074 28.616C65.4916 28.7732 61.3759 26.4795 59.3503 22.9002C59.4336 23.7419 59.5538 24.3985 59.6278 25.2402C56.7421 26.2021 53.8287 26.5073 50.8136 26.1096C49.2228 25.8968 47.4932 25.3697 46.6886 23.9823C46.1151 22.9834 46.1799 21.7996 46.5776 20.699C45.6989 22.0493 45.4677 23.8251 46.2816 25.2032V25.2124Z" fill="#B0DBE2"/>
</g>
<path d="M75.388 3.45907C74.0746 4.18973 72.9648 5.25335 72.1694 6.52969C72.0491 6.71467 72.1324 6.98289 72.3173 7.08462C72.5116 7.19561 72.7613 7.12162 72.8723 6.93664C73.5937 5.78053 74.6018 4.8279 75.7949 4.16198C76.2574 3.90301 75.8412 3.2001 75.3787 3.45907H75.388Z" fill="white"/>
<path d="M56.1595 9.58183C56.1595 9.37836 55.9745 9.14714 55.7525 9.17488C54.1062 9.37836 52.6541 10.664 52.3859 12.3287C52.3489 12.5507 52.4414 12.7727 52.6726 12.8282C52.8669 12.8837 53.1443 12.7634 53.1721 12.5415C53.2831 11.8571 53.5883 11.2929 54.0692 10.8212C54.134 10.7657 54.1894 10.7102 54.2542 10.6547C54.2819 10.627 54.3097 10.6085 54.3374 10.5807C54.3467 10.5807 54.3929 10.5437 54.4022 10.5345C54.5502 10.4327 54.7074 10.331 54.8739 10.257C54.9109 10.2385 54.9479 10.22 54.9849 10.2015C55.0034 10.2015 55.0126 10.1923 55.0126 10.1923C55.0126 10.1923 55.0218 10.1923 55.0403 10.183C55.1143 10.1553 55.1976 10.1275 55.2808 10.0998C55.3641 10.072 55.4381 10.0535 55.5213 10.035C55.5675 10.0258 55.6138 10.0165 55.6693 10.0073C55.6878 10.0073 55.8173 9.98878 55.7525 9.99803C55.9745 9.97029 56.1595 9.83155 56.1595 9.59108V9.58183Z" fill="white"/>
<path d="M50.4806 19.4781C49.4725 19.4504 48.4736 19.8573 47.7799 20.588C47.632 20.7452 47.6135 21.0135 47.7799 21.1614C47.9372 21.3094 48.1961 21.3279 48.3626 21.1614C48.4366 21.0782 48.5199 21.0042 48.5938 20.9395C48.6123 20.921 48.6308 20.9025 48.6493 20.8932C48.6493 20.8932 48.7141 20.847 48.6863 20.8655C48.6586 20.884 48.7141 20.847 48.7233 20.8377C48.7418 20.8192 48.7696 20.81 48.7881 20.7915C48.8806 20.7267 48.973 20.6712 49.0655 20.625C49.1118 20.5973 49.158 20.5788 49.2043 20.551C49.2228 20.5418 49.2505 20.5325 49.2783 20.514C49.2875 20.514 49.2968 20.514 49.2968 20.5048C49.491 20.4308 49.6945 20.366 49.9072 20.329C49.9349 20.329 49.9534 20.329 49.9812 20.3198C49.9904 20.3198 49.9997 20.3198 49.9997 20.3198C50.0459 20.3198 50.0922 20.3105 50.1384 20.3013C50.2494 20.3013 50.3696 20.292 50.4806 20.3013C50.6933 20.3013 50.8968 20.1071 50.8876 19.8943C50.8783 19.6631 50.7118 19.4966 50.4806 19.4874V19.4781Z" fill="white"/>
<path d="M112.772 70.1342C110.108 72.5111 105.216 73.8152 101.979 72.3262C97.6686 76.4234 93.3401 79.1796 87.3931 79.3831C81.446 79.5865 74.9903 77.3668 70.4028 73.5748C66.5368 75.6928 61.5423 76.0535 57.741 73.806C55.5398 72.5019 53.9212 70.2452 53.2831 67.7942C52.8114 66.0092 52.8576 64.1224 53.6068 62.4021C55.1421 58.8968 59.0451 56.9083 62.8557 56.5938C66.6662 56.2794 70.7543 58.2494 74.4353 59.35C72.5393 56.0574 70.9485 52.5243 70.3566 48.7693C69.7646 45.005 70.2456 40.991 72.2248 37.7446C74.907 33.3422 80.2899 30.8265 85.4138 31.3167C90.547 31.8161 95.2454 35.1735 97.6224 39.7516C99.9994 44.3391 100.073 49.9716 98.0848 54.7256C100.906 52.5336 105.188 51.9694 108.601 53.0053C111.45 53.8839 113.873 56.0204 115.112 58.7211C115.362 59.2668 115.565 59.8125 115.713 60.3951C116.592 63.8542 115.445 67.7665 112.772 70.1342Z" fill="#4897A8"/>
<g style="mix-blend-mode:multiply">
<path d="M112.772 70.1342C110.108 72.5112 105.216 73.8153 101.979 72.3262C97.6686 76.4235 93.3401 79.1796 87.3931 79.3831C81.446 79.5866 74.9903 77.3669 70.4028 73.5748C66.5368 75.6928 61.5423 76.0535 57.741 73.806C55.5398 72.502 53.9212 70.2452 53.2831 67.7943C54.7536 69.9215 56.9919 71.5216 59.4983 72.2152C62.606 73.0661 66.0836 72.5019 68.7565 70.6799C67.8316 69.5516 67.4894 68.1457 67.7206 66.7029C69.6814 69.8383 72.5671 72.1967 75.9522 73.6581C79.3373 75.1101 83.0831 75.6373 86.7549 75.4061C90.0475 75.2026 93.3586 74.3795 96.1981 72.7147C99.056 71.0406 101.424 68.4602 102.543 65.3526C102.82 66.9341 102.839 68.5064 102.478 70.051C106.381 71.2996 110.959 70.0048 113.41 66.7214C115.094 64.4554 115.658 61.4588 115.094 58.7026C115.343 59.2483 115.547 59.794 115.695 60.3767C116.573 63.8358 115.427 67.748 112.754 70.1157L112.772 70.1342Z" fill="#B0DBE2"/>
</g>
<path d="M78.8286 35.081C75.1752 37.2915 72.8908 41.5182 73.122 45.7912C73.159 46.4108 73.6307 46.9473 74.2781 46.9473C74.8793 46.9473 75.462 46.4201 75.4342 45.7912C75.2492 42.3321 76.988 38.8915 80.0032 37.0695C81.2703 36.3018 80.1142 34.3133 78.8378 35.081H78.8286Z" fill="white"/>
<path d="M63.4199 60.0346C63.3921 59.4704 62.9112 58.8045 62.2638 58.8785C60.0903 59.1374 58.0462 60.1178 56.5942 61.7826C56.1965 62.2358 56.1132 62.9665 56.5942 63.4104C57.0289 63.8081 57.7965 63.9006 58.222 63.4104C58.5179 63.0774 58.8324 62.763 59.1839 62.4855C59.2024 62.4763 59.2856 62.4115 59.2948 62.4023C59.3781 62.3468 59.4613 62.282 59.5446 62.2266C59.7388 62.0971 59.933 61.9768 60.1365 61.8751C60.229 61.8289 60.3215 61.7826 60.414 61.7364C60.4695 61.7086 60.5342 61.6809 60.5897 61.6531C60.5989 61.6531 60.6359 61.6346 60.6637 61.6254C60.7192 61.5976 60.7839 61.5791 60.8394 61.5606C60.9319 61.5236 61.0336 61.4959 61.1261 61.4589C61.3481 61.3849 61.5701 61.3294 61.7921 61.2739C61.8938 61.2554 61.9955 61.2277 62.0973 61.2092C62.162 61.1999 62.2268 61.1907 62.2915 61.1814C62.3377 61.1814 62.3285 61.1814 62.3007 61.1814C62.5967 61.1444 62.8464 61.0797 63.0684 60.8577C63.2719 60.6542 63.4199 60.3305 63.4014 60.0438L63.4199 60.0346Z" fill="white"/>
<path d="M105.28 55.0956C103.088 54.9568 100.823 55.5858 99.0282 56.8528C98.538 57.1951 98.2606 57.8795 98.612 58.4252C98.9265 58.9153 99.6571 59.2113 100.184 58.8414C100.573 58.5639 100.989 58.3234 101.414 58.1107C101.498 58.0645 101.59 58.0275 101.683 57.9905C101.701 57.9905 101.895 57.9072 101.932 57.8887C102.154 57.8055 102.386 57.7315 102.617 57.6667C102.848 57.602 103.079 57.5465 103.31 57.5003C103.44 57.4725 103.56 57.454 103.69 57.4355C103.727 57.4355 103.764 57.4355 103.81 57.4263C104.3 57.3708 104.79 57.3708 105.29 57.3985C105.891 57.4355 106.464 56.8436 106.446 56.2424C106.418 55.5858 105.937 55.1326 105.29 55.0863L105.28 55.0956Z" fill="white"/>
<path d="M68.22 69.9678C64.1875 71.3736 58.4439 72.2985 54.1894 71.8915C50.0922 76.5899 43.9601 79.4478 37.7263 79.5773C31.4926 79.7068 25.2403 77.4131 20.958 72.8811C17.9521 73.7783 14.8353 74.472 11.6999 74.3702C8.55524 74.2592 5.36436 73.2603 3.05213 71.1424C2.17348 70.3377 1.44282 69.3666 0.924877 68.2845C0.0647268 66.5364 -0.258985 64.5202 0.231207 62.6334C0.952623 59.831 3.2926 57.6853 5.9008 56.3904C10.7842 53.958 16.7313 53.9857 21.3927 56.7974C13.5959 51.0631 10.0443 40.1586 12.9855 30.9375C14.2618 26.8958 17.0365 22.9557 21.1523 21.9291C24.6391 21.069 28.3202 22.484 31.3538 24.4078C40.5658 30.2346 46.2723 41.1853 45.7822 52.0619C45.8469 48.3161 50.3326 45.1438 54.0322 45.7635C57.7133 46.3924 60.3122 50.6931 59.1376 54.2539C61.9493 52.3764 66.213 52.2377 69.4501 53.2365C71.5034 53.8655 73.3162 55.2898 74.4353 57.1211C75.0642 58.1569 75.4619 59.3408 75.5452 60.5617C75.8134 64.8161 72.2618 68.5619 68.2293 69.9678H68.22Z" fill="#59B4C9"/>
<g style="mix-blend-mode:multiply">
<path d="M68.2201 69.9678C64.1875 71.3736 58.4439 72.2985 54.1894 71.8915C50.0922 76.59 43.9601 79.4479 37.7264 79.5774C31.4926 79.7068 25.2403 77.4131 20.9581 72.8812C17.9522 73.7783 14.8353 74.472 11.6999 74.3702C8.55526 74.2593 5.36438 73.2604 3.05215 71.1424C2.1735 70.3377 1.44284 69.3666 0.924896 68.2845C2.95966 69.6903 5.29964 70.6244 7.74135 71.0129C11.2929 71.5771 15.011 70.9574 18.1834 69.2741C17.1845 67.6926 16.8793 65.8613 16.9718 64.0023C20.8286 70.6244 28.3387 74.8327 35.9968 74.8974C43.6642 74.9622 51.2205 70.7354 55.1883 64.1872C55.4103 65.9075 55.0958 67.4891 54.4484 69.1076C57.7965 69.0891 61.1631 69.2186 64.4095 68.414C67.6651 67.6093 70.8098 65.926 72.752 63.1884C73.9729 61.4403 74.6018 59.2298 74.4261 57.1211C75.055 58.157 75.4527 59.3408 75.536 60.5617C75.8042 64.8162 72.2526 68.5619 68.2201 69.9678Z" fill="#B0DBE2"/>
</g>
<path d="M20.2736 26.7848C19.8297 26.3316 19.099 26.3501 18.6458 26.7848C16.1579 29.171 14.7243 32.5283 14.678 35.9597C14.678 36.5793 15.2145 37.1158 15.8342 37.1158C16.4538 37.1158 16.981 36.5886 16.9903 35.9597C17.0273 33.1388 18.2111 30.4011 20.2829 28.4126C20.7361 27.9779 20.7176 27.2195 20.2829 26.7848H20.2736Z" fill="white"/>
<path d="M53.32 48.7416C53.2276 48.4641 53.0611 48.1959 52.7929 48.0572C52.5061 47.8999 52.2287 47.8907 51.905 47.9369C49.9719 48.2699 48.3441 49.8052 47.7707 51.6642C47.595 52.2377 47.9834 52.9498 48.5753 53.0793C49.195 53.218 49.8055 52.8943 49.9904 52.2746C50.0089 52.2099 50.0367 52.1359 50.0644 52.0712C50.1754 51.8215 50.3234 51.5902 50.4806 51.3683C50.6564 51.1648 50.8413 50.9706 51.0541 50.7948C51.276 50.6376 51.5073 50.4989 51.757 50.3786C52.0067 50.2861 52.2564 50.2029 52.5246 50.1567C52.7929 50.1104 53.0796 49.8514 53.2091 49.6295C53.357 49.3798 53.4125 49.019 53.3293 48.7416H53.32Z" fill="white"/>
<path d="M12.0791 57.5465C8.84197 57.7777 5.81757 58.9986 3.31111 61.0703C2.83017 61.468 2.90416 62.2912 3.31111 62.6981C3.78281 63.1698 4.45798 63.0958 4.93893 62.6981C6.9182 61.0611 9.55414 60.0345 12.0698 59.8495C12.6895 59.8032 13.226 59.35 13.226 58.6934C13.226 58.1015 12.6988 57.5003 12.0698 57.5373L12.0791 57.5465Z" fill="white"/>
<path d="M109.193 84.3219C108.212 88.6319 103.708 91.4066 99.3057 91.8412C94.894 92.2852 90.3435 90.7776 86.1352 89.3903C82.6484 94.4957 76.7291 97.8715 70.56 98.2415C64.4003 98.6207 58.3792 95.6518 54.3004 90.9903C51.72 93.3026 48.1314 94.4679 44.6815 94.098C41.2317 93.728 37.8003 92.0262 35.7656 89.2146C32.3527 90.2782 28.8104 91.0921 25.2403 90.9534C21.6702 90.8054 18.0446 89.6308 15.4642 87.1706C14.3636 86.1162 13.4942 84.8121 12.93 83.3878C12.1901 81.4733 12.0051 79.3738 12.6063 77.413C13.7716 73.658 17.5545 71.1793 21.4205 70.5041C25.2866 69.8104 29.2451 70.5966 33.0741 71.5307C31.6221 69.7734 30.3735 67.9514 29.6428 65.7964C28.9029 63.6414 28.9491 61.1073 30.2532 59.239C31.5758 57.3707 34.0175 56.4921 36.2835 56.751C38.5403 57.0192 40.6028 58.3141 42.1196 60.0159C38.6605 55.4192 37.5229 49.3519 38.6605 43.7101C39.7981 38.0868 43.7012 32.9999 48.9638 30.7155C54.2357 28.431 60.7654 29.1247 65.2604 32.7225C68.9045 35.6451 71.0317 40.1493 71.9381 44.7275C72.863 49.3057 72.715 54.0226 72.5671 58.7025C73.6307 55.1695 75.3325 51.7104 77.9777 49.1392C80.6136 46.5773 84.5629 45.1067 88.0868 46.1888C91.3054 47.1692 93.6916 50.1843 94.3945 53.4769C95.1159 56.7788 94.2928 60.2749 92.6465 63.216C91.0002 66.1571 89.1689 69.7827 86.5514 71.8914C89.918 71.5215 93.3124 71.1423 96.6883 71.4752C100.055 71.8082 103.449 72.9366 105.965 75.2025C107.833 76.9043 109.137 79.309 109.359 81.7877C109.443 82.6479 109.396 83.4988 109.193 84.3497V84.3219Z" fill="#7DC4D4"/>
<g style="mix-blend-mode:multiply">
<path d="M109.193 84.3219C108.212 88.6319 103.708 91.4065 99.3057 91.8412C94.894 92.2852 90.3435 90.7776 86.1352 89.3903C82.6484 94.4957 76.7291 97.8715 70.56 98.2415C64.4003 98.6207 58.3792 95.6518 54.3004 90.9903C51.72 93.3026 48.1314 94.4679 44.6815 94.098C41.2317 93.728 37.8003 92.0262 35.7656 89.2146C32.3527 90.2782 28.8104 91.0921 25.2403 90.9533C21.6702 90.8054 18.0446 89.6308 15.4642 87.1706C14.3636 86.1162 13.4942 84.8121 12.93 83.3878C14.826 85.33 17.5267 86.6064 20.2459 87.0503C24.6391 87.7532 29.0971 86.6989 33.4164 85.6537C32.3527 83.323 31.955 80.3356 32.2047 77.783C32.8429 81.7322 35.5436 85.3023 39.1414 87.0503C42.7393 88.7891 47.188 88.6689 50.6841 86.7266C49.2598 84.8861 48.8343 82.3612 48.9453 80.0489C51.6645 87.7347 59.6186 93.3118 67.7761 93.6633C75.9152 94.024 84.045 89.0388 87.4393 81.6212C87.4393 82.9531 87.2636 84.2109 87.2636 85.5613C91.8511 87.1243 96.6975 88.1417 101.516 87.7532C104.097 87.5313 106.927 86.8746 108.379 84.7289C108.971 83.8502 109.258 82.8513 109.35 81.8062C109.433 82.6664 109.387 83.5173 109.184 84.3682L109.193 84.3219Z" fill="#B0DBE2"/>
</g>
<path d="M49.232 36.5052C48.8806 35.9502 48.2239 35.793 47.6505 36.089C45.0238 37.4393 43.026 39.9088 42.2121 42.7482C42.0456 43.3308 42.4156 44.0337 43.0167 44.1725C43.6364 44.3112 44.2654 43.9875 44.4411 43.3678C44.5336 43.0534 44.6446 42.7389 44.7648 42.4244C44.7648 42.4244 44.7648 42.4244 44.7648 42.4152C44.7925 42.3505 44.8295 42.2765 44.8573 42.2117C44.922 42.073 44.9868 41.9435 45.0608 41.8048C45.218 41.5088 45.3845 41.2313 45.5695 40.9539C45.6527 40.8244 45.7359 40.7042 45.8284 40.5839C45.8562 40.5469 46.0504 40.3157 45.8654 40.5284C45.9117 40.4729 45.9579 40.4082 46.0042 40.3527C46.4111 39.8625 46.8551 39.4186 47.3452 39.0209C47.3822 38.9931 47.4007 38.9746 47.4192 38.9654C47.4747 38.9284 47.521 38.8821 47.5765 38.8451C47.6967 38.7526 47.8262 38.6694 47.9464 38.5862C48.2239 38.4012 48.5106 38.244 48.8066 38.0867C49.343 37.8093 49.5465 37.0046 49.2228 36.5052H49.232Z" fill="white"/>
<path d="M43.7937 50.4802C43.7382 50.2953 43.7104 50.101 43.6734 49.9068C43.6364 49.5091 43.6272 49.1022 43.6734 48.7045C43.7104 48.427 43.5162 48.0755 43.3312 47.8813C43.1277 47.6778 42.804 47.5299 42.5081 47.5391C42.2121 47.5484 41.8976 47.6501 41.6849 47.8813C41.6202 47.9553 41.5647 48.0385 41.4999 48.1125C41.3982 48.2975 41.3427 48.4917 41.3427 48.6952C41.241 49.4906 41.3242 50.3138 41.5369 51.0814C41.6109 51.3589 41.8144 51.6271 42.0734 51.7751C42.3231 51.9231 42.6838 51.9786 42.9613 51.8953C43.2387 51.8028 43.5162 51.6271 43.6549 51.3589C43.8029 51.0814 43.8584 50.7762 43.7752 50.471L43.7937 50.4802Z" fill="white"/>
<path d="M37.2732 60.2471C37.1159 60.0066 36.8755 59.7754 36.5795 59.7106C35.8303 59.5627 35.0442 59.5812 34.3228 59.8494C33.6198 60.1083 32.9447 60.5153 32.4822 61.1165C32.288 61.3662 32.14 61.5974 32.14 61.9396C32.14 62.2263 32.2695 62.5593 32.4822 62.7628C32.7042 62.9662 32.9909 63.1142 33.3054 63.105C33.5921 63.0957 33.9436 63.0032 34.1285 62.7628C34.2488 62.6055 34.3968 62.4761 34.5447 62.3466C34.6835 62.2541 34.8222 62.1708 34.9702 62.0968C35.1367 62.0321 35.3031 61.9951 35.4789 61.9581C35.6916 61.9396 35.9043 61.9304 36.1171 61.9581C36.0986 61.9581 36.0801 61.9581 36.0708 61.9581C36.3483 62.0044 36.6257 61.9859 36.8755 61.8379C37.1159 61.6991 37.3472 61.4217 37.4119 61.1442C37.4766 60.8482 37.4674 60.5153 37.2917 60.2563L37.2732 60.2471Z" fill="white"/>
<path d="M25.8692 72.3354C23.1963 72.2891 20.5789 72.8903 18.1741 74.0557C17.6285 74.3239 17.4342 75.147 17.7579 75.6372C18.1186 76.2014 18.7568 76.3309 19.3395 76.0534C21.3465 75.0823 23.5848 74.6106 25.86 74.6476C26.4704 74.6568 27.0439 74.1112 27.0161 73.4915C26.9884 72.8533 26.5074 72.3446 25.86 72.3354H25.8692Z" fill="white"/>
</g>
<defs>
<clipPath id="clip0_56_176">
<rect width="116" height="98.26" fill="white"/>
</clipPath>
</defs>
</svg>
