<svg width="116" height="99" viewBox="0 0 116 99" fill="none" xmlns="http://www.w3.org/2000/svg">
<g clip-path="url(#clip0_56_210)">
<path d="M46.2816 25.2126C47.262 26.8497 49.306 27.4786 51.202 27.7376C54.1432 28.1353 57.1676 27.9225 60.0348 27.1456C62.3192 29.5596 65.3991 31.1134 68.7195 31.2429C72.0399 31.3816 75.3972 30.1608 77.8852 27.941C79.5407 29.5318 81.816 30.281 84.1097 30.1793C86.4034 30.0868 88.392 28.5792 89.918 26.8589C91.2221 26.8219 92.5355 26.5722 93.6731 25.9248C94.8015 25.2773 95.7171 24.1767 95.9483 22.9004C95.9946 22.6322 96.0131 22.3639 95.9946 22.0957C95.9113 20.0887 94.1633 18.3037 92.2025 17.6562C89.9735 16.9348 87.5596 17.3048 85.2473 17.684C86.8381 15.2238 88.429 12.8005 89.0764 9.94263C89.7238 7.08471 89.1966 3.78284 87.0139 1.82207C85.3306 0.314498 82.9351 -0.166446 80.6784 0.00928358C77.58 0.268253 74.5833 1.69259 72.4468 3.95857C70.3103 6.21531 69.0432 9.28595 68.9692 12.3936C68.553 11.4595 67.3322 10.8583 66.324 11.0432C65.3159 11.2282 64.4835 12.1624 64.4187 13.1798C63.0129 11.1265 61.1909 9.14722 58.8509 8.31482C56.5017 7.48241 53.542 8.0096 52.1177 10.0536C51.1928 11.367 51.0448 13.1243 51.4333 14.6873C51.831 16.2504 52.7374 17.6285 53.7732 18.8586C51.72 18.2667 49.417 18.2389 47.7059 19.5153C47.2805 19.839 46.9013 20.2367 46.6053 20.6991C45.7267 22.0495 45.4954 23.8253 46.3094 25.2034L46.2816 25.2126Z" fill="#FCF8E5"/>
<g style="mix-blend-mode:multiply">
<path d="M46.2816 25.2126C47.262 26.8496 49.306 27.4786 51.202 27.7375C54.1432 28.1352 57.1676 27.9225 60.0348 27.1456C62.3193 29.5596 65.3991 31.1134 68.7195 31.2429C72.0399 31.3816 75.3972 30.1607 77.8852 27.941C79.5407 29.5318 81.816 30.281 84.1097 30.1792C86.4034 30.0868 88.392 28.5792 89.918 26.8589C91.2221 26.8219 92.5355 26.5722 93.6731 25.9247C94.8015 25.2773 95.7171 24.1767 95.9483 22.9003C95.9946 22.6321 96.0131 22.3639 95.9946 22.0957C95.7449 22.8171 95.3009 23.4738 94.7182 23.9732C93.7471 24.7964 92.3043 25.1848 91.0557 24.9536C91.3794 23.7327 91.4441 23.0853 91.3979 22.2529C90.7504 24.8149 88.8822 26.9976 86.3387 27.7283C83.7952 28.4589 80.8911 27.7375 78.9766 25.9062C79.2633 24.7409 79.3558 23.3905 79.2448 22.1974C77.4875 25.9247 73.7139 28.4589 69.6074 28.6162C65.4916 28.7734 61.3759 26.4797 59.3503 22.9003C59.4336 23.742 59.5538 24.3987 59.6278 25.2403C56.7421 26.2022 53.8287 26.5074 50.8136 26.1097C49.2228 25.897 47.4932 25.3698 46.6886 23.9825C46.1151 22.9836 46.1799 21.7997 46.5776 20.6991C45.6989 22.0494 45.4677 23.8252 46.2816 25.2033V25.2126Z" fill="#FCF8E5"/>
</g>
<path d="M75.388 3.45907C74.0746 4.18973 72.9648 5.25336 72.1693 6.52971C72.0491 6.71469 72.1324 6.98291 72.3173 7.08465C72.5116 7.19563 72.7613 7.12164 72.8723 6.93666C73.5937 5.78055 74.6018 4.82791 75.7949 4.16199C76.2574 3.90302 75.8412 3.2001 75.3787 3.45907H75.388Z" fill="white"/>
<path d="M56.1595 9.58196C56.1595 9.37848 55.9745 9.14726 55.7525 9.17501C54.1062 9.37848 52.6541 10.6641 52.3859 12.3289C52.3489 12.5509 52.4414 12.7728 52.6726 12.8283C52.8668 12.8838 53.1443 12.7636 53.1721 12.5416C53.283 11.8572 53.5883 11.293 54.0692 10.8213C54.1339 10.7658 54.1894 10.7103 54.2542 10.6548C54.2819 10.6271 54.3097 10.6086 54.3374 10.5808C54.3467 10.5808 54.3929 10.5438 54.4022 10.5346C54.5501 10.4329 54.7074 10.3311 54.8739 10.2571C54.9109 10.2386 54.9479 10.2201 54.9848 10.2016C55.0033 10.2016 55.0126 10.1924 55.0126 10.1924C55.0126 10.1924 55.0218 10.1924 55.0403 10.1831C55.1143 10.1554 55.1976 10.1276 55.2808 10.0999C55.3641 10.0722 55.438 10.0537 55.5213 10.0352C55.5675 10.0259 55.6138 10.0167 55.6693 10.0074C55.6878 10.0074 55.8172 9.98891 55.7525 9.99816C55.9745 9.97041 56.1595 9.83168 56.1595 9.59121V9.58196Z" fill="white"/>
<path d="M50.4806 19.4783C49.4725 19.4505 48.4736 19.8575 47.7799 20.5881C47.632 20.7454 47.6135 21.0136 47.7799 21.1616C47.9372 21.3095 48.1961 21.328 48.3626 21.1616C48.4366 21.0783 48.5199 21.0043 48.5938 20.9396C48.6123 20.9211 48.6308 20.9026 48.6493 20.8933C48.6493 20.8933 48.7141 20.8471 48.6863 20.8656C48.6586 20.8841 48.7141 20.8471 48.7233 20.8379C48.7418 20.8194 48.7696 20.8101 48.7881 20.7916C48.8806 20.7269 48.973 20.6714 49.0655 20.6251C49.1118 20.5974 49.158 20.5789 49.2043 20.5511C49.2228 20.5419 49.2505 20.5326 49.2783 20.5141C49.2875 20.5141 49.2968 20.5141 49.2968 20.5049C49.491 20.4309 49.6945 20.3662 49.9072 20.3292C49.9349 20.3292 49.9534 20.3292 49.9812 20.3199C49.9904 20.3199 49.9997 20.3199 49.9997 20.3199C50.0459 20.3199 50.0922 20.3107 50.1384 20.3014C50.2494 20.3014 50.3696 20.2922 50.4806 20.3014C50.6933 20.3014 50.8968 20.1072 50.8876 19.8945C50.8783 19.6632 50.7118 19.4968 50.4806 19.4875V19.4783Z" fill="white"/>
<path d="M112.772 70.1347C110.108 72.5116 105.216 73.8157 101.979 72.3266C97.6686 76.4239 93.3401 79.1801 87.3931 79.3836C81.446 79.5871 74.9903 77.3673 70.4028 73.5753C66.5368 75.6933 61.5423 76.054 57.741 73.8065C55.5398 72.5024 53.9212 70.2456 53.2831 67.7947C52.8114 66.0096 52.8576 64.1229 53.6068 62.4026C55.1421 58.8972 59.0451 56.9087 62.8557 56.5942C66.6663 56.2798 70.7543 58.2498 74.4354 59.3504C72.5393 56.0578 70.9485 52.5247 70.3566 48.7696C69.7646 45.0053 70.2456 40.9913 72.2249 37.7449C74.907 33.3424 80.2899 30.8267 85.4138 31.3169C90.547 31.8164 95.2454 35.1737 97.6224 39.7519C99.9994 44.3394 100.073 49.972 98.0848 54.7259C100.906 52.534 105.188 51.9698 108.601 53.0056C111.45 53.8843 113.873 56.0208 115.112 58.7215C115.362 59.2672 115.565 59.8129 115.713 60.3955C116.592 63.8546 115.445 67.7669 112.772 70.1347Z" fill="#F3E4A6"/>
<g style="mix-blend-mode:multiply">
<path d="M112.772 70.1347C110.108 72.5116 105.216 73.8157 101.979 72.3267C97.6686 76.4239 93.3401 79.1801 87.3931 79.3836C81.446 79.5871 74.9903 77.3673 70.4028 73.5753C66.5368 75.6933 61.5423 76.054 57.741 73.8065C55.5398 72.5024 53.9212 70.2457 53.2831 67.7947C54.7536 69.9219 56.9919 71.522 59.4983 72.2157C62.606 73.0666 66.0836 72.5024 68.7565 70.6804C67.8316 69.552 67.4894 68.1462 67.7206 66.7033C69.6814 69.8387 72.5671 72.1972 75.9522 73.6585C79.3373 75.1106 83.0831 75.6378 86.7549 75.4066C90.0475 75.2031 93.3586 74.3799 96.1981 72.7151C99.056 71.0411 101.424 68.4606 102.543 65.353C102.82 66.9345 102.839 68.5069 102.478 70.0514C106.381 71.3 110.959 70.0052 113.41 66.7218C115.094 64.4558 115.658 61.4592 115.094 58.703C115.343 59.2487 115.547 59.7944 115.695 60.3771C116.573 63.8362 115.427 67.7484 112.754 70.1162L112.772 70.1347Z" fill="#F3E4A6"/>
</g>
<path d="M78.8286 35.0812C75.1753 37.2917 72.8908 41.5185 73.122 45.7915C73.159 46.4112 73.6307 46.9476 74.2781 46.9476C74.8793 46.9476 75.462 46.4204 75.4342 45.7915C75.2492 42.3324 76.988 38.8918 80.0032 37.0697C81.2703 36.3021 80.1142 34.3136 78.8378 35.0812H78.8286Z" fill="white"/>
<path d="M63.4199 60.0348C63.3921 59.4706 62.9112 58.8047 62.2638 58.8787C60.0903 59.1377 58.0463 60.1181 56.5942 61.7829C56.1965 62.2361 56.1132 62.9667 56.5942 63.4107C57.0289 63.8084 57.7965 63.9009 58.222 63.4107C58.518 63.0777 58.8324 62.7633 59.1839 62.4858C59.2024 62.4765 59.2856 62.4118 59.2949 62.4025C59.3781 62.3471 59.4613 62.2823 59.5446 62.2268C59.7388 62.0973 59.933 61.9771 60.1365 61.8754C60.229 61.8291 60.3215 61.7829 60.414 61.7366C60.4695 61.7089 60.5342 61.6811 60.5897 61.6534C60.599 61.6534 60.636 61.6349 60.6637 61.6256C60.7192 61.5979 60.7839 61.5794 60.8394 61.5609C60.9319 61.5239 61.0337 61.4961 61.1261 61.4592C61.3481 61.3852 61.5701 61.3297 61.7921 61.2742C61.8938 61.2557 61.9955 61.2279 62.0973 61.2094C62.162 61.2002 62.2268 61.1909 62.2915 61.1817C62.3378 61.1817 62.3285 61.1817 62.3008 61.1817C62.5967 61.1447 62.8465 61.08 63.0684 60.858C63.2719 60.6545 63.4199 60.3308 63.4014 60.0441L63.4199 60.0348Z" fill="white"/>
<path d="M105.281 55.0958C103.089 54.9571 100.823 55.586 99.0282 56.8531C98.538 57.1953 98.2606 57.8797 98.612 58.4254C98.9265 58.9156 99.6572 59.2116 100.184 58.8416C100.573 58.5642 100.989 58.3237 101.414 58.111C101.498 58.0647 101.59 58.0277 101.683 57.9907C101.701 57.9907 101.895 57.9075 101.932 57.889C102.154 57.8057 102.386 57.7317 102.617 57.667C102.848 57.6023 103.079 57.5468 103.31 57.5005C103.44 57.4728 103.56 57.4543 103.69 57.4358C103.727 57.4358 103.764 57.4358 103.81 57.4265C104.3 57.371 104.79 57.371 105.29 57.3988C105.891 57.4358 106.464 56.8439 106.446 56.2427C106.418 55.586 105.937 55.1328 105.29 55.0866L105.281 55.0958Z" fill="white"/>
<path d="M68.2201 69.9682C64.1875 71.374 58.444 72.2989 54.1895 71.8919C50.0922 76.5904 43.9601 79.4483 37.7264 79.5778C31.4926 79.7073 25.2403 77.4135 20.9581 72.8816C17.9522 73.7787 14.8353 74.4724 11.6999 74.3706C8.55526 74.2597 5.36438 73.2608 3.05215 71.1428C2.1735 70.3381 1.44284 69.367 0.9249 68.2848C0.0647497 66.5368 -0.258963 64.5205 0.23123 62.6338C0.952646 59.8313 3.29262 57.6856 5.90082 56.3907C10.7843 53.9583 16.7313 53.986 21.3928 56.7977C13.5959 51.0634 10.0443 40.1589 12.9855 30.9377C14.2618 26.8959 17.0365 22.9559 21.1523 21.9292C24.6391 21.0691 28.3202 22.4842 31.3539 24.4079C40.5658 30.2348 46.2724 41.1855 45.7822 52.0622C45.8469 48.3164 50.3326 45.144 54.0322 45.7637C57.7133 46.3926 60.3122 50.6934 59.1376 54.2542C61.9493 52.3767 66.2131 52.238 69.4502 53.2368C71.5034 53.8658 73.3162 55.2901 74.4354 57.1214C75.0643 58.1573 75.462 59.3411 75.5452 60.562C75.8134 64.8165 72.2618 68.5623 68.2293 69.9682H68.2201Z" fill="#F9F1CE"/>
<g style="mix-blend-mode:multiply">
<path d="M68.2201 69.9681C64.1875 71.3739 58.444 72.2988 54.1895 71.8919C50.0922 76.5903 43.9601 79.4482 37.7264 79.5777C31.4926 79.7072 25.2403 77.4135 20.9581 72.8815C17.9522 73.7787 14.8353 74.4723 11.6999 74.3706C8.55526 74.2596 5.36438 73.2607 3.05215 71.1427C2.1735 70.338 1.44284 69.3669 0.924896 68.2848C2.95966 69.6906 5.29964 70.6248 7.74135 71.0132C11.2929 71.5774 15.011 70.9577 18.1834 69.2744C17.1845 67.6929 16.8793 65.8616 16.9718 64.0025C20.8286 70.6248 28.3387 74.833 35.9968 74.8978C43.6642 74.9625 51.2205 70.7358 55.1883 64.1875C55.4103 65.9078 55.0958 67.4894 54.4484 69.1079C57.7965 69.0894 61.1631 69.2189 64.4095 68.4143C67.6651 67.6096 70.8098 65.9263 72.752 63.1886C73.9729 61.4406 74.6018 59.2301 74.4261 57.1213C75.055 58.1572 75.4527 59.3411 75.536 60.5619C75.8042 64.8164 72.2526 68.5623 68.2201 69.9681Z" fill="#F9F1CE"/>
</g>
<path d="M20.2736 26.7849C19.8297 26.3317 19.099 26.3502 18.6458 26.7849C16.1579 29.1711 14.7243 32.5285 14.678 35.9598C14.678 36.5795 15.2145 37.116 15.8342 37.116C16.4538 37.116 16.981 36.5888 16.9903 35.9598C17.0273 33.1389 18.2111 30.4012 20.2829 28.4127C20.7361 27.978 20.7176 27.2196 20.2829 26.7849H20.2736Z" fill="white"/>
<path d="M53.3201 48.7418C53.2276 48.4644 53.0611 48.1961 52.7929 48.0574C52.5061 47.9002 52.2287 47.8909 51.905 47.9372C49.9719 48.2701 48.3441 49.8055 47.7707 51.6645C47.595 52.2379 47.9834 52.9501 48.5754 53.0796C49.195 53.2183 49.8055 52.8946 49.9904 52.2749C50.0089 52.2102 50.0367 52.1362 50.0644 52.0714C50.1754 51.8217 50.3234 51.5905 50.4806 51.3685C50.6564 51.165 50.8413 50.9708 51.0541 50.7951C51.276 50.6379 51.5073 50.4991 51.757 50.3789C52.0067 50.2864 52.2564 50.2032 52.5246 50.1569C52.7929 50.1107 53.0796 49.8517 53.2091 49.6297C53.357 49.38 53.4125 49.0193 53.3293 48.7418H53.3201Z" fill="white"/>
<path d="M12.0791 57.5468C8.84198 57.778 5.81758 58.9988 3.31112 61.0706C2.83018 61.4683 2.90417 62.2915 3.31112 62.6984C3.78282 63.1701 4.45799 63.0961 4.93893 62.6984C6.9182 61.0614 9.55415 60.0347 12.0699 59.8497C12.6895 59.8035 13.226 59.3503 13.226 58.6936C13.226 58.1017 12.6988 57.5005 12.0699 57.5375L12.0791 57.5468Z" fill="white"/>
<path d="M109.193 84.3225C108.212 88.6325 103.708 91.4071 99.3057 91.8418C94.894 92.2858 90.3435 90.7782 86.1352 89.3909C82.6484 94.4963 76.7291 97.8721 70.56 98.2421C64.4003 98.6213 58.3792 95.6524 54.3004 90.9909C51.72 93.3032 48.1314 94.4685 44.6816 94.0986C41.2317 93.7286 37.8004 92.0268 35.7656 89.2151C32.3527 90.2788 28.8104 91.0927 25.2403 90.9539C21.6702 90.806 18.0447 89.6314 15.4642 87.1711C14.3636 86.1168 13.4942 84.8127 12.93 83.3883C12.1901 81.4738 12.0051 79.3743 12.6063 77.4135C13.7717 73.6585 17.5545 71.1798 21.4205 70.5046C25.2866 69.8109 29.2451 70.5971 33.0742 71.5312C31.6221 69.7739 30.3735 67.9519 29.6428 65.7969C28.9029 63.6419 28.9491 61.1077 30.2532 59.2394C31.5758 57.3711 34.0175 56.4925 36.2835 56.7514C38.5403 57.0196 40.6028 58.3145 42.1196 60.0163C38.6605 55.4196 37.5229 49.3523 38.6605 43.7104C39.7981 38.0871 43.7012 33.0002 48.9638 30.7157C54.2357 28.4312 60.7654 29.1249 65.2604 32.7227C68.9045 35.6454 71.0317 40.1496 71.9381 44.7278C72.863 49.306 72.715 54.023 72.5671 58.703C73.6307 55.1699 75.3325 51.7108 77.9777 49.1396C80.6136 46.5776 84.5629 45.107 88.0868 46.1892C91.3054 47.1695 93.6916 50.1847 94.3945 53.4773C95.1159 56.7792 94.2928 60.2753 92.6465 63.2164C91.0002 66.1576 89.1689 69.7832 86.5514 71.8919C89.918 71.522 93.3124 71.1428 96.6883 71.4757C100.055 71.8087 103.449 72.937 105.965 75.203C107.833 76.9048 109.137 79.3096 109.359 81.7883C109.443 82.6484 109.396 83.4993 109.193 84.3502V84.3225Z" fill="#FCF8E5"/>
<g style="mix-blend-mode:multiply">
<path d="M109.193 84.3224C108.212 88.6324 103.708 91.4071 99.3057 91.8418C94.894 92.2858 90.3435 90.7782 86.1352 89.3908C82.6484 94.4963 76.7291 97.8721 70.56 98.2421C64.4003 98.6213 58.3792 95.6524 54.3004 90.9909C51.72 93.3031 48.1314 94.4685 44.6816 94.0985C41.2317 93.7286 37.8004 92.0268 35.7656 89.2151C32.3527 90.2787 28.8104 91.0926 25.2403 90.9539C21.6702 90.8059 18.0447 89.6313 15.4642 87.1711C14.3636 86.1167 13.4942 84.8126 12.93 83.3883C14.826 85.3306 17.5267 86.6069 20.2459 87.0509C24.6391 87.7538 29.0971 86.6994 33.4164 85.6543C32.3527 83.3236 31.955 80.3362 32.2048 77.7834C32.8429 81.7327 35.5436 85.3028 39.1415 87.0509C42.7393 88.7897 47.188 88.6694 50.6841 86.7272C49.2598 84.8866 48.8343 82.3617 48.9453 80.0494C51.6645 87.7353 59.6186 93.3124 67.7761 93.6638C75.9152 94.0246 84.045 89.0394 87.4393 81.6218C87.4393 82.9536 87.2636 84.2115 87.2636 85.5618C91.8511 87.1249 96.6975 88.1422 101.516 87.7538C104.097 87.5318 106.927 86.8751 108.379 84.7294C108.971 83.8507 109.258 82.8519 109.35 81.8067C109.433 82.6669 109.387 83.5178 109.184 84.3687L109.193 84.3224Z" fill="#FCF8E5"/>
</g>
<path d="M49.232 36.5054C48.8806 35.9505 48.2239 35.7933 47.6505 36.0892C45.0238 37.4396 43.026 39.909 42.2121 42.7484C42.0456 43.3311 42.4156 44.034 43.0167 44.1728C43.6364 44.3115 44.2654 43.9878 44.4411 43.3681C44.5336 43.0537 44.6446 42.7392 44.7648 42.4247C44.7648 42.4247 44.7648 42.4247 44.7648 42.4155C44.7925 42.3507 44.8295 42.2767 44.8573 42.212C44.922 42.0733 44.9868 41.9438 45.0608 41.8051C45.218 41.5091 45.3845 41.2316 45.5695 40.9541C45.6527 40.8247 45.7359 40.7044 45.8284 40.5842C45.8562 40.5472 46.0504 40.316 45.8654 40.5287C45.9117 40.4732 45.9579 40.4085 46.0042 40.353C46.4111 39.8628 46.8551 39.4188 47.3452 39.0211C47.3822 38.9934 47.4007 38.9749 47.4192 38.9656C47.4747 38.9286 47.521 38.8824 47.5765 38.8454C47.6967 38.7529 47.8262 38.6697 47.9464 38.5864C48.2239 38.4014 48.5106 38.2442 48.8066 38.087C49.343 37.8095 49.5465 37.0049 49.2228 36.5054H49.232Z" fill="white"/>
<path d="M43.7937 50.4806C43.7382 50.2957 43.7104 50.1014 43.6734 49.9072C43.6364 49.5095 43.6272 49.1025 43.6734 48.7048C43.7104 48.4274 43.5162 48.0759 43.3312 47.8817C43.1277 47.6782 42.804 47.5302 42.5081 47.5395C42.2121 47.5487 41.8976 47.6505 41.6849 47.8817C41.6202 47.9557 41.5647 48.0389 41.4999 48.1129C41.3982 48.2979 41.3427 48.4921 41.3427 48.6956C41.241 49.491 41.3242 50.3141 41.5369 51.0818C41.6109 51.3593 41.8144 51.6275 42.0734 51.7755C42.3231 51.9235 42.6838 51.979 42.9613 51.8957C43.2387 51.8032 43.5162 51.6275 43.6549 51.3593C43.8029 51.0818 43.8584 50.7766 43.7752 50.4714L43.7937 50.4806Z" fill="white"/>
<path d="M37.2732 60.2474C37.1159 60.007 36.8755 59.7757 36.5795 59.711C35.8303 59.563 35.0442 59.5815 34.3228 59.8497C33.6198 60.1087 32.9447 60.5157 32.4822 61.1168C32.288 61.3666 32.14 61.5978 32.14 61.94C32.14 62.2267 32.2695 62.5597 32.4822 62.7631C32.7042 62.9666 32.9909 63.1146 33.3054 63.1054C33.5921 63.0961 33.9436 63.0036 34.1285 62.7631C34.2488 62.6059 34.3968 62.4764 34.5447 62.347C34.6835 62.2545 34.8222 62.1712 34.9702 62.0972C35.1367 62.0325 35.3031 61.9955 35.4789 61.9585C35.6916 61.94 35.9043 61.9307 36.1171 61.9585C36.0986 61.9585 36.0801 61.9585 36.0708 61.9585C36.3483 62.0047 36.6257 61.9862 36.8755 61.8383C37.1159 61.6995 37.3472 61.4221 37.4119 61.1446C37.4766 60.8486 37.4674 60.5157 37.2917 60.2567L37.2732 60.2474Z" fill="white"/>
<path d="M25.8692 72.3357C23.1963 72.2895 20.5789 72.8907 18.1741 74.056C17.6285 74.3243 17.4342 75.1474 17.7579 75.6376C18.1186 76.2018 18.7568 76.3313 19.3395 76.0538C21.3465 75.0827 23.5848 74.611 25.86 74.648C26.4704 74.6572 27.0439 74.1115 27.0161 73.4918C26.9884 72.8537 26.5074 72.345 25.86 72.3357H25.8692Z" fill="white"/>
</g>
<defs>
<clipPath id="clip0_56_210">
<rect width="116" height="98.2606" fill="white"/>
</clipPath>
</defs>
</svg>
