<?xml version="1.0" encoding="UTF-8"?>
<svg xmlns="http://www.w3.org/2000/svg" viewBox="0 0 115.52 86.59">
  <defs>
    <style>
      .cls-1 {
        isolation: isolate;
      }

      .cls-1, .cls-2 {
        fill: none;
      }

      .cls-3 {
        fill: #fff;
      }

      .cls-4 {
        fill: #59b4c9;
      }

      .cls-5 {
        fill: #4897a8;
      }

      .cls-6 {
        fill: #b0dbe2;
        mix-blend-mode: multiply;
      }

      .cls-2 {
        mix-blend-mode: soft-light;
      }
    </style>
  </defs>
  <g class="cls-1">
    <g id="Livello_2" data-name="Livello 2">
      <g id="OBJECTS">
        <g>
          <g>
            <path class="cls-5" d="m87.39,44c-1.88,3.73-5.16,6.52-8.97,8.31-2.06,1-4.26,1.69-6.49,2.12-6.33,1.2-12.85.44-19.24-.32-3.69,3.26-8.65,4.82-13.54,5.21-4.91.4-10.81-2.2-14.97-4.83-5.42,4.02-13.44,4.1-18.93.18-.06-.03-.12-.07-.18-.12-2.57-1.88-4.61-4.69-4.99-7.87-.01-.15-.03-.29-.04-.44-.29-3.89,1.95-7.68,5.05-10.11,3.22-2.5,7.23-3.73,11.21-4.6-3.77-1.4-5.55-7.01-3.95-10.69,1.59-3.7,6.39-5.58,10.11-4.05,3.03,1.23,4.99,4.48,4.99,7.73.81-4.76,2.51-9.22,5.02-13.42,2.89-4.85,7.42-8.89,12.85-10.43C49.73-.6,54.56,0,58.67,2.03c2.78,1.37,5.21,3.41,6.98,5.96.28.43.56.85.79,1.29,3.51,6.24,3.04,14.59-1.29,20.33,2.66-2.25,6.32-3.75,9.96-4.08,2.83-.26,5.68.18,8.05,1.5,5.63,3.13,7.14,11.22,4.23,16.98Z"/>
            <path class="cls-6" d="m87.39,44c-1.88,3.73-5.16,6.52-8.97,8.31-2.06,1-4.26,1.69-6.49,2.12-6.33,1.2-12.85.44-19.24-.32-3.69,3.26-8.65,4.82-13.54,5.21-4.91.4-10.81-2.2-14.97-4.83-5.42,4.02-13.44,4.1-18.93.18-.06-.03-.12-.07-.18-.12-2.57-1.88-4.61-4.69-4.99-7.87-.01-.15-.03-.29-.04-.44.48,1.56,1.54,3,2.89,3.92,2.42,1.67,5.55,2.01,8.49,1.76,2.95-.26,5.8-1.07,8.72-1.48,2.92-.41,6.02-.41,8.68.87-2.19-3.06-2.29-7.76-.84-11.21,1.45-3.47,4.79-6.07,8.49-6.62,3.7-.57,7.67.91,10.09,3.77.4-7.61,4.13-15,9.71-20.18,1.37-1.26,2.83-2.41,4.05-3.8,1.22-1.4,2.17-3.13,2.19-4.99.04-2.41-1.51-4.63-3.5-6.02-.1-.07-.22-.15-.34-.22,2.78,1.37,5.21,3.41,6.98,5.96.28.43.56.85.79,1.29,3.51,6.24,3.04,14.59-1.29,20.33,2.66-2.25,6.32-3.75,9.96-4.08,2.83-.26,5.68.18,8.05,1.5,5.63,3.13,7.14,11.22,4.23,16.98Z"/>
          </g>
          <g>
            <path class="cls-4" d="m115.31,62.08c-.28,1.78-.9,3.5-1.81,5.04-2.92,4.95-8.4,8.03-14.06,9.05-5.65,1.03-11.96,1.73-17.52.26-5.1,6.18-12.95,9.99-20.96,10.15-8,.16-15.98-3.35-21.33-9.33-7.12,2.06-14.63,2.81-22.02,2.19-5.07-.41-10.59-1.79-13.41-6.01-1.07-1.57-1.59-3.42-1.65-5.3-.12-3.3,1.17-6.74,3.45-9.19,3.58-3.86,9.02-5.54,14.28-5.65,5.26-.1,10.41.6,15.51,1.89-2.69-2.29-4.98-5.24-5.64-8.71-.66-3.47.65-7.45,3.7-9.18,3.03-1.73,7.05-.87,9.74,1.34,2.7,2.2,4.27,5.49,5.3,8.83-.7-6.77.93-14.13,3.64-20.37,2.7-6.24,7.61-11.68,13.91-14.25,6.3-2.59,13.98-2.03,19.42,2.07,5.29,4,7.93,10.88,7.65,17.51-.29,6.61-3.26,12.93-7.42,18.08,4.26-1.95,8.68-3.11,13.35-3.57,4.66-.47,9.71.72,12.9,4.16,2.7,2.89,3.61,7.06,2.95,11Z"/>
            <path class="cls-6" d="m115.31,62.08c-.28,1.78-.9,3.5-1.81,5.04-2.92,4.95-8.4,8.03-14.06,9.05-5.65,1.03-11.96,1.73-17.52.26-5.1,6.18-12.95,9.99-20.96,10.15-8,.16-15.98-3.35-21.33-9.33-7.12,2.06-14.63,2.81-22.02,2.19-5.07-.41-10.59-1.79-13.41-6.01-1.07-1.57-1.59-3.42-1.65-5.3,3.11,4.64,8.74,7.49,14.38,8.31,6.7.97,13.48-.43,20.11-1.81-1.85-2.23-2.66-5.65-2.42-8.53,4.95,8.7,14.7,14.23,24.72,14.19,10-.03,19.8-5.8,24.68-14.56-.22,2.57-1,5.02-2.03,7.37,7.06.4,14.26,1.04,20.99-1.16,5.11-1.67,9.91-5.2,12.32-9.87Z"/>
            <g class="cls-2">
              <path class="cls-3" d="m69.73,17.91c-.42-.73-1.3-.88-2.01-.53-6.03,2.97-10.54,8.83-11.85,15.42-.15.78.22,1.59,1.03,1.81.72.2,1.65-.24,1.81-1.03,1.18-5.92,5.08-11,10.5-13.67.71-.35.91-1.36.53-2.01Z"/>
              <path class="cls-3" d="m35.99,44.06c.12-.24.24-.48.41-.7-.04.06-.09.11-.13.17.24-.3.41-.61.41-1.01,0-.36-.16-.79-.43-1.04-.28-.26-.65-.45-1.04-.43-.37.02-.8.13-1.04.43-.68.83-1.13,1.77-1.27,2.84-.06.45-.09.88-.03,1.33.04.3.07.59.15.88.08.31.21.59.34.88.14.31.56.59.88.67.35.1.82.05,1.13-.15.31-.2.59-.5.68-.88l.05-.39c0-.17-.04-.33-.09-.48,0,.01,0,.02.01.03-.1-.25-.16-.51-.21-.77-.02-.24-.02-.49,0-.73.04-.22.1-.44.18-.66Z"/>
              <path class="cls-3" d="m22.25,56.59c-4.35-.45-8.85.65-12.51,3.05-.66.43-.94,1.3-.53,2.01.39.66,1.34.96,2.01.53,3.28-2.14,7.14-3.05,11.03-2.65.79.08,1.47-.73,1.47-1.47,0-.86-.68-1.39-1.47-1.47Z"/>
            </g>
          </g>
        </g>
      </g>
    </g>
  </g>
</svg>