<svg width="131" height="98" viewBox="0 0 131 98" fill="none" xmlns="http://www.w3.org/2000/svg">
<g clip-path="url(#clip0_56_290)">
<path d="M98.9054 49.7979C96.7777 54.0194 93.0655 57.177 88.7534 59.2029C86.422 60.3347 83.9321 61.1156 81.4083 61.6022C74.2441 62.9604 66.865 62.1002 59.633 61.2401C55.4568 64.9297 49.8432 66.6952 44.3088 67.1366C38.7518 67.5893 32.0744 64.6467 27.3662 61.6702C21.232 66.2199 12.1552 66.3104 5.9418 61.8739C5.87389 61.8399 5.80599 61.7946 5.73808 61.7381C2.82943 59.6103 0.520619 56.4301 0.0905462 52.831C0.0792285 52.6613 0.0565931 52.5028 0.0452754 52.333C-0.282938 47.9305 2.25223 43.6411 5.76072 40.8908C9.40502 38.0614 13.9434 36.6693 18.4479 35.6847C14.1811 34.1002 12.1665 27.751 13.9774 23.5861C15.7769 19.3985 21.2094 17.2708 25.4196 19.0024C28.8488 20.3945 31.0671 24.0727 31.0671 27.751C31.9838 22.3638 33.9079 17.3161 36.7486 12.5626C40.0194 7.07355 45.1463 2.50119 51.2918 0.758267C56.283 -0.679082 61.7494 -1.94023e-05 66.401 2.29747C69.5473 3.848 72.2975 6.15681 74.3007 9.04283C74.6176 9.52949 74.9345 10.0048 75.1948 10.5028C79.1674 17.5651 78.6354 27.0153 73.7349 33.5117C76.7454 30.9652 80.8876 29.2676 85.0073 28.8941C88.2102 28.5998 91.4357 29.0978 94.118 30.5917C100.49 34.1342 102.199 43.2902 98.9054 49.8092V49.7979Z" fill="#F3E4A6"/>
<g style="mix-blend-mode:multiply">
<path d="M98.9054 49.7979C96.7777 54.0194 93.0655 57.1771 88.7535 59.2029C86.422 60.3347 83.9321 61.1156 81.4083 61.6023C74.2442 62.9604 66.865 62.1003 59.633 61.2401C55.4568 64.9297 49.8432 66.6953 44.3088 67.1367C38.7518 67.5894 32.0744 64.6468 27.3662 61.6702C21.232 66.2199 12.1552 66.3105 5.94181 61.8739C5.87391 61.84 5.806 61.7947 5.73809 61.7381C2.82944 59.6104 0.520632 56.4301 0.0905589 52.8311C0.0792412 52.6613 0.0566058 52.5029 0.0452881 52.3331C0.588538 54.0987 1.78821 55.7284 3.3161 56.7696C6.05499 58.6597 9.59743 59.0445 12.9248 58.7615C16.2636 58.4673 19.4891 57.5506 22.7939 57.0865C26.0986 56.6225 29.6071 56.6225 32.6176 58.0712C30.1391 54.608 30.0259 49.2886 31.667 45.384C33.308 41.4568 37.0881 38.5142 41.2757 37.8917C45.4632 37.2466 49.9564 38.9216 52.6953 42.1585C53.148 33.5457 57.3695 25.1819 63.6847 19.3193C65.2353 17.8933 66.8877 16.5918 68.2684 15.0186C69.6492 13.4341 70.7244 11.4762 70.747 9.37109C70.7923 6.64352 69.038 4.13099 66.7858 2.55783C66.6726 2.4786 66.5368 2.38806 66.401 2.30884C69.5473 3.85936 72.2975 6.16818 74.3008 9.05419C74.6176 9.54085 74.9345 10.0162 75.1949 10.5142C79.1674 17.5764 78.6354 27.0267 73.7349 33.5231C76.7454 30.9766 80.8877 29.2789 85.0073 28.9054C88.2102 28.6112 91.4358 29.1092 94.1181 30.6031C100.49 34.1455 102.199 43.3016 98.9054 49.8206V49.7979Z" fill="#F3E4A6"/>
</g>
<path d="M130.504 70.2602C130.188 72.2748 129.486 74.2214 128.456 75.9644C125.151 81.5666 118.949 85.0525 112.543 86.2069C106.149 87.3726 99.0073 88.1648 92.7146 86.5011C86.9426 93.4955 78.0582 97.8075 68.9927 97.9886C59.9385 98.1697 50.907 94.1972 44.852 87.4292C36.7938 89.7606 28.2942 90.6095 19.9305 89.9078C14.1924 89.4438 7.94501 87.8819 4.75342 83.1058C3.54242 81.3289 2.9539 79.2352 2.88599 77.1074C2.75018 73.3726 4.21017 69.4793 6.7906 66.7065C10.8423 62.3378 16.9992 60.4365 22.9523 60.312C28.9054 60.1988 34.734 60.991 40.506 62.451C37.4616 59.8593 34.8698 56.5205 34.1229 52.5933C33.3759 48.6661 34.8585 44.1616 38.3104 42.2036C41.7397 40.2457 46.2894 41.219 49.3339 43.7202C52.3896 46.2101 54.1665 49.9336 55.3322 53.7137C54.54 46.0517 56.3848 37.7218 59.4519 30.6596C62.5077 23.5973 68.0647 17.4405 75.1948 14.5319C82.325 11.6006 91.017 12.2344 97.1738 16.8746C103.161 21.4017 106.149 29.1883 105.832 36.6919C105.504 44.1729 102.142 51.3257 97.4341 57.1543C102.255 54.9474 107.258 53.6345 112.543 53.1139C117.817 52.582 123.533 53.9288 127.143 57.8221C130.199 61.0929 131.229 65.8124 130.482 70.2716L130.504 70.2602Z" fill="#F9F1CE"/>
<g style="mix-blend-mode:multiply">
<path d="M130.504 70.2602C130.188 72.2748 129.486 74.2214 128.456 75.9643C125.151 81.5666 118.949 85.0525 112.543 86.2069C106.149 87.3726 99.0072 88.1648 92.7146 86.5011C86.9426 93.4955 78.0582 97.8075 68.9927 97.9886C59.9385 98.1697 50.907 94.1972 44.852 87.4292C36.7938 89.7606 28.2942 90.6095 19.9305 89.9078C14.1924 89.4437 7.945 87.8819 4.75341 83.1058C3.54241 81.3289 2.95389 79.2352 2.88599 77.1074C6.40579 82.3588 12.7777 85.5844 19.1608 86.5124C26.7437 87.6103 34.4171 86.0258 41.9208 84.4639C39.827 81.9401 38.9102 78.0694 39.1819 74.8099C44.7841 84.6563 55.8189 90.915 67.1592 90.8698C78.4769 90.8358 89.5683 84.3055 95.0913 74.3912C94.8423 77.2998 93.9596 80.0727 92.7938 82.7323C100.784 83.185 108.933 83.9094 116.55 81.4195C122.333 79.5294 127.766 75.5343 130.493 70.2489L130.504 70.2602Z" fill="#F9F1CE"/>
</g>
<path d="M78.9183 20.2699C78.443 19.4437 77.447 19.2739 76.6435 19.6701C69.8189 23.0314 64.7146 29.6636 63.232 37.122C63.0622 38.0047 63.481 38.9215 64.3977 39.1705C65.2126 39.3968 66.2651 38.8988 66.4462 38.0047C67.7817 31.3047 72.1956 25.5553 78.3298 22.5334C79.1334 22.1373 79.3597 20.9942 78.9296 20.2586L78.9183 20.2699Z" fill="white"/>
<path d="M40.7324 49.8657C40.8682 49.594 41.004 49.3224 41.1964 49.0734C41.1512 49.1413 41.0946 49.1979 41.0493 49.2658C41.3209 48.9263 41.5133 48.5754 41.5133 48.1227C41.5133 47.7153 41.3323 47.2286 41.0267 46.9457C40.7098 46.6514 40.291 46.4364 39.8496 46.459C39.4309 46.4817 38.9442 46.6062 38.6726 46.9457C37.903 47.8851 37.3937 48.9489 37.2352 50.1599C37.1673 50.6692 37.1334 51.1559 37.2013 51.6652C37.2466 52.0047 37.2805 52.3329 37.3711 52.6611C37.4616 53.012 37.6087 53.3289 37.7559 53.6571C37.9143 54.0079 38.3897 54.3248 38.7518 54.4154C39.1479 54.5286 39.6799 54.472 40.0307 54.2456C40.3816 54.0193 40.6985 53.6797 40.8003 53.2497L40.8569 52.8083C40.8569 52.6159 40.8116 52.4348 40.755 52.265C40.755 52.2763 40.7551 52.2876 40.7664 52.299C40.6532 52.016 40.5853 51.7218 40.5287 51.4275C40.5061 51.1559 40.5061 50.8729 40.5287 50.6013C40.574 50.3523 40.6419 50.1033 40.7324 49.8543V49.8657Z" fill="white"/>
<path d="M25.1819 64.0468C20.2587 63.5375 15.1657 64.7825 11.0234 67.4987C10.2764 67.9854 9.95955 68.97 10.4236 69.7736C10.865 70.5206 11.9401 70.8601 12.6984 70.3734C16.4106 67.9514 20.7793 66.9215 25.1819 67.3742C26.076 67.4648 26.8456 66.548 26.8456 65.7105C26.8456 64.7372 26.076 64.1374 25.1819 64.0468Z" fill="white"/>
</g>
<defs>
<clipPath id="clip0_56_290">
<rect width="130.742" height="98" fill="white"/>
</clipPath>
</defs>
</svg>
