<svg width="137" height="141" viewBox="0 0 137 141" fill="none" xmlns="http://www.w3.org/2000/svg">
<g clip-path="url(#clip0_56_607)">
<path d="M106.466 26.3579C108.494 24.0883 112.599 21.5933 113.918 20.8674C116.012 19.6408 117.506 22.6864 115.461 23.8379C112.858 25.415 108.611 27.1089 107.084 27.5261C106.517 27.5594 106.133 26.8252 106.458 26.3579H106.466Z" fill="#F2D231"/>
<path d="M55.2081 55.1537C53.1805 57.4233 49.0752 59.9182 47.7568 60.6441C45.6624 61.8707 44.1688 58.8251 46.2131 57.6736C48.8165 56.0966 53.0637 54.4027 54.5907 53.9855C55.1581 53.9521 55.5419 54.6864 55.2165 55.1537H55.2081Z" fill="#F2D231"/>
<path d="M96.5703 15.619C97.2795 12.6401 99.716 8.44297 100.534 7.15796C101.794 5.06357 104.539 7.00777 103.287 9.01037C101.744 11.6638 98.8065 15.2184 97.6634 16.3282C97.1794 16.637 96.5035 16.178 96.5703 15.6106V15.619Z" fill="#F2D231"/>
<path d="M65.1043 65.8926C64.3951 68.8714 61.9586 73.0686 61.1408 74.3536C59.8809 76.448 57.1356 74.5038 58.3872 72.5012C59.9309 69.8477 62.8681 66.2931 64.0112 65.1833C64.4952 64.8746 65.1711 65.3335 65.1043 65.9009V65.8926Z" fill="#F2D231"/>
<path d="M82.9609 11.0296C82.2015 8.06745 82.3851 3.19445 82.5019 1.66747C82.6354 -0.78572 85.9564 -0.401888 85.7895 1.96786C85.6727 5.04686 84.7382 9.60278 84.2542 11.1298C83.9705 11.6388 83.1611 11.5553 82.9525 11.0296H82.9609Z" fill="#F2D231"/>
<path d="M78.7137 70.4903C79.473 73.4525 79.2894 78.3255 79.1726 79.8525C79.0391 82.3057 75.7181 81.9218 75.885 79.5521C76.0018 76.4731 76.9364 71.9172 77.4203 70.3902C77.704 69.8812 78.5134 69.9646 78.722 70.4903H78.7137Z" fill="#F2D231"/>
<path d="M67.5826 14.1837C65.4214 12.0476 63.1101 7.77535 62.4426 6.4069C61.3161 4.23742 64.3534 2.81891 65.4131 4.92998C66.8733 7.6335 68.3836 12.0142 68.7508 13.5829C68.7674 14.167 68.0332 14.5258 67.5826 14.1837Z" fill="#F2D231"/>
<path d="M94.0921 67.3361C96.2532 69.4722 98.5645 73.7445 99.2321 75.1129C100.359 77.2824 97.3213 78.7009 96.2615 76.5898C94.8013 73.8863 93.291 69.5056 92.9239 67.9369C92.9072 67.3528 93.6415 66.994 94.0921 67.3445V67.3361Z" fill="#F2D231"/>
<path d="M55.859 25.2231C52.9219 24.5555 48.7498 22.1607 47.4815 21.3514C45.4038 20.1081 47.2562 17.2711 49.2504 18.5143C51.8872 20.033 55.4335 22.9534 56.5433 24.0966C56.852 24.5806 56.4181 25.2815 55.859 25.2314V25.2231Z" fill="#F2D231"/>
<path d="M105.816 56.2968C108.753 56.9643 112.925 59.3591 114.193 60.1685C116.271 61.4118 114.418 64.2488 112.424 63.0055C109.787 61.4869 106.241 58.5664 105.131 57.4232C104.823 56.9393 105.257 56.2384 105.816 56.2884V56.2968Z" fill="#F2D231"/>
<path d="M51.8955 40.2343C49.0668 41.2773 44.2856 41.5443 42.7837 41.5526C40.3722 41.6444 40.4389 38.24 42.7837 38.1899C45.8042 38.0314 50.3435 38.5487 51.8788 38.9075C52.3962 39.1495 52.3962 39.9756 51.8955 40.2343Z" fill="#F2D231"/>
<path d="M110.105 40.1842C112.933 39.1412 117.714 38.8742 119.216 38.8658C121.628 38.7741 121.561 42.1785 119.216 42.2285C116.196 42.3871 111.657 41.8697 110.121 41.5109C109.604 41.269 109.604 40.4429 110.105 40.1842Z" fill="#F2D231"/>
<path d="M101.744 19.8911C103.095 17.1542 106.4 13.6247 107.484 12.5649C109.178 10.8127 111.423 13.341 109.754 15.0098C107.66 17.2377 104.013 20.0246 102.653 20.8507C102.111 21.0426 101.552 20.4335 101.744 19.8995V19.8911Z" fill="#F2D231"/>
<path d="M59.9309 61.6204C58.5792 64.3573 55.2749 67.8869 54.1901 68.9466C52.4963 70.6988 50.2517 68.1706 51.9205 66.5017C54.0149 64.2738 57.6613 61.4869 59.0214 60.6608C59.5638 60.4689 60.1228 61.078 59.9309 61.612V61.6204Z" fill="#F2D231"/>
<path d="M89.3858 12.2479C89.2857 9.18563 90.529 4.47117 90.9796 3.01928C91.6471 0.657876 94.8012 1.776 94.1253 4.05396C93.3326 7.03283 91.4385 11.2633 90.6375 12.6401C90.2536 13.0657 89.4776 12.807 89.3942 12.2479H89.3858Z" fill="#F2D231"/>
<path d="M72.2887 69.2637C72.3888 72.3261 71.1455 77.0405 70.6949 78.4924C70.0274 80.8538 66.8733 79.7357 67.5492 77.4577C68.3419 74.4788 70.236 70.2483 71.0371 68.8716C71.4209 68.446 72.1969 68.7047 72.2803 69.2637H72.2887Z" fill="#F2D231"/>
<path d="M75.0673 11.5303C73.5486 8.87688 72.4472 4.13738 72.1635 2.63543C71.6462 0.232306 74.9505 -0.301722 75.4094 2.0263C76.102 5.03021 76.4107 9.66957 76.3439 11.2717C76.2021 11.8391 75.401 11.9809 75.0673 11.5303Z" fill="#F2D231"/>
<path d="M86.6073 69.9813C88.1259 72.6347 89.2273 77.3742 89.511 78.8762C90.0284 81.2793 86.7241 81.8133 86.2652 79.4853C85.5726 76.4814 85.2639 71.842 85.3306 70.2399C85.4725 69.6725 86.2735 69.5307 86.6073 69.9813Z" fill="#F2D231"/>
<path d="M61.0741 18.7648C58.429 17.2962 55.083 13.8084 54.0817 12.6736C52.4212 10.8879 54.9745 8.69339 56.5515 10.4457C58.671 12.6485 61.2827 16.4618 62.042 17.872C62.2089 18.431 61.5914 18.9734 61.0741 18.7648Z" fill="#F2D231"/>
<path d="M100.6 62.747C103.246 64.2155 106.592 67.7034 107.593 68.8382C109.253 70.6239 106.7 72.8184 105.123 71.0661C103.004 68.8632 100.392 65.0499 99.6325 63.6398C99.4657 63.0807 100.083 62.5383 100.6 62.747Z" fill="#F2D231"/>
<path d="M52.6798 32.5993C49.6759 32.7579 45.0282 31.5813 43.5847 31.1558C41.2483 30.5216 42.2913 27.2924 44.5442 27.9349C47.4814 28.6776 51.6702 30.53 53.0386 31.3227C53.4642 31.7065 53.2305 32.4992 52.6798 32.5993Z" fill="#F2D231"/>
<path d="M108.986 48.9122C111.99 48.7536 116.638 49.9302 118.082 50.3557C120.418 50.9899 119.375 54.2191 117.122 53.5766C114.185 52.8339 109.996 50.9815 108.628 50.1888C108.202 49.805 108.436 49.0123 108.986 48.9122Z" fill="#F2D231"/>
<path d="M52.7382 47.669C50.285 49.4463 45.7458 51.0067 44.3106 51.4239C42.0076 52.1665 41.1815 48.8706 43.4178 48.1863C46.2882 47.2101 50.794 46.4758 52.3711 46.3923C52.9385 46.4841 53.1554 47.2852 52.7382 47.669Z" fill="#F2D231"/>
<path d="M108.886 32.2239C111.339 30.4466 115.879 28.8862 117.314 28.469C119.617 27.7264 120.443 31.0223 118.207 31.7065C115.336 32.6828 110.83 33.4171 109.253 33.5005C108.686 33.4088 108.469 32.6077 108.886 32.2239Z" fill="#F2D231"/>
<path d="M56.9855 45.6246C59.5471 58.7583 72.8561 67.1359 86.7074 64.3322C100.559 61.5286 109.712 48.6118 107.151 35.478C104.589 22.3443 91.2801 13.9667 77.4287 16.7704C63.5774 19.574 54.4238 32.4908 56.9855 45.6246Z" fill="#F2D231"/>
<path d="M72.9562 21.6685C68.0915 24.7475 65.3213 29.0364 64.1698 30.2129C63.0767 31.331 62.1839 29.8207 62.6595 28.8778C64.3951 25.44 69.994 21.293 72.5473 20.834C73.023 20.7506 73.29 21.3514 72.9562 21.6685Z" fill="white"/>
<path d="M62.1922 32.7912C62.3758 33.4504 61.4579 36.7297 60.9156 37.2971C60.5484 37.6726 59.7641 37.7393 59.4887 37.1803C59.0381 36.2624 59.447 35.1109 59.9393 34.2515C60.2981 33.6257 60.9823 32.5075 61.775 32.4908C61.9586 32.4908 62.1505 32.5993 62.2089 32.7912H62.1922Z" fill="white"/>
<g style="mix-blend-mode:multiply" opacity="0.2">
<path d="M103.755 31.4729C103.755 31.4729 108.511 42.0032 101.685 52.4001C94.8597 62.7969 80.3158 65.9093 68.2418 58.992C68.7758 56.0214 71.9215 53.6517 74.8837 53.7185C77.2118 53.7769 79.9153 55.0118 81.6091 53.3847C82.7439 52.2916 82.7022 50.4559 83.3781 49.0207C84.5046 46.6092 87.3833 45.7164 89.9366 45.0989C92.4899 44.4814 95.3687 43.6554 96.5786 41.2856C97.2294 40.0173 97.2628 38.532 97.2962 37.1052C97.3296 35.6783 97.3796 34.1847 98.0555 32.9331C98.7314 31.6815 102.361 31.1391 103.679 31.6231L103.755 31.4729Z" fill="#E6AF29"/>
</g>
<path d="M134.85 90.46C132.19 94.91 126.64 96.61 121.51 97.3C113.52 98.37 105.32 97.81 97.54 95.7C91.34 102.25 83 106.47 73.98 106.82C64.96 107.19 55.86 103.9 49.13 97.88C44.64 102.18 38.47 104.23 32.25 103.96C26.02 103.71 20.63 99.61 16.49 94.94C12.96 94.84 9.37998 94.16 6.30998 92.41C3.25998 90.65 0.769981 87.68 0.139981 84.21C0.0099806 83.48 -0.0400194 82.76 0.0099806 82.04C0.239981 76.61 4.96998 71.76 10.31 70C16.36 68.03 22.91 69.05 29.18 70.07C24.86 63.4 20.54 56.84 18.8 49.08C17.05 41.34 18.48 32.37 24.4 27.06C28.97 22.98 35.47 21.67 41.58 22.15C49.98 22.84 58.1 26.72 63.91 32.86C69.7 38.98 73.13 47.3 73.35 55.73C74.48 53.19 77.79 51.57 80.53 52.06C83.28 52.56 85.52 55.09 85.7 57.86C89.52 52.29 94.45 46.93 100.81 44.67C107.18 42.41 115.2 43.85 119.08 49.38C121.58 52.95 122 57.71 120.93 61.94C119.86 66.17 117.4 69.93 114.58 73.25C120.15 71.65 126.4 71.56 131.04 75.04C132.2 75.92 133.21 77.01 134.02 78.24C136.41 81.9 137.03 86.72 134.83 90.45L134.85 90.46Z" fill="#F9F1CE"/>
<g style="mix-blend-mode:multiply">
<path d="M134.85 90.46C132.19 94.91 126.64 96.61 121.51 97.3C113.52 98.37 105.32 97.81 97.54 95.7C91.34 102.25 83 106.47 73.98 106.82C64.96 107.19 55.86 103.9 49.13 97.88C44.64 102.18 38.47 104.23 32.25 103.96C26.02 103.71 20.63 99.61 16.49 94.94C12.96 94.84 9.37998 94.16 6.30998 92.41C3.25998 90.65 0.769981 87.68 0.139981 84.21C0.0099806 83.48 -0.0400194 82.76 0.0099806 82.04C0.689981 84.01 1.88998 85.79 3.47998 87.12C6.10998 89.35 10.04 90.41 13.41 89.78C12.53 86.48 12.35 84.71 12.48 82.46C14.23 89.41 19.31 95.33 26.2 97.32C33.1 99.3 40.98 97.35 46.16 92.38C45.38 89.22 45.13 85.55 45.44 82.32C50.2 92.43 60.44 99.3 71.58 99.74C82.74 100.17 93.91 93.95 99.41 84.24C99.19 86.52 98.87 88.31 98.65 90.59C106.48 93.2 114.38 94.03 122.56 92.94C126.88 92.37 131.58 90.94 133.74 87.17C135.3 84.47 135.12 81.25 134.03 78.25C136.42 81.91 137.04 86.73 134.84 90.46H134.85Z" fill="#F9F1CE"/>
</g>
<path d="M39.55 25.59C33.52 25.7 27.83 28.8999 24.56 33.9599C23.53 35.5499 26.07 37.0299 27.1 35.4399C29.8 31.2599 34.59 28.62 39.55 28.53C41.44 28.49 41.44 25.56 39.55 25.59Z" fill="white"/>
<path d="M25.0399 45.3499C24.8899 44.9199 24.7899 44.4899 24.7199 44.0399C24.6699 43.5299 24.6699 43.0199 24.7199 42.5099C24.7599 42.2599 24.8099 42.0199 24.8699 41.7699C25.0699 41.0299 24.6199 40.1399 23.8399 39.9599C23.0699 39.7799 22.2499 40.1899 22.0299 40.9899C21.5799 42.6599 21.6199 44.4899 22.1999 46.1299C22.3299 46.4899 22.5299 46.8099 22.8699 47.0099C23.1799 47.1899 23.6499 47.2699 23.9999 47.1599C24.7099 46.9299 25.2999 46.1299 25.0299 45.3499H25.0399Z" fill="white"/>
<path d="M20.78 71.14C17.74 71.05 14.77 71.43 11.86 72.3C11.12 72.52 10.76 73.55 11.07 74.22C11.44 75 12.2 75.25 12.99 75.01C13.16 74.96 13.32 74.91 13.49 74.87C13.54 74.86 13.74 74.81 13.74 74.81C14.07 74.73 14.4 74.65 14.73 74.58C15.37 74.45 16.01 74.34 16.66 74.25C17.31 74.17 17.96 74.11 18.61 74.07C18.95 74.05 19.29 74.04 19.62 74.04C19.67 74.04 19.7 74.04 19.72 74.04C19.74 74.04 19.76 74.04 19.8 74.04C19.99 74.04 20.19 74.04 20.38 74.05C21.15 74.07 21.96 73.64 22.03 72.79C22.1 72.06 21.59 71.16 20.77 71.14H20.78Z" fill="white"/>
<path d="M106.99 48.0399C102.17 48.1699 97.45 50.4099 94.4 54.1799C93.9 54.7999 93.8 55.6499 94.4 56.2599C94.92 56.7799 95.98 56.8799 96.48 56.2599C99.08 53.0499 102.94 51.0899 106.99 50.9799C108.88 50.9299 108.88 47.9899 106.99 48.0399Z" fill="white"/>
<path d="M31.67 139.25C30.77 138.52 30.44 137.69 30.5 136.83C30.76 132.41 41.19 126.94 41.19 126.94C41.19 126.94 41.02 127.62 40.72 128.68C39.49 132.84 36.01 142.84 31.67 139.26V139.25Z" fill="#F3E4A6"/>
<g style="mix-blend-mode:multiply">
<path d="M31.67 139.25C30.77 138.52 30.44 137.69 30.5 136.83C30.66 137.3 30.99 137.72 31.43 137.95C32.26 138.42 33.32 138.32 34.18 137.89C35.03 137.47 35.71 136.75 36.33 136.02C38.16 133.82 39.5 131.27 40.72 128.67C39.49 132.83 36.01 142.83 31.67 139.25Z" fill="#F9F1CE"/>
</g>
<path d="M31.87 120.32C31.13 119.72 30.86 119.04 30.91 118.34C31.12 114.72 39.66 110.24 39.66 110.24C39.66 110.24 39.52 110.79 39.28 111.66C38.27 115.07 35.42 123.26 31.87 120.32Z" fill="#F3E4A6"/>
<g style="mix-blend-mode:multiply">
<path d="M31.87 120.32C31.13 119.72 30.86 119.04 30.91 118.34C31.04 118.73 31.31 119.06 31.67 119.26C32.35 119.65 33.21 119.56 33.92 119.21C34.61 118.86 35.17 118.28 35.68 117.68C37.18 115.88 38.27 113.79 39.27 111.66C38.26 115.07 35.41 123.26 31.86 120.32H31.87Z" fill="#F9F1CE"/>
</g>
<path d="M70.87 128.91C70.28 128.43 70.07 127.89 70.1 127.33C70.27 124.44 77.07 120.87 77.07 120.87C77.07 120.87 76.96 121.31 76.76 122C75.96 124.71 73.69 131.24 70.86 128.9L70.87 128.91Z" fill="#F3E4A6"/>
<g style="mix-blend-mode:multiply">
<path d="M70.87 128.91C70.28 128.43 70.07 127.89 70.1 127.33C70.2 127.64 70.42 127.91 70.71 128.06C71.25 128.37 71.94 128.3 72.51 128.02C73.06 127.75 73.51 127.28 73.91 126.8C75.11 125.37 75.98 123.7 76.77 122C75.97 124.71 73.7 131.24 70.87 128.9V128.91Z" fill="#F9F1CE"/>
</g>
<path d="M87.87 120.19C87.03 119.51 86.71 118.73 86.77 117.92C87.01 113.77 96.8 108.64 96.8 108.64C96.8 108.64 96.64 109.27 96.36 110.27C95.21 114.17 91.94 123.56 87.87 120.19Z" fill="#F3E4A6"/>
<g style="mix-blend-mode:multiply">
<path d="M87.87 120.19C87.03 119.51 86.71 118.73 86.77 117.92C86.92 118.36 87.23 118.75 87.64 118.97C88.42 119.41 89.41 119.31 90.22 118.91C91.01 118.51 91.66 117.84 92.24 117.16C93.96 115.1 95.21 112.7 96.36 110.26C95.21 114.16 91.94 123.55 87.87 120.18V120.19Z" fill="#F9F1CE"/>
</g>
<path d="M95.48 133.14C94.89 132.66 94.68 132.12 94.71 131.56C94.88 128.67 101.68 125.1 101.68 125.1C101.68 125.1 101.57 125.54 101.37 126.23C100.57 128.94 98.3 135.47 95.47 133.13L95.48 133.14Z" fill="#F3E4A6"/>
<g style="mix-blend-mode:multiply">
<path d="M95.48 133.14C94.89 132.66 94.68 132.12 94.71 131.56C94.81 131.87 95.03 132.14 95.32 132.29C95.86 132.6 96.55 132.53 97.12 132.25C97.67 131.97 98.12 131.51 98.52 131.03C99.72 129.6 100.59 127.93 101.38 126.23C100.58 128.94 98.31 135.47 95.48 133.13V133.14Z" fill="#F9F1CE"/>
</g>
</g>
<defs>
<clipPath id="clip0_56_607">
<rect width="136.21" height="140.01" fill="white"/>
</clipPath>
</defs>
</svg>
