<svg width="137" height="137" viewBox="0 0 137 137" fill="none" xmlns="http://www.w3.org/2000/svg">
<g clip-path="url(#clip0_56_576)">
<path d="M31.67 135.73C30.77 135 30.44 134.17 30.5 133.31C30.76 128.89 41.19 123.42 41.19 123.42C41.19 123.42 41.02 124.1 40.72 125.16C39.49 129.32 36.01 139.32 31.67 135.74V135.73Z" fill="#4897A8"/>
<g style="mix-blend-mode:multiply">
<path d="M31.67 135.73C30.77 135 30.44 134.17 30.5 133.31C30.66 133.78 30.99 134.2 31.43 134.43C32.26 134.9 33.32 134.8 34.18 134.37C35.03 133.95 35.71 133.23 36.33 132.5C38.16 130.3 39.5 127.75 40.72 125.15C39.49 129.31 36.01 139.31 31.67 135.73Z" fill="#B0DBE2"/>
</g>
<path d="M31.87 116.8C31.13 116.2 30.86 115.52 30.91 114.82C31.12 111.2 39.66 106.72 39.66 106.72C39.66 106.72 39.52 107.27 39.28 108.14C38.27 111.55 35.42 119.74 31.87 116.8Z" fill="#4897A8"/>
<g style="mix-blend-mode:multiply">
<path d="M31.87 116.8C31.13 116.2 30.86 115.52 30.91 114.82C31.04 115.21 31.31 115.54 31.67 115.74C32.35 116.13 33.21 116.04 33.92 115.69C34.61 115.34 35.17 114.76 35.68 114.16C37.18 112.36 38.27 110.27 39.27 108.14C38.26 111.55 35.41 119.74 31.86 116.8H31.87Z" fill="#B0DBE2"/>
</g>
<path d="M70.87 125.4C70.28 124.92 70.07 124.38 70.1 123.82C70.27 120.93 77.07 117.36 77.07 117.36C77.07 117.36 76.96 117.8 76.76 118.49C75.96 121.2 73.69 127.73 70.86 125.39L70.87 125.4Z" fill="#4897A8"/>
<g style="mix-blend-mode:multiply">
<path d="M70.87 125.4C70.28 124.92 70.07 124.38 70.1 123.82C70.2 124.13 70.42 124.4 70.71 124.55C71.25 124.86 71.94 124.79 72.51 124.51C73.06 124.24 73.51 123.77 73.91 123.29C75.11 121.86 75.98 120.19 76.77 118.49C75.97 121.2 73.7 127.73 70.87 125.39V125.4Z" fill="#B0DBE2"/>
</g>
<path d="M87.87 116.68C87.03 116 86.71 115.22 86.77 114.41C87.01 110.26 96.8 105.13 96.8 105.13C96.8 105.13 96.64 105.76 96.36 106.76C95.21 110.66 91.94 120.05 87.87 116.68Z" fill="#4897A8"/>
<g style="mix-blend-mode:multiply">
<path d="M87.87 116.68C87.03 116 86.71 115.22 86.77 114.41C86.92 114.85 87.23 115.24 87.64 115.46C88.42 115.9 89.41 115.8 90.22 115.4C91.01 115 91.66 114.33 92.24 113.65C93.96 111.59 95.21 109.19 96.36 106.75C95.21 110.65 91.94 120.04 87.87 116.67V116.68Z" fill="#B0DBE2"/>
</g>
<path d="M95.48 129.63C94.89 129.15 94.68 128.61 94.71 128.05C94.88 125.16 101.68 121.59 101.68 121.59C101.68 121.59 101.57 122.03 101.37 122.72C100.57 125.43 98.3 131.96 95.47 129.62L95.48 129.63Z" fill="#4897A8"/>
<g style="mix-blend-mode:multiply">
<path d="M95.48 129.63C94.89 129.15 94.68 128.61 94.71 128.05C94.81 128.36 95.03 128.63 95.32 128.78C95.86 129.09 96.55 129.02 97.12 128.74C97.67 128.46 98.12 128 98.52 127.52C99.72 126.09 100.59 124.42 101.38 122.72C100.58 125.43 98.31 131.96 95.48 129.62V129.63Z" fill="#B0DBE2"/>
</g>
<path d="M115.772 62.0248C111.39 79.004 98.244 92.0763 81.2437 96.3739C69.2696 99.4044 57.76 98.0317 47.9822 93.5335C42.9983 91.2421 44.6349 83.8718 50.1257 83.914C54.5923 83.9563 59.2489 83.1538 63.9477 81.3692C72.7435 78.0325 79.7126 70.9579 82.9437 62.1304C92.0352 37.3268 73.9473 14.0649 50.4214 14.0649C50.3263 14.0649 50.2419 14.0649 50.1468 14.0649C44.6877 14.1071 42.9877 6.75789 47.94 4.46654C54.1805 1.605 61.1284 0 68.4459 0C99.7434 0 124.199 29.3546 115.772 62.0248Z" fill="#F2D231"/>
<g style="mix-blend-mode:multiply" opacity="0.2">
<path d="M114.611 59.744C110.282 76.3325 98.3708 90.1651 81.2437 93.9558C73.6728 95.6347 67.2633 98.8553 54.1066 92.8365C53.2407 92.4353 51.15 91.1682 52.6283 89.3203C54.1066 87.4725 63.0502 94.5155 74.1585 84.3892C85.2668 74.2629 83.9046 70.9368 91.4439 70.3138C98.9832 69.6908 99.4267 63.6826 103.788 57.3576C107.79 51.55 116.659 51.8879 114.611 59.744Z" fill="#E6AF29"/>
</g>
<path d="M134.85 86.9499C132.19 91.3999 126.64 93.0999 121.51 93.7899C113.52 94.8599 105.32 94.2999 97.54 92.1899C91.34 98.7399 83 102.96 73.98 103.31C64.96 103.68 55.86 100.39 49.13 94.3699C44.64 98.6699 38.47 100.72 32.25 100.45C26.02 100.2 20.63 96.0999 16.49 91.4299C12.96 91.3299 9.37998 90.6499 6.30998 88.8999C3.25998 87.1399 0.769981 84.1699 0.139981 80.6999C0.0099806 79.9699 -0.0400194 79.2499 0.0099806 78.5299C0.239981 73.0999 4.96998 68.2499 10.31 66.4899C16.36 64.5199 22.91 65.5399 29.18 66.5599C24.86 59.8899 20.54 53.33 18.8 45.57C17.05 37.83 18.48 28.8599 24.4 23.5499C28.97 19.4699 35.47 18.1599 41.58 18.6399C49.98 19.3299 58.1 23.21 63.91 29.35C69.7 35.47 73.13 43.79 73.35 52.22C74.48 49.68 77.79 48.0599 80.53 48.5499C83.28 49.0499 85.52 51.5799 85.7 54.3499C89.52 48.7799 94.45 43.42 100.81 41.16C107.18 38.9 115.2 40.3399 119.08 45.8699C121.58 49.4399 122 54.2 120.93 58.43C119.86 62.66 117.4 66.4199 114.58 69.7399C120.15 68.1399 126.4 68.0499 131.04 71.5299C132.2 72.4099 133.21 73.5 134.02 74.73C136.41 78.39 137.03 83.2099 134.83 86.9399L134.85 86.9499Z" fill="#4897A8"/>
<g style="mix-blend-mode:multiply">
<path d="M134.85 86.95C132.19 91.4 126.64 93.1 121.51 93.79C113.52 94.86 105.32 94.3 97.54 92.19C91.34 98.74 83 102.96 73.98 103.31C64.96 103.68 55.86 100.39 49.13 94.37C44.64 98.67 38.47 100.72 32.25 100.45C26.02 100.2 20.63 96.1 16.49 91.43C12.96 91.33 9.37998 90.65 6.30998 88.9C3.25998 87.14 0.769981 84.17 0.139981 80.7C0.0099806 79.97 -0.0400194 79.25 0.0099806 78.53C0.689981 80.5 1.88998 82.28 3.47998 83.61C6.10998 85.84 10.04 86.9 13.41 86.27C12.53 82.97 12.35 81.2 12.48 78.95C14.23 85.9 19.31 91.82 26.2 93.81C33.1 95.79 40.98 93.84 46.16 88.87C45.38 85.71 45.13 82.04 45.44 78.81C50.2 88.92 60.44 95.79 71.58 96.23C82.74 96.66 93.91 90.44 99.41 80.73C99.19 83.01 98.87 84.8 98.65 87.08C106.48 89.69 114.38 90.52 122.56 89.43C126.88 88.86 131.58 87.43 133.74 83.66C135.3 80.96 135.12 77.74 134.03 74.74C136.42 78.4 137.04 83.22 134.84 86.95H134.85Z" fill="#B0DBE2"/>
</g>
<path d="M39.55 22.0699C33.52 22.1799 27.83 25.3799 24.56 30.4399C23.53 32.0299 26.07 33.5099 27.1 31.9199C29.8 27.7399 34.59 25.0999 39.55 25.0099C41.44 24.9699 41.44 22.0399 39.55 22.0699Z" fill="white"/>
<path d="M25.0399 41.8399C24.8899 41.4099 24.7899 40.9799 24.7199 40.5299C24.6699 40.0199 24.6699 39.5099 24.7199 38.9999C24.7599 38.7499 24.8099 38.5099 24.8699 38.2599C25.0699 37.5199 24.6199 36.6299 23.8399 36.4499C23.0699 36.2699 22.2499 36.6799 22.0299 37.4799C21.5799 39.1499 21.6199 40.9799 22.1999 42.6199C22.3299 42.9799 22.5299 43.2999 22.8699 43.4999C23.1799 43.6799 23.6499 43.7599 23.9999 43.6499C24.7099 43.4199 25.2999 42.6199 25.0299 41.8399H25.0399Z" fill="white"/>
<path d="M20.78 67.62C17.74 67.53 14.77 67.91 11.86 68.78C11.12 69 10.76 70.03 11.07 70.7C11.44 71.48 12.2 71.73 12.99 71.49C13.16 71.44 13.32 71.39 13.49 71.35C13.54 71.34 13.74 71.29 13.74 71.29C14.07 71.21 14.4 71.13 14.73 71.06C15.37 70.93 16.01 70.82 16.66 70.73C17.31 70.65 17.96 70.59 18.61 70.55C18.95 70.53 19.29 70.52 19.62 70.52C19.67 70.52 19.7 70.52 19.72 70.52C19.74 70.52 19.76 70.52 19.8 70.52C19.99 70.52 20.19 70.52 20.38 70.53C21.15 70.55 21.96 70.12 22.03 69.27C22.1 68.54 21.59 67.64 20.77 67.62H20.78Z" fill="white"/>
<path d="M106.99 44.5199C102.17 44.6499 97.45 46.8899 94.4 50.6599C93.9 51.2799 93.8 52.1299 94.4 52.7399C94.92 53.2599 95.98 53.3599 96.48 52.7399C99.08 49.5299 102.94 47.5699 106.99 47.4599C108.88 47.4099 108.88 44.4699 106.99 44.5199Z" fill="white"/>
</g>
<defs>
<clipPath id="clip0_56_576">
<rect width="136.21" height="136.5" fill="white"/>
</clipPath>
</defs>
</svg>
