<svg width="137" height="141" viewBox="0 0 137 141" fill="none" xmlns="http://www.w3.org/2000/svg">
<g clip-path="url(#clip0_56_916)">
<path d="M134.85 70.4043C132.19 74.8543 126.64 76.5543 121.51 77.2443C113.52 78.3143 105.32 77.7543 97.54 75.6443C91.34 82.1943 83 86.4143 73.98 86.7643C64.96 87.1343 55.86 83.8443 49.13 77.8243C44.64 82.1243 38.47 84.1743 32.25 83.9043C26.02 83.6543 20.63 79.5543 16.49 74.8843C12.96 74.7843 9.38004 74.1043 6.31004 72.3543C3.26004 70.5943 0.770042 67.6243 0.140042 64.1543C0.0100416 63.4243 -0.0399584 62.7043 0.0100416 61.9843C0.240042 56.5543 4.97004 51.7043 10.31 49.9443C16.36 47.9743 22.91 48.9943 29.18 50.0143C24.86 43.3443 20.54 36.7843 18.8 29.0243C17.05 21.2843 18.48 12.3143 24.4 7.0043C28.97 2.9243 35.47 1.6143 41.58 2.0943C49.98 2.7843 58.1 6.6643 63.91 12.8043C69.7 18.9243 73.13 27.2443 73.35 35.6743C74.48 33.1343 77.79 31.5143 80.53 32.0043C83.28 32.5043 85.52 35.0343 85.7 37.8043C89.52 32.2343 94.45 26.8743 100.81 24.6143C107.18 22.3543 115.2 23.7943 119.08 29.3243C121.58 32.8943 122 37.6543 120.93 41.8843C119.86 46.1143 117.4 49.8743 114.58 53.1943C120.15 51.5943 126.4 51.5043 131.04 54.9843C132.2 55.8643 133.21 56.9543 134.02 58.1843C136.41 61.8443 137.03 66.6643 134.83 70.3943L134.85 70.4043Z" fill="#4897A8"/>
<g style="mix-blend-mode:multiply">
<path d="M134.85 70.4043C132.19 74.8543 126.64 76.5543 121.51 77.2443C113.52 78.3143 105.32 77.7543 97.54 75.6443C91.34 82.1943 83 86.4143 73.98 86.7643C64.96 87.1343 55.86 83.8443 49.13 77.8243C44.64 82.1243 38.47 84.1743 32.25 83.9043C26.02 83.6543 20.63 79.5543 16.49 74.8843C12.96 74.7843 9.38004 74.1043 6.31004 72.3543C3.26004 70.5943 0.770042 67.6243 0.140042 64.1543C0.0100416 63.4243 -0.0399584 62.7043 0.0100416 61.9843C0.690042 63.9543 1.89004 65.7343 3.48004 67.0643C6.11004 69.2943 10.04 70.3543 13.41 69.7243C12.53 66.4243 12.35 64.6543 12.48 62.4043C14.23 69.3543 19.31 75.2743 26.2 77.2643C33.1 79.2443 40.98 77.2943 46.16 72.3243C45.38 69.1643 45.13 65.4943 45.44 62.2643C50.2 72.3743 60.44 79.2443 71.58 79.6843C82.74 80.1143 93.91 73.8943 99.41 64.1843C99.19 66.4643 98.87 68.2543 98.65 70.5343C106.48 73.1443 114.38 73.9743 122.56 72.8843C126.88 72.3143 131.58 70.8843 133.74 67.1143C135.3 64.4143 135.12 61.1943 134.03 58.1943C136.42 61.8543 137.04 66.6743 134.84 70.4043H134.85Z" fill="#B0DBE2"/>
</g>
<path d="M39.5501 5.53429C33.5201 5.64429 27.8301 8.84429 24.5601 13.9043C23.5301 15.4943 26.0701 16.9743 27.1001 15.3843C29.8001 11.2043 34.5901 8.56429 39.5501 8.47429C41.4401 8.43429 41.4401 5.50429 39.5501 5.53429Z" fill="white"/>
<path d="M25.0401 25.2942C24.8901 24.8642 24.7901 24.4342 24.7201 23.9842C24.6701 23.4742 24.6701 22.9642 24.7201 22.4542C24.7601 22.2042 24.8101 21.9642 24.8701 21.7142C25.0701 20.9742 24.6201 20.0842 23.8401 19.9042C23.0701 19.7242 22.2501 20.1342 22.0301 20.9342C21.5801 22.6042 21.6201 24.4342 22.2001 26.0742C22.3301 26.4342 22.5301 26.7542 22.8701 26.9542C23.1801 27.1342 23.6501 27.2142 24.0001 27.1042C24.7101 26.8742 25.3001 26.0742 25.0301 25.2942H25.0401Z" fill="white"/>
<path d="M20.7801 51.0843C17.7401 50.9943 14.7701 51.3743 11.8601 52.2443C11.1201 52.4643 10.7601 53.4943 11.0701 54.1643C11.4401 54.9443 12.2001 55.1943 12.9901 54.9543C13.1601 54.9043 13.3201 54.8543 13.4901 54.8143C13.5401 54.8043 13.7401 54.7543 13.7401 54.7543C14.0701 54.6743 14.4001 54.5943 14.7301 54.5243C15.3701 54.3943 16.0101 54.2843 16.6601 54.1943C17.3101 54.1143 17.9601 54.0543 18.6101 54.0143C18.9501 53.9943 19.2901 53.9843 19.6201 53.9843C19.6701 53.9843 19.7001 53.9843 19.7201 53.9843C19.7401 53.9843 19.7601 53.9843 19.8001 53.9843C19.9901 53.9843 20.1901 53.9843 20.3801 53.9943C21.1501 54.0143 21.9601 53.5843 22.0301 52.7343C22.1001 52.0043 21.5901 51.1043 20.7701 51.0843H20.7801Z" fill="white"/>
<path d="M106.99 27.9843C102.17 28.1143 97.45 30.3543 94.4 34.1243C93.9 34.7443 93.8 35.5943 94.4 36.2043C94.92 36.7243 95.98 36.8243 96.48 36.2043C99.08 32.9943 102.94 31.0343 106.99 30.9243C108.88 30.8743 108.88 27.9343 106.99 27.9843Z" fill="white"/>
<path d="M27.5206 105.638C26.123 105.784 25.1322 105.357 24.4542 104.574C20.8976 100.58 25.1322 87 25.1322 87C25.1322 87 25.5598 87.7197 26.2169 88.8774C28.72 93.4874 34.2896 105.002 27.5206 105.638Z" fill="#4897A8"/>
<g style="mix-blend-mode:multiply">
<path d="M27.5205 105.638C26.1229 105.784 25.1321 105.357 24.4541 104.574C24.9965 104.846 25.6223 104.908 26.2063 104.741C27.3223 104.439 28.1254 103.448 28.5009 102.343C28.8555 101.258 28.8347 100.069 28.7408 98.9111C28.4279 95.4692 27.3849 92.1526 26.2063 88.888C28.7095 93.498 34.279 105.013 27.5101 105.649L27.5205 105.638Z" fill="#B0DBE2"/>
</g>
<path d="M45.8106 111.636C44.863 111.735 44.1913 111.445 43.7317 110.915C41.3204 108.207 44.1913 99.0001 44.1913 99.0001C44.1913 99.0001 44.4812 99.488 44.9267 100.273C46.6237 103.398 50.3997 111.205 45.8106 111.636Z" fill="#4897A8"/>
<g style="mix-blend-mode:multiply">
<path d="M45.8106 111.636C44.8631 111.735 44.1913 111.445 43.7317 110.915C44.0994 111.099 44.5237 111.141 44.9197 111.028C45.6763 110.823 46.2207 110.151 46.4753 109.402C46.7157 108.666 46.7016 107.86 46.6379 107.075C46.4258 104.742 45.7187 102.493 44.9197 100.28C46.6167 103.405 50.3927 111.212 45.8035 111.643L45.8106 111.636Z" fill="#B0DBE2"/>
</g>
<path d="M92.8106 105.636C91.863 105.735 91.1913 105.445 90.7317 104.915C88.3204 102.207 91.1913 93 91.1913 93C91.1913 93 91.4812 93.4879 91.9267 94.2728C93.6237 97.3982 97.3997 105.205 92.8106 105.636Z" fill="#4897A8"/>
<g style="mix-blend-mode:multiply">
<path d="M92.8106 105.636C91.8631 105.735 91.1913 105.445 90.7317 104.915C91.0994 105.099 91.5237 105.141 91.9197 105.028C92.6763 104.823 93.2207 104.151 93.4753 103.402C93.7157 102.666 93.7016 101.86 93.6379 101.075C93.4258 98.7418 92.7187 96.4932 91.9197 94.2799C93.6167 97.4053 97.3927 105.212 92.8035 105.643L92.8106 105.636Z" fill="#B0DBE2"/>
</g>
<path d="M116.036 101.473C114.576 101.625 113.541 101.178 112.833 100.361C109.117 96.1876 113.541 82 113.541 82C113.541 82 113.988 82.7519 114.674 83.9615C117.289 88.7778 123.108 100.808 116.036 101.473Z" fill="#4897A8"/>
<g style="mix-blend-mode:multiply">
<path d="M116.036 101.473C114.576 101.625 113.541 101.178 112.833 100.361C113.399 100.645 114.053 100.71 114.663 100.536C115.829 100.22 116.668 99.1844 117.061 98.0293C117.431 96.8961 117.409 95.6538 117.311 94.4443C116.984 90.8483 115.895 87.3832 114.663 83.9725C117.279 88.7889 123.097 100.819 116.025 101.484L116.036 101.473Z" fill="#B0DBE2"/>
</g>
<path d="M40.8106 127.636C39.863 127.735 39.1913 127.445 38.7317 126.915C36.3204 124.207 39.1913 115 39.1913 115C39.1913 115 39.4812 115.488 39.9267 116.273C41.6237 119.398 45.3997 127.205 40.8106 127.636Z" fill="#4897A8"/>
<g style="mix-blend-mode:multiply">
<path d="M40.8106 127.636C39.8631 127.735 39.1913 127.445 38.7317 126.915C39.0994 127.099 39.5237 127.141 39.9197 127.028C40.6763 126.823 41.2207 126.151 41.4753 125.402C41.7157 124.666 41.7016 123.86 41.6379 123.075C41.4258 120.742 40.7187 118.493 39.9197 116.28C41.6167 119.405 45.3927 127.212 40.8035 127.643L40.8106 127.636Z" fill="#B0DBE2"/>
</g>
<path d="M60.4543 116.856C59.7153 116.933 59.1913 116.707 58.8328 116.293C56.9521 114.181 59.1913 107 59.1913 107C59.1913 107 59.4174 107.381 59.7649 107.993C61.0886 110.431 64.0337 116.519 60.4543 116.856Z" fill="#4897A8"/>
<g style="mix-blend-mode:multiply">
<path d="M60.4543 116.856C59.7153 116.933 59.1914 116.707 58.8329 116.293C59.1197 116.437 59.4506 116.47 59.7594 116.382C60.3496 116.222 60.7742 115.698 60.9728 115.113C61.1603 114.539 61.1493 113.911 61.0996 113.299C60.9342 111.478 60.3826 109.725 59.7594 107.998C61.0831 110.436 64.0282 116.525 60.4488 116.861L60.4543 116.856Z" fill="#B0DBE2"/>
</g>
<path d="M55.092 132.856C54.353 132.933 53.829 132.707 53.4705 132.293C51.5898 130.181 53.829 123 53.829 123C53.829 123 54.0551 123.381 54.4026 123.993C55.7263 126.43 58.6714 132.519 55.092 132.856Z" fill="#4897A8"/>
<g style="mix-blend-mode:multiply">
<path d="M55.092 132.856C54.353 132.933 53.829 132.707 53.4706 132.293C53.7574 132.437 54.0883 132.47 54.3971 132.381C54.9872 132.221 55.4119 131.698 55.6105 131.113C55.798 130.539 55.787 129.911 55.7373 129.298C55.5719 127.478 55.0203 125.725 54.3971 123.998C55.7208 126.436 58.6659 132.525 55.0865 132.861L55.092 132.856Z" fill="#B0DBE2"/>
</g>
<path d="M102.092 118.856C101.353 118.933 100.829 118.707 100.471 118.293C98.5898 116.181 100.829 109 100.829 109C100.829 109 101.055 109.381 101.403 109.993C102.726 112.43 105.671 118.519 102.092 118.856Z" fill="#4897A8"/>
<g style="mix-blend-mode:multiply">
<path d="M102.092 118.856C101.353 118.933 100.829 118.707 100.471 118.293C100.757 118.437 101.088 118.47 101.397 118.381C101.987 118.221 102.412 117.698 102.61 117.113C102.798 116.539 102.787 115.911 102.737 115.298C102.572 113.478 102.02 111.725 101.397 109.998C102.721 112.436 105.666 118.525 102.087 118.861L102.092 118.856Z" fill="#B0DBE2"/>
</g>
<path d="M90.376 130.071C89.4708 130.166 88.8291 129.889 88.39 129.382C86.0865 126.795 88.8291 118 88.8291 118C88.8291 118 89.106 118.466 89.5316 119.216C91.1528 122.202 94.76 129.659 90.376 130.071Z" fill="#4897A8"/>
<g style="mix-blend-mode:multiply">
<path d="M90.376 130.071C89.4708 130.166 88.8291 129.889 88.39 129.382C88.7413 129.558 89.1466 129.598 89.5249 129.49C90.2476 129.294 90.7678 128.653 91.011 127.937C91.2406 127.234 91.2271 126.464 91.1663 125.714C90.9637 123.485 90.2882 121.337 89.5249 119.223C91.1461 122.208 94.7532 129.666 90.3692 130.078L90.376 130.071Z" fill="#B0DBE2"/>
</g>
<path d="M52.5443 95.3519C51.993 95.4095 51.6022 95.2408 51.3347 94.9323C49.9319 93.3566 51.6022 88.0001 51.6022 88.0001C51.6022 88.0001 51.7708 88.284 52.03 88.7407C53.0174 90.5591 55.2143 95.1009 52.5443 95.3519Z" fill="#4897A8"/>
<g style="mix-blend-mode:multiply">
<path d="M52.5443 95.3519C51.993 95.4095 51.6022 95.2409 51.3348 94.9323C51.5487 95.0393 51.7955 95.064 52.0259 94.9981C52.4661 94.8788 52.7829 94.488 52.931 94.0519C53.0709 93.624 53.0627 93.155 53.0256 92.6984C52.9022 91.3408 52.4908 90.0325 52.0259 88.7448C53.0133 90.5632 55.2102 95.1051 52.5402 95.3561L52.5443 95.3519Z" fill="#B0DBE2"/>
</g>
<path d="M115.544 122.352C114.993 122.409 114.602 122.241 114.335 121.932C112.932 120.356 114.602 115 114.602 115C114.602 115 114.771 115.284 115.03 115.741C116.017 117.559 118.214 122.101 115.544 122.352Z" fill="#4897A8"/>
<g style="mix-blend-mode:multiply">
<path d="M115.544 122.352C114.993 122.409 114.602 122.241 114.335 121.932C114.549 122.039 114.796 122.064 115.026 121.998C115.466 121.879 115.783 121.488 115.931 121.052C116.071 120.624 116.063 120.155 116.026 119.698C115.902 118.341 115.491 117.032 115.026 115.745C116.013 117.563 118.21 122.105 115.54 122.356L115.544 122.352Z" fill="#B0DBE2"/>
</g>
<path d="M98.5443 88.3518C97.993 88.4094 97.6022 88.2407 97.3347 87.9322C95.9319 86.3565 97.6022 81 97.6022 81C97.6022 81 97.7708 81.2839 98.03 81.7405C99.0174 83.5589 101.214 88.1008 98.5443 88.3518Z" fill="#4897A8"/>
<g style="mix-blend-mode:multiply">
<path d="M98.5443 88.3518C97.993 88.4094 97.6022 88.2407 97.3348 87.9322C97.5487 88.0391 97.7955 88.0638 98.0259 87.998C98.4661 87.8787 98.7829 87.4879 98.931 87.0518C99.0709 86.6239 99.0627 86.1549 99.0256 85.6983C98.9022 84.3406 98.4908 83.0324 98.0259 81.7447C99.0133 83.5631 101.21 88.105 98.5402 88.3559L98.5443 88.3518Z" fill="#B0DBE2"/>
</g>
<path d="M72.5443 125.352C71.993 125.409 71.6022 125.241 71.3347 124.932C69.9319 123.356 71.6022 118 71.6022 118C71.6022 118 71.7708 118.284 72.03 118.741C73.0174 120.559 75.2143 125.101 72.5443 125.352Z" fill="#4897A8"/>
<g style="mix-blend-mode:multiply">
<path d="M72.5443 125.352C71.993 125.409 71.6022 125.241 71.3348 124.932C71.5487 125.039 71.7955 125.064 72.0259 124.998C72.4661 124.879 72.7829 124.488 72.931 124.052C73.0709 123.624 73.0627 123.155 73.0256 122.698C72.9022 121.341 72.4908 120.032 72.0259 118.745C73.0133 120.563 75.2102 125.105 72.5402 125.356L72.5443 125.352Z" fill="#B0DBE2"/>
</g>
<path d="M76.5702 108.564C75.1782 108.709 74.1913 108.283 73.516 107.504C69.9737 103.525 74.1913 89.9999 74.1913 89.9999C74.1913 89.9999 74.6172 90.7167 75.2717 91.8698C77.7648 96.4614 83.3121 107.93 76.5702 108.564Z" fill="#4897A8"/>
<g style="mix-blend-mode:multiply">
<path d="M76.5701 108.564C75.1781 108.709 74.1912 108.283 73.516 107.504C74.0562 107.774 74.6795 107.837 75.2612 107.67C76.3728 107.369 77.1727 106.382 77.5466 105.281C77.8998 104.201 77.8791 103.016 77.7856 101.863C77.4739 98.4352 76.4351 95.1318 75.2612 91.8802C77.7544 96.4718 83.3017 107.94 76.5598 108.574L76.5701 108.564Z" fill="#B0DBE2"/>
</g>
</g>
<defs>
<clipPath id="clip0_56_916">
<rect width="136.21" height="140.01" fill="white"/>
</clipPath>
</defs>
</svg>
