<svg width="123" height="131" viewBox="0 0 123 131" fill="none" xmlns="http://www.w3.org/2000/svg">
<g clip-path="url(#clip0_56_1005)">
<path d="M46.57 63.05L72.56 58.76L58.09 90.61C57.72 91.42 58.39 92.32 59.27 92.2L76.91 89.81C77.94 89.67 78.6 90.88 77.92 91.67L44.68 130.04C43.86 130.99 42.34 130.1 42.76 128.92L52.11 102.83C52.41 101.99 51.67 101.15 50.8 101.34L37.11 104.37C36.28 104.55 35.55 103.79 35.77 102.97L46.58 63.05H46.57Z" fill="#F2D231"/>
<path d="M121.85 54.92C121.55 56.84 120.88 58.7 119.9 60.36C116.74 65.71 110.82 69.04 104.71 70.14C98.6 71.25 91.79 72.01 85.77 70.43C80.26 77.11 71.77 81.22 63.12 81.4C54.47 81.57 45.85 77.78 40.07 71.32C32.37 73.54 24.26 74.35 16.28 73.69C10.8 73.25 4.84003 71.75 1.79003 67.2C0.63003 65.5 0.0800297 63.5 0.0100297 61.47C-0.11997 57.9 1.28003 54.18 3.74003 51.53C7.61003 47.36 13.49 45.55 19.17 45.42C24.85 45.31 30.42 46.07 35.93 47.47C33.03 44.99 30.55 41.8 29.83 38.06C29.12 34.31 30.53 30.01 33.83 28.14C37.1 26.27 41.45 27.2 44.35 29.58C47.27 31.96 48.97 35.52 50.08 39.12C49.32 31.8 51.08 23.85 54.02 17.1C56.94 10.35 62.24 4.47998 69.05 1.69998C75.86 -1.09002 84.16 -0.490024 90.03 3.93998C95.74 8.25998 98.6 15.7 98.3 22.86C97.98 30 94.78 36.83 90.28 42.4C94.88 40.29 99.66 39.03 104.71 38.54C109.74 38.03 115.2 39.32 118.65 43.03C121.57 46.16 122.55 50.67 121.84 54.92H121.85Z" fill="#F9F1CE"/>
<g style="mix-blend-mode:multiply">
<path d="M121.85 54.9199C121.55 56.8399 120.88 58.6999 119.9 60.3599C116.74 65.7099 110.82 69.0399 104.71 70.1399C98.6 71.2499 91.79 72.0099 85.77 70.4299C80.26 77.1099 71.77 81.2199 63.12 81.3999C54.47 81.5699 45.85 77.7799 40.07 71.3199C32.37 73.5399 24.26 74.3499 16.28 73.6899C10.8 73.2499 4.84001 71.7499 1.79001 67.1999C0.63001 65.4999 0.0800098 63.4999 0.0100098 61.4699C3.38001 66.4899 9.45001 69.5699 15.55 70.4499C22.79 71.4999 30.12 69.9899 37.28 68.4999C35.28 66.0899 34.41 62.3899 34.66 59.2799C40.01 68.6799 50.55 74.6599 61.37 74.6099C72.18 74.5799 82.77 68.3399 88.04 58.8799C87.8 61.6599 86.96 64.3099 85.85 66.8499C93.49 67.2799 101.26 67.9799 108.53 65.5999C114.05 63.7899 119.24 59.9799 121.85 54.9299V54.9199Z" fill="#F9F1CE"/>
</g>
<path d="M72.5899 7.18003C72.1299 6.40003 71.1899 6.23003 70.4199 6.61003C63.8999 9.82003 59.0299 16.15 57.6199 23.28C57.4499 24.12 57.8599 24.99 58.7299 25.23C59.5099 25.44 60.5099 24.97 60.6799 24.12C61.9499 17.72 66.1699 12.23 72.0199 9.35003C72.7899 8.97003 72.9999 7.88003 72.5899 7.18003Z" fill="white"/>
<path d="M36.13 35.4401C36.26 35.1801 36.39 34.9201 36.57 34.6801C36.52 34.7401 36.47 34.8001 36.43 34.8701C36.69 34.5401 36.88 34.2101 36.88 33.7801C36.88 33.3901 36.71 32.9301 36.42 32.6601C36.12 32.3801 35.72 32.1801 35.3 32.1901C34.9 32.2101 34.44 32.3301 34.18 32.6601C33.44 33.5601 32.96 34.5701 32.8 35.7301C32.74 36.2101 32.71 36.6801 32.77 37.1601C32.81 37.4801 32.85 37.8001 32.94 38.1101C33.03 38.4401 33.17 38.7501 33.3 39.0701C33.45 39.4101 33.91 39.7101 34.25 39.8001C34.63 39.9001 35.14 39.8601 35.47 39.6401C35.81 39.4201 36.11 39.1001 36.2 38.6901L36.26 38.2701C36.26 38.0901 36.22 37.9201 36.16 37.7501V37.7801C36.06 37.5101 36 37.2301 35.94 36.9401C35.92 36.6801 35.92 36.4101 35.94 36.1501C35.99 35.9101 36.05 35.6701 36.13 35.4401Z" fill="white"/>
<path d="M21.28 48.9801C16.58 48.4901 11.72 49.6901 7.75997 52.2701C7.03997 52.7401 6.73997 53.6801 7.18997 54.4401C7.60997 55.1501 8.63997 55.4801 9.35997 55.0101C12.9 52.7001 17.07 51.7101 21.28 52.1501C22.13 52.2401 22.87 51.3601 22.87 50.5601C22.87 49.6301 22.14 49.0601 21.28 48.9701V48.9801Z" fill="white"/>
<path d="M9.04009 111.44C7.94009 111.05 7.34009 110.38 7.11009 109.54C5.86009 105.25 13.9201 96.53 13.9201 96.53C13.9201 96.53 13.9901 97.23 14.0601 98.34C14.3001 102.71 14.3701 113.38 9.04009 111.44Z" fill="#F3E4A6"/>
<g style="mix-blend-mode:multiply">
<path d="M9.04011 111.44C7.94011 111.05 7.34011 110.38 7.11011 109.54C7.42011 109.94 7.88011 110.21 8.37011 110.29C9.32011 110.46 10.2801 110 10.9601 109.3C11.6201 108.61 12.0301 107.7 12.3701 106.8C13.3701 104.09 13.7701 101.22 14.0501 98.3401C14.2901 102.71 14.3601 113.38 9.03011 111.44H9.04011Z" fill="#F9F1CE"/>
</g>
<path d="M26.3501 100.2C25.4501 99.88 24.9601 99.33 24.7701 98.64C23.7501 95.13 30.3501 87.99 30.3501 87.99C30.3501 87.99 30.4101 88.56 30.4701 89.47C30.6601 93.04 30.7301 101.79 26.3601 100.2H26.3501Z" fill="#F3E4A6"/>
<g style="mix-blend-mode:multiply">
<path d="M26.3501 100.2C25.4501 99.88 24.9601 99.33 24.7701 98.64C25.0201 98.97 25.4001 99.19 25.8001 99.26C26.5701 99.4 27.3701 99.02 27.9201 98.45C28.4601 97.89 28.8001 97.14 29.0801 96.4C29.9001 94.18 30.2301 91.83 30.4601 89.47C30.6501 93.04 30.7201 101.79 26.3501 100.2Z" fill="#F9F1CE"/>
</g>
<path d="M62.1401 125.67C61.4201 125.42 61.0301 124.98 60.8801 124.43C60.0701 121.63 65.3201 115.94 65.3201 115.94C65.3201 115.94 65.3601 116.4 65.4101 117.12C65.5601 119.97 65.6101 126.93 62.1401 125.67Z" fill="#F3E4A6"/>
<g style="mix-blend-mode:multiply">
<path d="M62.1401 125.67C61.4201 125.42 61.0301 124.98 60.8801 124.43C61.0801 124.69 61.3801 124.87 61.7001 124.92C62.3201 125.03 62.9501 124.73 63.3901 124.28C63.8201 123.83 64.0901 123.24 64.3101 122.65C64.9601 120.88 65.2201 119.01 65.4101 117.13C65.5601 119.98 65.6101 126.94 62.1401 125.68V125.67Z" fill="#F9F1CE"/>
</g>
<path d="M102.04 101.08C101.01 100.72 100.45 100.08 100.23 99.3C99.0601 95.28 106.62 87.09 106.62 87.09C106.62 87.09 106.68 87.75 106.75 88.79C106.97 92.89 107.04 102.9 102.04 101.08Z" fill="#F3E4A6"/>
<g style="mix-blend-mode:multiply">
<path d="M102.04 101.08C101.01 100.72 100.45 100.08 100.23 99.2999C100.52 99.6699 100.95 99.9299 101.42 100.01C102.31 100.17 103.22 99.7399 103.85 99.0899C104.47 98.4499 104.86 97.5899 105.17 96.7399C106.11 94.1999 106.49 91.4999 106.75 88.7999C106.97 92.8999 107.04 102.91 102.04 101.09V101.08Z" fill="#F9F1CE"/>
</g>
<path d="M89.0001 90.61C88.2801 90.36 87.8901 89.92 87.7401 89.37C86.9201 86.57 92.1801 80.88 92.1801 80.88C92.1801 80.88 92.2201 81.34 92.2701 82.06C92.4201 84.91 92.4701 91.87 89.0001 90.61Z" fill="#F3E4A6"/>
<g style="mix-blend-mode:multiply">
<path d="M89.0001 90.6101C88.2801 90.3601 87.8901 89.9201 87.7401 89.3701C87.9401 89.6301 88.2401 89.8101 88.5601 89.8601C89.1801 89.9701 89.8101 89.6701 90.2501 89.2201C90.6801 88.7701 90.9501 88.1801 91.1701 87.5901C91.8201 85.8201 92.0801 83.9501 92.2701 82.0701C92.4201 84.9201 92.4701 91.8801 89.0001 90.6201V90.6101Z" fill="#F9F1CE"/>
</g>
</g>
<defs>
<clipPath id="clip0_56_1005">
<rect width="122.07" height="130.44" fill="white"/>
</clipPath>
</defs>
</svg>
