<svg width="115" height="136" viewBox="0 0 115 136" fill="none" xmlns="http://www.w3.org/2000/svg">
<g clip-path="url(#clip0_56_1115)">
<path d="M0.261618 65.0218C1.42366 70.1201 6.76276 73.4073 11.9658 73.9203C17.1897 74.4437 22.5707 72.664 27.5434 71.01C31.6681 77.0505 38.6717 81.0391 45.979 81.4788C53.2653 81.9289 60.3945 78.4114 65.2207 72.9048C68.2776 75.6477 72.5279 77.0191 76.6107 76.5794C80.6936 76.1397 84.7555 74.1297 87.1633 70.8006C91.2043 72.0568 95.4023 73.02 99.6212 72.8525C103.84 72.6745 108.132 71.2926 111.189 68.3718C112.487 67.126 113.524 65.5767 114.194 63.8912C115.073 61.6299 115.293 59.1383 114.581 56.8142C113.199 52.3755 108.729 49.4442 104.154 48.6276C99.5793 47.8006 94.8893 48.7323 90.3668 49.8525C92.0837 47.7692 93.5598 45.6126 94.4287 43.0687C95.308 40.5248 95.2557 37.5202 93.7063 35.3113C92.1465 33.1024 89.2571 32.066 86.5666 32.3695C83.897 32.6836 81.4578 34.2225 79.6572 36.2325C83.7505 30.7888 85.1009 23.6071 83.7505 16.9385C82.4105 10.2803 77.7937 4.26076 71.5543 1.55981C65.3149 -1.14115 57.5889 -0.314112 52.2707 3.92576C47.9576 7.38047 45.4451 12.7091 44.3668 18.1424C43.2675 23.5548 43.4455 29.1452 43.6235 34.6832C42.3672 30.5061 40.3467 26.4023 37.227 23.3664C34.1073 20.3409 29.4278 18.5926 25.2612 19.8698C21.4505 21.0318 18.6239 24.6017 17.7969 28.4856C16.9489 32.3905 17.9225 36.5257 19.8697 40.0118C21.8169 43.4979 23.984 47.7797 27.0827 50.2817C23.0941 49.842 19.0741 49.3919 15.0959 49.7897C11.1073 50.1875 7.08729 51.517 4.11414 54.2075C1.90522 56.2175 0.355838 59.0755 0.0941173 62.0068C-0.000102105 63.0223 0.052242 64.0377 0.282556 65.0323L0.261618 65.0218Z" fill="#F9F1CE"/>
<g style="mix-blend-mode:multiply">
<path d="M0.261804 65.0218C1.42384 70.1201 6.76294 73.4073 11.9659 73.9203C17.1899 74.4437 22.5709 72.664 27.5436 71.0099C31.6683 77.0505 38.6719 81.0391 45.9791 81.4788C53.2654 81.9289 60.3947 78.4114 65.2208 72.9048C68.2777 75.6476 72.5281 77.019 76.6109 76.5794C80.6938 76.1397 84.7557 74.1296 87.1635 70.8006C91.2045 72.0568 95.4025 73.0199 99.6214 72.8524C103.84 72.6745 108.133 71.2926 111.189 68.3718C112.488 67.126 113.524 65.5766 114.194 63.8911C111.943 66.1943 108.75 67.7018 105.536 68.2252C100.344 69.0627 95.0675 67.8169 89.9587 66.5712C91.2149 63.8179 91.686 60.2794 91.3929 57.2539C90.6391 61.923 87.4461 66.1524 83.1853 68.2148C78.9245 70.2667 73.6587 70.1306 69.5235 67.8274C71.209 65.6499 71.7115 62.6558 71.5754 59.9235C68.351 69.0209 58.9396 75.6162 49.2873 76.0454C39.656 76.4747 30.0351 70.5807 26.0151 61.7974C26.0151 63.3782 26.2245 64.8647 26.2245 66.456C20.8016 68.309 15.0542 69.5129 9.34874 69.0418C6.29185 68.7801 2.95229 68.0054 1.22494 65.4615C0.523525 64.425 0.188522 63.2421 0.0733653 62.0068C-0.0208541 63.0222 0.0314901 64.0377 0.261804 65.0322V65.0218Z" fill="#F9F1CE"/>
</g>
<path d="M50.5436 11.1389C47.738 15.5253 46.4084 20.8016 46.8272 25.9941C46.9319 27.3132 49.0047 27.3236 48.9 25.9941C48.5126 21.1261 49.7061 16.3 52.3338 12.1857C53.0561 11.0551 51.2555 10.0187 50.5436 11.1389Z" fill="white"/>
<path d="M56.9086 5.46468C56.7097 5.28671 56.448 5.15062 56.1758 5.16109L55.9036 5.20296C55.7257 5.25531 55.5791 5.33906 55.443 5.46468L53.5167 7.08735C53.3283 7.25485 53.2131 7.57939 53.2131 7.82017C53.2131 8.06095 53.3283 8.37502 53.5167 8.55299C53.7156 8.73096 53.9774 8.86705 54.2495 8.85658L54.5217 8.81471C54.6997 8.76236 54.8463 8.67861 54.9824 8.55299C55.621 8.00861 56.2596 7.46423 56.9086 6.93032C57.0971 6.76282 57.2122 6.43828 57.2122 6.1975C57.2122 5.95672 57.0971 5.64265 56.9086 5.46468Z" fill="white"/>
<path d="M25.2509 24.2143C24.8321 23.7956 24.204 23.8375 23.7853 24.2143C20.7598 26.8944 19.6187 31.5111 21.0948 35.2799C21.2937 35.8033 21.7857 36.1593 22.372 36.0022C22.864 35.8661 23.3037 35.2485 23.0943 34.725C21.8695 31.5844 22.7174 27.9203 25.2509 25.68C25.6696 25.3136 25.6278 24.5912 25.2509 24.2143Z" fill="white"/>
<path d="M13.3164 52.7628C9.56861 53.1292 6.11389 55.359 4.35513 58.709C4.09341 59.2011 4.22951 59.8397 4.73201 60.1328C5.20311 60.405 5.89405 60.2584 6.15577 59.7559C6.86765 58.395 7.89359 57.2329 9.12892 56.3954C10.3956 55.537 11.8927 54.9717 13.3164 54.8251C13.8713 54.7728 14.3529 54.3854 14.3529 53.7887C14.3529 53.2653 13.8818 52.6999 13.3164 52.7523V52.7628Z" fill="white"/>
<path d="M75.8361 107.86H67.5867C69.3036 106.175 71.0205 104.479 72.7374 102.793C73.2713 102.27 72.4442 101.443 71.9103 101.966C70.3086 103.537 68.7069 105.117 67.1051 106.688C67.2098 104.385 67.2622 102.092 67.2098 99.7783C67.1784 98.2813 64.8543 98.2813 64.8857 99.7783C64.9381 102.27 64.8857 104.761 64.7601 107.253C63.3573 105.547 61.944 103.851 60.4888 102.176C59.9968 101.61 59.1802 102.437 59.6618 103.003C61.0437 104.604 62.4046 106.217 63.7446 107.85H55.6208C54.1238 107.85 54.1238 110.174 55.6208 110.174H63.5457C61.452 112.236 59.3582 114.288 57.2749 116.35C56.741 116.874 57.568 117.701 58.1019 117.177C60.2585 115.063 62.4046 112.948 64.5612 110.823C64.3204 113.827 63.9749 116.822 63.4829 119.795C63.2421 121.26 65.4825 121.888 65.7232 120.412C66.2048 117.502 66.5607 114.571 66.812 111.629C68.2358 113.43 69.6386 115.251 71.01 117.094C71.4497 117.69 72.4652 117.104 72.015 116.507C70.4237 114.361 68.7906 112.257 67.1365 110.174H75.8361C77.3332 110.174 77.3332 107.85 75.8361 107.85V107.86Z" fill="#F9F1CE"/>
<path d="M114.173 121.229H109.022C110.09 120.171 111.168 119.125 112.236 118.067C112.571 117.743 112.058 117.23 111.723 117.554C110.729 118.538 109.724 119.522 108.729 120.496C108.792 119.062 108.823 117.628 108.792 116.193C108.771 115.262 107.316 115.262 107.337 116.193C107.368 117.753 107.337 119.303 107.264 120.852C106.384 119.784 105.505 118.727 104.605 117.69C104.301 117.334 103.788 117.847 104.092 118.203C104.96 119.198 105.798 120.213 106.635 121.229H101.569C100.637 121.229 100.637 122.684 101.569 122.684H106.51C105.201 123.972 103.903 125.249 102.594 126.536C102.259 126.861 102.772 127.374 103.107 127.049C104.447 125.73 105.787 124.411 107.138 123.092C106.991 124.966 106.772 126.83 106.468 128.693C106.311 129.604 107.714 130.002 107.871 129.08C108.174 127.259 108.394 125.437 108.551 123.605C109.441 124.736 110.32 125.866 111.168 127.018C111.441 127.384 112.069 127.018 111.797 126.652C110.802 125.312 109.787 124.003 108.75 122.694H114.173C115.105 122.694 115.105 121.239 114.173 121.239V121.229Z" fill="#F9F1CE"/>
<path d="M103.61 90.2097H96.91L101.098 86.0955C101.527 85.6663 100.867 84.9963 100.428 85.4255L96.5331 89.2571C96.6169 87.3936 96.6587 85.5197 96.6169 83.6563C96.5855 82.4419 94.7011 82.4419 94.7325 83.6563C94.7744 85.6768 94.7325 87.7077 94.6383 89.7282C93.4972 88.3463 92.3456 86.9644 91.1731 85.6139C90.7753 85.1533 90.1053 85.8233 90.5031 86.2839C91.6232 87.5821 92.7329 88.9011 93.8217 90.2202H87.2263C86.012 90.2202 86.012 92.1046 87.2263 92.1046H93.6542C91.9582 93.7796 90.2623 95.4442 88.5559 97.1192C88.1267 97.5484 88.7862 98.2184 89.2259 97.7892C90.9742 96.0723 92.7225 94.3554 94.4708 92.6281C94.2823 95.0673 93.9997 97.4961 93.5914 99.9144C93.3925 101.108 95.214 101.61 95.413 100.417C95.8108 98.0509 96.0934 95.6745 96.2923 93.2876C97.4439 94.7532 98.585 96.2293 99.7052 97.7264C100.061 98.2079 100.888 97.7368 100.522 97.2448C99.2341 95.507 97.9045 93.7901 96.5541 92.0941H103.621C104.835 92.0941 104.835 90.2097 103.621 90.2097H103.61Z" fill="#F3E4A6"/>
<path d="M11.8402 95.6535H7.25488C8.20754 94.7113 9.16021 93.7796 10.1129 92.8374C10.406 92.5443 9.95584 92.0837 9.65224 92.3768C8.76239 93.2457 7.87254 94.1251 6.98269 94.994C7.03503 93.7168 7.06644 92.4396 7.0455 91.1624C7.02457 90.3354 5.7369 90.3249 5.75784 91.1624C5.78924 92.5443 5.75784 93.9367 5.69503 95.3185C4.92033 94.3659 4.1247 93.4237 3.32907 92.5024C3.05688 92.1884 2.59625 92.649 2.86844 92.9631C3.63267 93.8529 4.38642 94.7532 5.14018 95.6535H0.628116C-0.198921 95.6535 -0.20939 96.9412 0.628116 96.9412H5.02502C3.86298 98.0823 2.70094 99.2234 1.5389 100.365C1.24578 100.658 1.69594 101.118 1.99953 100.825C3.19298 99.6526 4.38642 98.4697 5.59034 97.2971C5.45424 98.9617 5.2658 100.626 4.99361 102.28C4.85752 103.097 6.10331 103.442 6.2394 102.626C6.51159 101.003 6.70003 99.3804 6.8466 97.7473C7.64223 98.7523 8.41692 99.7573 9.18114 100.783C9.42193 101.118 9.98724 100.783 9.73599 100.459C8.85661 99.2653 7.94582 98.1032 7.02457 96.9412H11.8507C12.6777 96.9412 12.6882 95.6535 11.8507 95.6535H11.8402Z" fill="#F3E4A6"/>
<path d="M38.5148 97.9358H35.6568C36.2535 97.3495 36.8502 96.7633 37.447 96.177C37.6354 95.9991 37.3423 95.7059 37.1643 95.8944C36.6095 96.4388 36.0546 96.9831 35.4998 97.5275C35.5312 96.7319 35.5521 95.9362 35.5312 95.1406C35.5207 94.6276 34.7146 94.6172 34.7251 95.1406C34.746 96.0095 34.7251 96.868 34.6832 97.7264C34.2016 97.1297 33.7096 96.5434 33.2071 95.9677C33.0396 95.7687 32.7569 96.0619 32.9244 96.2503C33.406 96.8052 33.8771 97.36 34.3377 97.9253H31.5216C30.9982 97.9253 30.9982 98.7314 31.5216 98.7314H34.2644C33.5421 99.4433 32.8197 100.155 32.0869 100.867C31.8985 101.045 32.1916 101.338 32.3696 101.15C33.1129 100.417 33.8562 99.6841 34.6099 98.9513C34.5262 99.9877 34.411 101.035 34.233 102.061C34.1493 102.563 34.924 102.783 35.0077 102.27C35.1752 101.265 35.3009 100.249 35.3846 99.2235C35.8766 99.8516 36.3687 100.48 36.8398 101.118C36.9968 101.328 37.3423 101.118 37.1852 100.919C36.6304 100.176 36.0651 99.4433 35.4893 98.721H38.5043C39.0278 98.721 39.0278 97.9149 38.5043 97.9149L38.5148 97.9358Z" fill="#F3E4A6"/>
<path d="M26.7689 87.132C24.5286 87.132 24.5181 90.6181 26.7689 90.6181C29.0197 90.6181 29.0197 87.132 26.7689 87.132Z" fill="#F9F1CE"/>
<path d="M87.9904 113.744C85.7501 113.744 85.7397 117.23 87.9904 117.23C90.2412 117.23 90.2412 113.744 87.9904 113.744Z" fill="#F3E4A6"/>
<path d="M35.6359 114.194C32.5581 114.194 32.5476 118.978 35.6359 118.978C38.7242 118.978 38.7242 114.194 35.6359 114.194Z" fill="#F3E4A6"/>
<path d="M65.7338 86.4828C62.656 86.4828 62.6455 91.267 65.7338 91.267C68.8221 91.267 68.8221 86.4828 65.7338 86.4828Z" fill="#F9F1CE"/>
<path d="M20.969 125.971H15.2635C16.4465 124.799 17.64 123.637 18.8229 122.464C19.1893 122.098 18.624 121.533 18.2576 121.899C17.1479 122.988 16.0487 124.076 14.939 125.165C15.0123 123.574 15.0437 121.983 15.0123 120.391C14.9913 119.355 13.3791 119.355 13.4001 120.391C13.442 122.119 13.4001 123.836 13.3163 125.563C12.3427 124.38 11.3691 123.208 10.3641 122.056C10.0291 121.669 9.45333 122.234 9.7988 122.621C10.7515 123.721 11.6937 124.841 12.6254 125.971H7.00363C5.96722 125.971 5.96722 127.584 7.00363 127.584H12.4788C11.0341 129.007 9.58943 130.431 8.14473 131.844C7.77832 132.211 8.34364 132.776 8.71005 132.41C10.1966 130.944 11.6832 129.489 13.1698 128.023C13.0023 130.096 12.7615 132.169 12.4265 134.221C12.259 135.236 13.8084 135.665 13.9759 134.65C14.3109 132.64 14.5516 130.609 14.7296 128.578C15.7137 129.824 16.6873 131.08 17.6295 132.357C17.9331 132.766 18.6345 132.357 18.3204 131.949C17.2212 130.473 16.0906 129.007 14.9495 127.573H20.9586C21.995 127.573 21.995 125.961 20.9586 125.961L20.969 125.971Z" fill="#F9F1CE"/>
</g>
<defs>
<clipPath id="clip0_56_1115">
<rect width="115" height="135.236" fill="white"/>
</clipPath>
</defs>
</svg>
