<svg width="115" height="135" viewBox="0 0 115 135" fill="none" xmlns="http://www.w3.org/2000/svg">
<g clip-path="url(#clip0_56_1091)">
<path d="M0.312396 64.9082C1.47241 69.9976 6.80218 73.2791 11.9961 73.7912C17.2109 74.3137 22.5825 72.5371 27.5465 70.8859C31.664 76.9159 38.6554 80.8975 45.9499 81.3365C53.2235 81.7858 60.3403 78.2745 65.158 72.7775C68.2095 75.5155 72.4524 76.8845 76.5281 76.4456C80.6039 76.0067 84.6587 74.0002 87.0623 70.6769C91.0962 71.931 95.2869 72.8924 99.4984 72.7252C103.71 72.5476 107.995 71.1681 111.046 68.2524C112.342 67.0088 113.377 65.4621 114.046 63.7796C114.923 61.5223 115.143 59.035 114.432 56.715C113.053 52.284 108.59 49.3578 104.024 48.5427C99.4566 47.7171 94.7748 48.6472 90.2601 49.7654C91.974 47.6857 93.4476 45.5329 94.315 42.9935C95.1928 40.454 95.1406 37.4547 93.5939 35.2496C92.0367 33.0445 89.1524 32.0099 86.4666 32.313C83.8017 32.6265 81.3667 34.1628 79.5692 36.1693C83.6554 30.735 85.0035 23.5659 83.6554 16.9089C82.3177 10.2624 77.7091 4.25333 71.4805 1.55709C65.252 -1.13915 57.5395 -0.313559 52.2307 3.91891C47.925 7.36758 45.4169 12.6869 44.3405 18.1107C43.2432 23.5137 43.4209 29.0942 43.5985 34.6226C42.3444 30.4528 40.3275 26.3562 37.2132 23.3256C34.099 20.3053 29.4276 18.5601 25.2683 19.8351C21.4643 20.9951 18.6426 24.5587 17.817 28.4359C16.9705 32.3339 17.9424 36.4619 19.8862 39.9419C21.83 43.4219 23.9933 47.6962 27.0867 50.1939C23.105 49.755 19.092 49.3056 15.1208 49.7027C11.1392 50.0998 7.12614 51.427 4.15819 54.1128C1.95313 56.1193 0.406451 58.9723 0.145187 61.8985C0.0511323 62.9122 0.103385 63.9259 0.333297 64.9187L0.312396 64.9082Z" fill="#59B4C9"/>
<g style="mix-blend-mode:multiply">
<path d="M0.312423 64.9082C1.47243 69.9976 6.80221 73.2791 11.9961 73.7912C17.2109 74.3137 22.5825 72.5371 27.5465 70.8859C31.664 76.9159 38.6554 80.8975 45.9499 81.3365C53.2235 81.7858 60.3403 78.2745 65.158 72.7775C68.2095 75.5155 72.4525 76.8845 76.5282 76.4456C80.6039 76.0067 84.6587 74.0002 87.0623 70.6769C91.0962 71.931 95.2869 72.8924 99.4985 72.7252C103.71 72.5476 107.995 71.1681 111.046 68.2524C112.342 67.0088 113.377 65.4621 114.046 63.7796C111.799 66.0787 108.611 67.5836 105.403 68.1061C100.22 68.9421 94.9525 67.6985 89.8526 66.4549C91.1067 63.7064 91.5769 60.1741 91.2843 57.1539C90.5319 61.8149 87.3445 66.0369 83.0911 68.0956C78.8377 70.144 73.5811 70.0081 69.4532 67.709C71.1357 65.5353 71.6373 62.5464 71.5015 59.8188C68.2827 68.9003 58.8877 75.4842 49.2523 75.9126C39.6378 76.3411 30.0337 70.4575 26.0207 61.6895C26.0207 63.2675 26.2297 64.7515 26.2297 66.34C20.8164 68.1897 15.079 69.3915 9.38349 68.9212C6.33193 68.66 2.99821 67.8866 1.27387 65.3472C0.573686 64.3125 0.239269 63.1316 0.124313 61.8985C0.0302583 62.9122 0.082511 63.9259 0.312423 64.9187V64.9082Z" fill="#B0DBE2"/>
</g>
<path d="M50.5062 11.1193C47.7055 15.4981 46.3782 20.7652 46.7963 25.9486C46.9008 27.2654 48.97 27.2759 48.8655 25.9486C48.4788 21.0891 49.6702 16.2714 52.2933 12.1644C53.0143 11.0357 51.2168 10.0011 50.5062 11.1193Z" fill="white"/>
<path d="M56.8604 5.45512C56.6619 5.27746 56.4006 5.1416 56.1289 5.15205L55.8572 5.19386C55.6795 5.24611 55.5332 5.32971 55.3973 5.45512L53.4744 7.07495C53.2863 7.24216 53.1714 7.56613 53.1714 7.80649C53.1714 8.04685 53.2863 8.36037 53.4744 8.53803C53.673 8.71569 53.9343 8.85154 54.206 8.84109L54.4777 8.79929C54.6554 8.74704 54.8017 8.66343 54.9375 8.53803C55.575 7.9946 56.2125 7.45117 56.8604 6.91819C57.0485 6.75099 57.1635 6.42702 57.1635 6.18666C57.1635 5.94629 57.0485 5.63278 56.8604 5.45512Z" fill="white"/>
<path d="M25.2578 24.1719C24.8397 23.7539 24.2127 23.7957 23.7947 24.1719C20.7745 26.8473 19.6354 31.456 21.1089 35.2182C21.3075 35.7407 21.7986 36.096 22.3839 35.9393C22.875 35.8034 23.314 35.1868 23.105 34.6643C21.8822 31.5291 22.7287 27.8714 25.2578 25.635C25.6758 25.2693 25.634 24.5482 25.2578 24.1719Z" fill="white"/>
<path d="M13.3443 52.6707C9.60297 53.0365 6.1543 55.2624 4.39861 58.6066C4.13734 59.0978 4.2732 59.7352 4.77483 60.0279C5.2451 60.2996 5.93483 60.1533 6.1961 59.6516C6.90673 58.2931 7.93089 57.1331 9.16405 56.297C10.4286 55.4401 11.923 54.8757 13.3443 54.7294C13.8981 54.6772 14.3789 54.2905 14.3789 53.6948C14.3789 53.1723 13.9086 52.608 13.3443 52.6602V52.6707Z" fill="white"/>
<path d="M75.7544 107.672H67.5194C69.2333 105.989 70.9472 104.296 72.6611 102.614C73.194 102.091 72.3684 101.266 71.8355 101.788C70.2365 103.356 68.6376 104.934 67.0387 106.501C67.1432 104.202 67.1954 101.914 67.1432 99.604C67.1118 98.1095 64.7918 98.1095 64.8232 99.604C64.8754 102.091 64.8232 104.578 64.6977 107.066C63.2974 105.362 61.8866 103.669 60.4339 101.997C59.9428 101.433 59.1276 102.258 59.6083 102.823C60.9878 104.422 62.3464 106.031 63.684 107.661H55.5744C54.08 107.661 54.08 109.981 55.5744 109.981H63.4855C61.3954 112.04 59.3053 114.088 57.2256 116.147C56.6926 116.67 57.5182 117.495 58.0512 116.973C60.204 114.862 62.3464 112.751 64.4992 110.629C64.2588 113.629 63.914 116.617 63.4228 119.585C63.1824 121.048 65.4188 121.676 65.6592 120.202C66.1399 117.297 66.4952 114.371 66.7461 111.434C68.1673 113.231 69.5677 115.05 70.9367 116.889C71.3756 117.485 72.3893 116.9 71.94 116.304C70.3515 114.162 68.7212 112.061 67.07 109.981H75.7544C77.2488 109.981 77.2488 107.661 75.7544 107.661V107.672Z" fill="#59B4C9"/>
<path d="M114.024 121.017H108.883C109.949 119.962 111.025 118.917 112.091 117.861C112.425 117.537 111.913 117.025 111.579 117.349C110.586 118.331 109.583 119.314 108.59 120.286C108.653 118.854 108.684 117.422 108.653 115.99C108.632 115.06 107.179 115.06 107.2 115.99C107.232 117.548 107.2 119.094 107.127 120.641C106.249 119.575 105.371 118.519 104.473 117.485C104.17 117.13 103.657 117.642 103.961 117.997C104.828 118.99 105.664 120.003 106.5 121.017H101.442C100.512 121.017 100.512 122.47 101.442 122.47H106.375C105.068 123.755 103.772 125.03 102.466 126.316C102.132 126.64 102.644 127.152 102.978 126.828C104.316 125.511 105.654 124.194 107.002 122.877C106.855 124.748 106.636 126.608 106.333 128.468C106.176 129.378 107.576 129.775 107.733 128.855C108.036 127.037 108.256 125.218 108.412 123.389C109.301 124.518 110.179 125.647 111.025 126.796C111.297 127.162 111.924 126.796 111.652 126.431C110.659 125.093 109.646 123.787 108.611 122.48H114.024C114.954 122.48 114.954 121.028 114.024 121.028V121.017Z" fill="#59B4C9"/>
<path d="M103.48 90.0522H96.7915L100.972 85.9451C101.4 85.5166 100.742 84.8478 100.303 85.2763L96.4153 89.1012C96.4989 87.241 96.5407 85.3703 96.4989 83.5101C96.4676 82.2979 94.5865 82.2979 94.6178 83.5101C94.6596 85.5271 94.6178 87.5545 94.5238 89.5715C93.3846 88.192 92.2351 86.8125 91.0646 85.4644C90.6675 85.0046 89.9987 85.6734 90.3958 86.1332C91.514 87.4291 92.6218 88.7459 93.7086 90.0626H87.1248C85.9125 90.0626 85.9125 91.9437 87.1248 91.9437H93.5414C91.8484 93.6158 90.1554 95.2774 88.452 96.9495C88.0235 97.378 88.6819 98.0468 89.1208 97.6184C90.8661 95.9045 92.6113 94.1906 94.3565 92.4663C94.1684 94.9012 93.8863 97.3258 93.4787 99.7398C93.2801 100.931 95.0985 101.433 95.2971 100.241C95.6942 97.8796 95.9764 95.5074 96.1749 93.1246C97.3245 94.5877 98.4636 96.0612 99.5818 97.5557C99.9371 98.0364 100.763 97.5661 100.397 97.0749C99.1115 95.3401 97.7843 93.6263 96.4362 91.9333H103.49C104.703 91.9333 104.703 90.0522 103.49 90.0522H103.48Z" fill="#4897A8"/>
<path d="M11.8705 95.4864H7.29312C8.24412 94.5459 9.19511 93.6158 10.1461 92.6752C10.4387 92.3826 9.98936 91.9228 9.68629 92.2154C8.79799 93.0828 7.9097 93.9606 7.0214 94.828C7.07366 93.5531 7.10501 92.2781 7.08411 91.0031C7.06321 90.1775 5.77779 90.1671 5.79869 91.0031C5.83004 92.3826 5.79869 93.7725 5.73599 95.152C4.96265 94.201 4.16841 93.2604 3.37417 92.3408C3.10245 92.0273 2.64263 92.4871 2.91434 92.8006C3.67723 93.6889 4.42967 94.5877 5.18211 95.4864H0.677929C-0.147663 95.4864 -0.158114 96.7718 0.677929 96.7718H5.06715C3.90714 97.9109 2.74713 99.05 1.58713 100.189C1.29451 100.482 1.74388 100.942 2.04695 100.649C3.23831 99.4785 4.42967 98.2976 5.63148 97.1271C5.49563 98.7888 5.30752 100.45 5.0358 102.102C4.89994 102.917 6.14356 103.262 6.27942 102.446C6.55113 100.827 6.73924 99.2068 6.88555 97.5765C7.67979 98.5798 8.45313 99.583 9.21602 100.607C9.45638 100.942 10.0207 100.607 9.76989 100.283C8.89205 99.0918 7.98285 97.9318 7.06321 96.7718H11.8809C12.7065 96.7718 12.7169 95.4864 11.8809 95.4864H11.8705Z" fill="#4897A8"/>
<path d="M38.4983 97.7647H35.6453C36.241 97.1795 36.8367 96.5943 37.4324 96.009C37.6205 95.8314 37.3279 95.5387 37.1502 95.7269C36.5963 96.2703 36.0425 96.8137 35.4886 97.3571C35.5199 96.5629 35.5408 95.7687 35.5199 94.9744C35.5095 94.4623 34.7048 94.4519 34.7152 94.9744C34.7361 95.8418 34.7152 96.6988 34.6734 97.5557C34.1927 96.96 33.7015 96.3748 33.1999 95.8C33.0327 95.6014 32.7505 95.8941 32.9178 96.0822C33.3985 96.6361 33.8688 97.1899 34.3286 97.7543H31.5174C30.9949 97.7543 30.9949 98.5589 31.5174 98.5589H34.2554C33.5343 99.2696 32.8132 99.9802 32.0817 100.691C31.8936 100.869 32.1862 101.161 32.3639 100.973C33.1059 100.241 33.8479 99.5099 34.6003 98.7784C34.5167 99.813 34.4017 100.858 34.2241 101.882C34.1405 102.384 34.9138 102.603 34.9974 102.091C35.1646 101.088 35.29 100.074 35.3736 99.0501C35.8648 99.6772 36.356 100.304 36.8263 100.942C36.983 101.151 37.3279 100.942 37.1711 100.743C36.6172 100.001 36.0529 99.2696 35.4781 98.5485H38.4879C39.0104 98.5485 39.0104 97.7438 38.4879 97.7438L38.4983 97.7647Z" fill="#4897A8"/>
<path d="M26.7729 86.9797C24.5365 86.9797 24.526 90.4598 26.7729 90.4598C29.0198 90.4598 29.0198 86.9797 26.7729 86.9797Z" fill="#59B4C9"/>
<path d="M87.8878 113.545C85.6514 113.545 85.6409 117.025 87.8878 117.025C90.1346 117.025 90.1346 113.545 87.8878 113.545Z" fill="#59B4C9"/>
<path d="M35.6244 113.994C32.552 113.994 32.5415 118.77 35.6244 118.77C38.7073 118.77 38.7073 113.994 35.6244 113.994Z" fill="#59B4C9"/>
<path d="M65.6696 86.3317C62.5971 86.3317 62.5867 91.1076 65.6696 91.1076C68.7525 91.1076 68.7525 86.3317 65.6696 86.3317Z" fill="#59B4C9"/>
<path d="M20.9834 125.751H15.2879C16.4688 124.581 17.6602 123.421 18.8411 122.25C19.2069 121.885 18.6425 121.32 18.2768 121.686C17.169 122.773 16.0717 123.86 14.9639 124.947C15.0371 123.358 15.0684 121.77 15.0371 120.181C15.0162 119.147 13.4068 119.147 13.4277 120.181C13.4695 121.905 13.4277 123.619 13.3441 125.344C12.3722 124.163 11.4003 122.992 10.3971 121.843C10.0626 121.456 9.48786 122.02 9.83272 122.407C10.7837 123.504 11.7243 124.623 12.6544 125.751H7.04243C6.00783 125.751 6.00783 127.361 7.04243 127.361H12.5081C11.0659 128.782 9.62371 130.203 8.18154 131.614C7.81577 131.98 8.3801 132.544 8.74587 132.178C10.2298 130.715 11.7138 129.263 13.1978 127.8C13.0306 129.869 12.7902 131.938 12.4558 133.986C12.2886 135 13.8353 135.428 14.0025 134.415C14.3369 132.408 14.5773 130.381 14.7549 128.353C15.7373 129.597 16.7092 130.851 17.6497 132.126C17.9528 132.534 18.653 132.126 18.3395 131.718C17.2422 130.245 16.1135 128.782 14.9744 127.35H20.973C22.0076 127.35 22.0076 125.741 20.973 125.741L20.9834 125.751Z" fill="#59B4C9"/>
</g>
<defs>
<clipPath id="clip0_56_1091">
<rect width="114.799" height="135" fill="white" transform="translate(0.0507812)"/>
</clipPath>
</defs>
</svg>
