<svg width="115" height="123" viewBox="0 0 115 123" fill="none" xmlns="http://www.w3.org/2000/svg">
<g clip-path="url(#clip0_56_1165)">
<path d="M0.239055 64.5412C1.3925 69.6018 6.69212 72.8647 11.8567 73.3738C17.042 73.8934 22.3832 72.1269 27.3191 70.485C31.4133 76.4809 38.3652 80.44 45.6184 80.8764C52.8508 81.3233 59.9273 77.8318 64.7178 72.3659C67.7521 75.0884 71.971 76.4497 76.0236 76.0133C80.0763 75.5768 84.1081 73.5817 86.4982 70.2772C90.5093 71.5242 94.6762 72.4802 98.864 72.3139C103.052 72.1373 107.312 70.7656 110.346 67.8664C111.635 66.6298 112.664 65.0919 113.329 63.4189C114.202 61.1743 114.42 58.7012 113.713 56.3943C112.342 51.9883 107.904 49.0787 103.363 48.2682C98.8224 47.4473 94.167 48.3721 89.678 49.484C91.3821 47.4161 92.8473 45.2755 93.7098 42.7504C94.5827 40.2252 94.5307 37.2429 92.9928 35.0503C91.4445 32.8577 88.5765 31.829 85.9059 32.1303C83.2561 32.4421 80.8348 33.9696 79.0475 35.9648C83.1106 30.5612 84.4511 23.4327 83.1106 16.8134C81.7805 10.2045 77.1979 4.2294 71.0046 1.54841C64.8113 -1.13257 57.1424 -0.311649 51.8636 3.89687C47.5823 7.32604 45.0884 12.6153 44.0181 18.0084C42.927 23.3808 43.1036 28.9298 43.2803 34.4268C42.0333 30.2807 40.0278 26.2072 36.9311 23.1937C33.8345 20.1906 29.1895 18.4552 25.0538 19.723C21.2713 20.8764 18.4656 24.4199 17.6447 28.2751C16.803 32.1511 17.7694 36.2557 19.7022 39.7161C21.635 43.1764 23.786 47.4265 26.8619 49.91C22.9027 49.4736 18.9124 49.0268 14.9637 49.4216C11.0046 49.8165 7.01426 51.1362 4.0631 53.8068C1.87051 55.802 0.332578 58.6388 0.0727926 61.5484C-0.0207301 62.5564 0.031227 63.5644 0.259838 64.5515L0.239055 64.5412Z" fill="#F9F1CE"/>
<g style="mix-blend-mode:multiply">
<path d="M0.238964 64.541C1.39241 69.6016 6.69203 72.8645 11.8566 73.3737C17.0419 73.8933 22.3831 72.1267 27.319 70.4849C31.4132 76.4807 38.3651 80.4399 45.6183 80.8763C52.8507 81.3231 59.9272 77.8316 64.7177 72.3657C67.752 75.0883 71.9709 76.4496 76.0235 76.0131C80.0762 75.5767 84.108 73.5815 86.4981 70.2771C90.5092 71.524 94.6761 72.48 98.8639 72.3138C103.052 72.1371 107.312 70.7654 110.346 67.8662C111.635 66.6297 112.664 65.0917 113.329 63.4187C111.095 65.7048 107.925 67.2012 104.735 67.7208C99.5809 68.5521 94.3436 67.3155 89.2726 66.0789C90.5196 63.346 90.9872 59.8337 90.6962 56.8306C89.948 61.4651 86.7786 65.6633 82.5493 67.7104C78.32 69.7471 73.0932 69.612 68.9885 67.3259C70.6616 65.1645 71.1603 62.1925 71.0253 59.4804C67.8247 68.5105 58.4828 75.0571 48.9019 75.4832C39.3418 75.9092 29.7921 70.0588 25.8018 61.3404C25.8018 62.9095 26.0097 64.3851 26.0097 65.9646C20.6269 67.8039 14.922 68.9989 9.25871 68.5313C6.22442 68.2715 2.90956 67.5025 1.19497 64.9774C0.498749 63.9487 0.166224 62.7745 0.0519186 61.5483C-0.0416041 62.5562 0.010353 63.5642 0.238964 64.5514V64.541Z" fill="#F9F1CE"/>
</g>
<path d="M50.1491 11.0564C47.3642 15.4104 46.0445 20.6477 46.4601 25.8018C46.5641 27.1112 48.6216 27.1216 48.5176 25.8018C48.1332 20.9698 49.3178 16.1794 51.926 12.0956C52.643 10.9733 50.8557 9.94455 50.1491 11.0564Z" fill="white"/>
<path d="M56.467 5.42435C56.2696 5.24769 56.0098 5.11261 55.7396 5.123L55.4694 5.16456C55.2928 5.21652 55.1473 5.29965 55.0122 5.42435L53.1002 7.03502C52.9131 7.20128 52.7988 7.52341 52.7988 7.76242C52.7988 8.00142 52.9131 8.31316 53.1002 8.48982C53.2976 8.66647 53.5574 8.80156 53.8276 8.79117L54.0978 8.7496C54.2744 8.69764 54.4199 8.61451 54.555 8.48982C55.1889 7.94946 55.8227 7.40911 56.467 6.87915C56.654 6.71288 56.7683 6.39075 56.7683 6.15175C56.7683 5.91275 56.654 5.601 56.467 5.42435Z" fill="white"/>
<path d="M25.0434 24.0353C24.6278 23.6196 24.0043 23.6612 23.5886 24.0353C20.5855 26.6955 19.4528 31.2781 20.918 35.019C21.1155 35.5385 21.6039 35.8919 22.1858 35.736C22.6742 35.6009 23.1106 34.9878 22.9028 34.4682C21.687 31.3508 22.5287 27.7138 25.0434 25.4901C25.4591 25.1264 25.4175 24.4093 25.0434 24.0353Z" fill="white"/>
<path d="M13.1972 52.3726C9.47709 52.7363 6.04792 54.9497 4.30217 58.275C4.04238 58.7634 4.17747 59.3972 4.67626 59.6882C5.14387 59.9584 5.8297 59.8129 6.08949 59.3141C6.79611 57.9632 7.81446 56.8098 9.04065 55.9785C10.298 55.1264 11.784 54.5652 13.1972 54.4197C13.748 54.3678 14.226 53.9833 14.226 53.391C14.226 52.8714 13.7584 52.3103 13.1972 52.3622V52.3726Z" fill="white"/>
<path d="M96.6089 12.8749C98.1988 12.8749 99.5704 11.5136 99.5704 9.91333C99.5704 8.31306 98.2092 6.95178 96.6089 6.95178C95.0086 6.95178 93.6473 8.31306 93.6473 9.91333C93.6473 11.7318 95.0086 12.8749 96.6089 12.8749Z" fill="#F3E4A6"/>
<path d="M109.494 40.4641C111.084 40.4641 112.456 39.1028 112.456 37.5026C112.456 35.9023 111.095 34.541 109.494 34.541C107.894 34.541 106.533 35.9023 106.533 37.5026C106.533 39.1028 107.894 40.4641 109.494 40.4641Z" fill="#F3E4A6"/>
<path d="M103.363 92.525C104.735 92.525 105.857 93.6369 105.857 95.019C105.857 96.401 104.746 97.5129 103.363 97.5129C101.981 97.5129 100.87 96.401 100.87 95.019C100.87 93.6369 101.981 92.525 103.363 92.525Z" fill="#F9F1CE"/>
<path d="M61.9642 92.7122C60.6237 92.7122 59.4702 93.8656 59.4702 95.2061C59.4702 96.5466 60.6237 97.7 61.9642 97.7H96.0792C97.4197 97.7 98.5731 96.5466 98.5731 95.2061C98.5731 93.8656 97.4197 92.7122 96.0792 92.7122H61.9642Z" fill="#F9F1CE"/>
<path d="M81.5103 117.059C82.882 117.059 84.0042 118.171 84.0042 119.553C84.0042 120.935 82.8924 122.047 81.5103 122.047C80.1282 122.047 79.0164 120.935 79.0164 119.553C79.0164 118.171 80.1282 117.059 81.5103 117.059Z" fill="#F3E4A6"/>
<path d="M24.0146 117.059C23.2456 117.059 22.8612 116.488 22.8612 115.906C22.8612 115.324 23.4327 114.752 24.0146 114.752H44.7143C46.0548 114.752 47.2082 113.599 47.2082 112.258C47.2082 110.918 46.0548 109.764 44.7143 109.764H24.0146C20.5647 109.764 17.8837 112.445 17.8837 115.895C17.8837 119.345 20.5647 122.026 24.0146 122.026C25.3551 122.026 26.5085 120.873 26.5085 119.532C26.5085 118.192 25.3551 117.038 24.0146 117.038V117.059Z" fill="#F3E4A6"/>
<path d="M4.17737 29.7505C5.80882 29.7505 7.13892 31.0702 7.13892 32.712C7.13892 34.3539 5.81922 35.6736 4.17737 35.6736C2.53553 35.6736 1.21582 34.3539 1.21582 32.712C1.21582 31.0702 2.53553 29.7505 4.17737 29.7505Z" fill="#F9F1CE"/>
<path d="M5.61137 95.019C6.98304 95.019 8.10531 96.1309 8.10531 97.513C8.10531 98.895 6.99343 100.007 5.61137 100.007C4.22931 100.007 3.11743 98.895 3.11743 97.513C3.11743 96.1309 4.22931 95.019 5.61137 95.019Z" fill="#F3E4A6"/>
<path d="M102.22 102.49H44.7143C43.3738 102.49 42.2203 103.644 42.2203 104.984C42.2203 106.325 43.3738 107.478 44.7143 107.478H102.22C102.792 107.478 103.374 108.05 103.374 108.632C103.374 109.214 102.802 109.785 102.22 109.785C100.88 109.785 99.7264 110.939 99.7264 112.279C99.7264 113.62 100.88 114.773 102.22 114.773C105.67 114.773 108.351 112.092 108.351 108.642C108.351 105.192 105.67 102.511 102.22 102.511V102.49Z" fill="#F9F1CE"/>
<path d="M74.0388 117.059H47.2082C45.8677 117.059 44.7142 118.213 44.7142 119.553C44.7142 120.894 45.8677 122.047 47.2082 122.047H74.0388C75.3793 122.047 76.5327 120.894 76.5327 119.553C76.5327 118.213 75.3793 117.059 74.0388 117.059Z" fill="#F3E4A6"/>
<path d="M56.9762 93.8656C56.9762 90.4156 54.2952 87.7346 50.8452 87.7346H44.7143C43.3738 87.7346 42.2204 88.8881 42.2204 90.2286C42.2204 91.5691 43.3738 92.7225 44.7143 92.7225H50.8452C51.6142 92.7225 51.9987 93.294 51.9987 93.8759C51.9987 94.4579 51.4271 95.0294 50.8452 95.0294H12.8958C11.5553 95.0294 10.4019 96.1828 10.4019 97.5233C10.4019 98.8638 11.5553 100.017 12.8958 100.017H50.8452C54.2952 100.017 56.9762 97.3363 56.9762 93.8863V93.8656Z" fill="#F3E4A6"/>
</g>
<defs>
<clipPath id="clip0_56_1165">
<rect width="114.129" height="122.037" fill="white"/>
</clipPath>
</defs>
</svg>
