<svg width="115" height="123" viewBox="0 0 115 123" fill="none" xmlns="http://www.w3.org/2000/svg">
<g clip-path="url(#clip0_56_1140)">
<path d="M1.11015 64.5412C2.2636 69.6018 7.56322 72.8647 12.7277 73.3738C17.9131 73.8934 23.2542 72.1269 28.1902 70.485C32.2844 76.4809 39.2362 80.44 46.4894 80.8764C53.7219 81.3233 60.7984 77.8318 65.5889 72.3659C68.6232 75.0884 72.8421 76.4497 76.8947 76.0133C80.9474 75.5768 84.9792 73.5817 87.3693 70.2772C91.3803 71.5242 95.5473 72.4802 99.735 72.3139C103.923 72.1373 108.183 70.7656 111.218 67.8664C112.506 66.6298 113.535 65.0919 114.2 63.4189C115.073 61.1743 115.291 58.7012 114.584 56.3943C113.213 51.9883 108.776 49.0787 104.235 48.2682C99.6935 47.4473 95.0381 48.3721 90.549 49.484C92.2532 47.4161 93.7184 45.2755 94.5809 42.7504C95.4538 40.2252 95.4018 37.2429 93.8639 35.0503C92.3156 32.8577 89.4475 31.829 86.7769 32.1303C84.1271 32.4421 81.7059 33.9696 79.9186 35.9648C83.9817 30.5612 85.3222 23.4327 83.9817 16.8134C82.6516 10.2045 78.0689 4.2294 71.8757 1.54841C65.6824 -1.13257 58.0135 -0.311649 52.7347 3.89687C48.4534 7.32604 45.9595 12.6153 44.8892 18.0084C43.7981 23.3808 43.9747 28.9298 44.1514 34.4268C42.9044 30.2807 40.8989 26.2072 37.8022 23.1937C34.7056 20.1906 30.0606 18.4552 25.9248 19.723C22.1424 20.8764 19.3367 24.4199 18.5158 28.2751C17.6741 32.1511 18.6405 36.2557 20.5733 39.7161C22.5061 43.1764 24.6571 47.4265 27.7329 49.91C23.7738 49.4736 19.7835 49.0268 15.8348 49.4216C11.8757 49.8165 7.88535 51.1362 4.93419 53.8068C2.7416 55.802 1.20367 58.6388 0.943886 61.5484C0.850364 62.5564 0.902321 63.5644 1.13093 64.5515L1.11015 64.5412Z" fill="#59B4C9"/>
<g style="mix-blend-mode:multiply">
<path d="M1.11018 64.541C2.26363 69.6016 7.56325 72.8645 12.7278 73.3737C17.9131 73.8933 23.2543 72.1267 28.1902 70.4849C32.2844 76.4807 39.2363 80.4399 46.4895 80.8763C53.7219 81.3231 60.7984 77.8316 65.5889 72.3657C68.6232 75.0883 72.8421 76.4496 76.8948 76.0131C80.9474 75.5767 84.9793 73.5815 87.3693 70.2771C91.3804 71.524 95.5473 72.48 99.7351 72.3138C103.923 72.1371 108.183 70.7654 111.218 67.8662C112.506 66.6297 113.535 65.0917 114.2 63.4187C111.966 65.7048 108.796 67.2012 105.606 67.7208C100.452 68.5521 95.2148 67.3155 90.1438 66.0789C91.3908 63.346 91.8584 59.8337 91.5674 56.8306C90.8192 61.4651 87.6499 65.6633 83.4206 67.7104C79.1913 69.7471 73.9644 69.612 69.8598 67.3259C71.5328 65.1645 72.0316 62.1925 71.8965 59.4804C68.6959 68.5105 59.354 75.0571 49.7732 75.4832C40.2131 75.9092 30.6634 70.0588 26.6731 61.3404C26.6731 62.9095 26.8809 64.3851 26.8809 65.9646C21.4981 67.8039 15.7932 68.9989 10.1299 68.5313C7.09563 68.2715 3.78077 67.5025 2.06619 64.9774C1.36997 63.9487 1.03744 62.7745 0.923134 61.5483C0.829612 62.5562 0.881569 63.5642 1.11018 64.5514V64.541Z" fill="#B0DBE2"/>
</g>
<path d="M51.0202 11.0564C48.2353 15.4104 46.9156 20.6477 47.3312 25.8018C47.4352 27.1112 49.4927 27.1216 49.3887 25.8018C49.0043 20.9698 50.1889 16.1794 52.7971 12.0956C53.5141 10.9733 51.7268 9.94455 51.0202 11.0564Z" fill="white"/>
<path d="M57.3382 5.42435C57.1408 5.24769 56.881 5.11261 56.6108 5.123L56.3406 5.16456C56.164 5.21652 56.0185 5.29965 55.8834 5.42435L53.9714 7.03502C53.7843 7.20128 53.67 7.52341 53.67 7.76242C53.67 8.00142 53.7843 8.31316 53.9714 8.48982C54.1688 8.66647 54.4286 8.80156 54.6988 8.79117L54.969 8.7496C55.1456 8.69764 55.2911 8.61451 55.4262 8.48982C56.0601 7.94946 56.6939 7.40911 57.3382 6.87915C57.5253 6.71288 57.6396 6.39075 57.6396 6.15175C57.6396 5.91275 57.5253 5.601 57.3382 5.42435Z" fill="white"/>
<path d="M25.9146 24.0353C25.499 23.6196 24.8755 23.6612 24.4598 24.0353C21.4567 26.6955 20.324 31.2781 21.7892 35.019C21.9867 35.5385 22.4751 35.8919 23.057 35.736C23.5454 35.6009 23.9818 34.9878 23.774 34.4682C22.5582 31.3508 23.3999 27.7138 25.9146 25.4901C26.3303 25.1264 26.2887 24.4093 25.9146 24.0353Z" fill="white"/>
<path d="M14.0683 52.3726C10.3482 52.7363 6.91902 54.9497 5.17326 58.275C4.91348 58.7634 5.04856 59.3972 5.54735 59.6882C6.01497 59.9584 6.7008 59.8129 6.96058 59.3141C7.6672 57.9632 8.68556 56.8098 9.91174 55.9785C11.1691 55.1264 12.6551 54.5652 14.0683 54.4197C14.6191 54.3678 15.0971 53.9833 15.0971 53.391C15.0971 52.8714 14.6294 52.3103 14.0683 52.3622V52.3726Z" fill="white"/>
<path d="M97.4801 12.8749C99.07 12.8749 100.442 11.5136 100.442 9.91333C100.442 8.31306 99.0804 6.95178 97.4801 6.95178C95.8798 6.95178 94.5186 8.31306 94.5186 9.91333C94.5186 11.7318 95.8798 12.8749 97.4801 12.8749Z" fill="#59B4C9"/>
<path d="M110.365 40.4641C111.955 40.4641 113.327 39.1028 113.327 37.5026C113.327 35.9023 111.966 34.541 110.365 34.541C108.765 34.541 107.404 35.9023 107.404 37.5026C107.404 39.1028 108.765 40.4641 110.365 40.4641Z" fill="#59B4C9"/>
<path d="M104.235 92.525C105.606 92.525 106.729 93.6369 106.729 95.019C106.729 96.401 105.617 97.5129 104.235 97.5129C102.853 97.5129 101.741 96.401 101.741 95.019C101.741 93.6369 102.853 92.525 104.235 92.525Z" fill="#59B4C9"/>
<path d="M62.8352 92.7122C61.4948 92.7122 60.3413 93.8656 60.3413 95.2061C60.3413 96.5466 61.4948 97.7 62.8352 97.7H96.9503C98.2907 97.7 99.4442 96.5466 99.4442 95.2061C99.4442 93.8656 98.2907 92.7122 96.9503 92.7122H62.8352Z" fill="#59B4C9"/>
<path d="M82.3814 117.059C83.7531 117.059 84.8753 118.171 84.8753 119.553C84.8753 120.935 83.7634 122.047 82.3814 122.047C80.9993 122.047 79.8875 120.935 79.8875 119.553C79.8875 118.171 80.9993 117.059 82.3814 117.059Z" fill="#4897A8"/>
<path d="M24.8858 117.059C24.1169 117.059 23.7324 116.488 23.7324 115.906C23.7324 115.324 24.3039 114.752 24.8858 114.752H45.5855C46.926 114.752 48.0794 113.599 48.0794 112.258C48.0794 110.918 46.926 109.764 45.5855 109.764H24.8858C21.4359 109.764 18.7549 112.445 18.7549 115.895C18.7549 119.345 21.4359 122.026 24.8858 122.026C26.2263 122.026 27.3798 120.873 27.3798 119.532C27.3798 118.192 26.2263 117.038 24.8858 117.038V117.059Z" fill="#4897A8"/>
<path d="M5.04859 29.7505C6.68004 29.7505 8.01014 31.0702 8.01014 32.712C8.01014 34.3539 6.69043 35.6736 5.04859 35.6736C3.40675 35.6736 2.08704 34.3539 2.08704 32.712C2.08704 31.0702 3.40675 29.7505 5.04859 29.7505Z" fill="#59B4C9"/>
<path d="M6.48259 95.019C7.85425 95.019 8.97653 96.1309 8.97653 97.513C8.97653 98.895 7.86464 100.007 6.48259 100.007C5.10053 100.007 3.98865 98.895 3.98865 97.513C3.98865 96.1309 5.10053 95.019 6.48259 95.019Z" fill="#4897A8"/>
<path d="M103.091 102.49H45.5854C44.2449 102.49 43.0914 103.644 43.0914 104.984C43.0914 106.325 44.2449 107.478 45.5854 107.478H103.091C103.663 107.478 104.245 108.05 104.245 108.632C104.245 109.214 103.673 109.785 103.091 109.785C101.751 109.785 100.597 110.939 100.597 112.279C100.597 113.62 101.751 114.773 103.091 114.773C106.541 114.773 109.222 112.092 109.222 108.642C109.222 105.192 106.541 102.511 103.091 102.511V102.49Z" fill="#59B4C9"/>
<path d="M74.91 117.059H48.0794C46.7389 117.059 45.5854 118.213 45.5854 119.553C45.5854 120.894 46.7389 122.047 48.0794 122.047H74.91C76.2505 122.047 77.404 120.894 77.404 119.553C77.404 118.213 76.2505 117.059 74.91 117.059Z" fill="#4897A8"/>
<path d="M57.8473 93.8656C57.8473 90.4156 55.1663 87.7346 51.7163 87.7346H45.5854C44.2449 87.7346 43.0915 88.8881 43.0915 90.2286C43.0915 91.5691 44.2449 92.7225 45.5854 92.7225H51.7163C52.4853 92.7225 52.8698 93.294 52.8698 93.8759C52.8698 94.4579 52.2982 95.0294 51.7163 95.0294H13.7669C12.4264 95.0294 11.2729 96.1828 11.2729 97.5233C11.2729 98.8638 12.4264 100.017 13.7669 100.017H51.7163C55.1663 100.017 57.8473 97.3363 57.8473 93.8863V93.8656Z" fill="#4897A8"/>
</g>
<defs>
<clipPath id="clip0_56_1140">
<rect width="114.129" height="122.037" fill="white" transform="translate(0.871094)"/>
</clipPath>
</defs>
</svg>
