<svg width="51" height="72" viewBox="0 0 51 72" fill="none" xmlns="http://www.w3.org/2000/svg">
<g clip-path="url(#clip0_57_1200)">
<path d="M21.3357 67.3291C15.5947 66.9765 11.9086 64.5895 9.74035 60.9861C-1.71328 42.5213 25.1759 4.00009 25.1759 4.00009C25.1759 4.00009 26.5428 6.10976 29.363 11.7501C39.3142 31.6525 60.794 69.7526 21.3357 67.3291Z" fill="#F3E4A6"/>
<g style="mix-blend-mode:multiply">
<path d="M21.3158 67.3429C15.5895 66.9799 11.9087 64.5891 9.73952 60.9864C11.7278 62.4441 14.2005 63.1207 16.6691 62.8471C21.3741 62.3904 25.3114 58.956 27.6104 54.7702C29.8105 50.6541 30.5747 45.8639 31.0228 41.1498C32.219 27.112 28.3086 19.1348 25.896 5.2211C37.5171 27.769 62.5326 69.7988 21.2664 67.3777L21.3158 67.3429Z" fill="#F9F1CE"/>
</g>
</g>
<defs>
<clipPath id="clip0_57_1200">
<rect width="51" height="72" fill="white"/>
</clipPath>
</defs>
</svg>
