<svg width="91" height="60" viewBox="0 0 91 60" fill="none" xmlns="http://www.w3.org/2000/svg">
<path d="M66.8587 13.1309C66.8587 9.68099 64.1777 7 60.7278 7H54.5969C53.2564 7 52.1029 8.15345 52.1029 9.49394C52.1029 10.8344 53.2564 11.9879 54.5969 11.9879H60.7278C61.4968 11.9879 61.8812 12.5594 61.8812 13.1413C61.8812 13.7232 61.3097 14.2948 60.7278 14.2948H22.7784C21.4379 14.2948 20.2844 15.4482 20.2844 16.7887C20.2844 18.1292 21.4379 19.2826 22.7784 19.2826H60.7278C64.1777 19.2826 66.8587 16.6017 66.8587 13.1517V13.1309Z" fill="#328295"/>
<path d="M79.3979 30H8.09239C6.43023 30 5 28.4036 5 26.5482C5 24.6929 6.43023 23.0964 8.09239 23.0964H79.3979C80.1065 23.0964 80.8281 22.3054 80.8281 21.5C80.8281 20.6946 80.1194 19.9035 79.3979 19.9035C77.7357 19.9035 76.3055 18.3071 76.3055 16.4518C76.3055 14.5964 77.7357 13 79.3979 13C83.6757 13 87 16.7107 87 21.4856C87 26.2606 83.6757 29.9712 79.3979 29.9712V30Z" fill="#4897A8"/>
<path d="M73.2688 34H14.5467C13.1778 34 12 35.3147 12 36.8426C12 38.3706 13.1778 39.6853 14.5467 39.6853H73.2688C73.8524 39.6853 74.4467 40.3367 74.4467 41C74.4467 41.6633 73.8631 42.3147 73.2688 42.3147C71.9 42.3147 70.7222 43.6294 70.7222 45.1574C70.7222 46.6853 71.9 48 73.2688 48C76.7917 48 79.5294 44.9442 79.5294 41.0119C79.5294 37.0795 76.7917 34.0237 73.2688 34.0237V34Z" fill="#328295"/>
<path d="M51.4106 49.805C52.0541 49.805 52.3759 49.3266 52.3759 48.8396C52.3759 48.3526 51.8976 47.8743 51.4106 47.8743H34.0872C32.9653 47.8743 32 46.909 32 45.7872C32 44.6653 32.9653 43.7 34.0872 43.7H51.4106C54.2978 43.7 56.5415 45.9437 56.5415 48.8309C56.5415 51.7182 54.2978 53.9619 51.4106 53.9619C50.2887 53.9619 49.3234 52.9966 49.3234 51.8747C49.3234 50.7529 50.2887 49.7876 51.4106 49.7876V49.805Z" fill="#4897A8"/>
</svg>
