<?xml version="1.0" encoding="utf-8"?>
<!-- Generator: $$$/GeneralStr/196=Adobe Illustrator 27.6.0, SVG Export Plug-In . SVG Version: 6.00 Build 0)  -->
<svg version="1.1" id="Livello_1" xmlns="http://www.w3.org/2000/svg" xmlns:xlink="http://www.w3.org/1999/xlink" x="0px" y="0px"
	 viewBox="0 0 34 23" style="enable-background:new 0 0 34 23;" xml:space="preserve">
<style type="text/css">
	.st0{opacity:0.4;fill:#FFA454;}
	.st1{fill:#A11A25;}
</style>
<path class="st0" d="M15.7,20.6V9.3c0,0-0.2-6.2,5.5-8.5c2.5-1,5.4-1,7.8,0.2c1.6,0.7,3.2,2.1,4.2,4.4c1,2.5,1,5.2-0.2,7.6
	c-0.9,1.8-2.5,3.6-5.6,4.5c-1.7,0.5-3.5,0.6-5.2,0.1c-0.8-0.2-1.7-0.5-2.3-1.1v-4c0,0,1.3,2.5,4.9,2.5s6-2.8,6.2-5.9
	c0.2-3.1-3-6.1-6.2-6.1c-3.3,0-5.9,2.4-6.1,5.8C18.6,12,19.8,17.3,15.7,20.6L15.7,20.6z"/>
<path class="st1" d="M14.1,17.7c0,0-2.5,3.6-7.6,1.7c0,0-0.6,1-2.8,1.6c0,0,4.4,3.9,10.4,0.6V17.7L14.1,17.7z"/>
<path class="st1" d="M14.1,16.5c0,0-3.5,2.8-9,0.4C-0.3,14.4-3,5.5,5.1,1c0,0,5.7-3.4,11.2,2.2c0,0-1.2,1.3-1.5,2.9c0,0-2-4-6.6-3.1
	c-1.6,0.3-3.1,1.2-4,2.5c-0.5,0.7-1,1.7-1,2.9c-0.2,3.4,2.8,6.3,5.6,6.4c2.8,0.1,3.9-0.8,5.4-2.3V16.5z"/>
</svg>
